SplineFontDB: 3.0
FontName: SpurceSans-BoldItalic
FullName: Spurce Sans Bold Italic
FamilyName: Spurce Sans
Weight: Bold
Copyright: Copyright 2020 Nicholas Auler, with font name 'Spurce'.\n\nBased on Source Sans, Copyright 2010, 2012, 2014 Adobe Systems Incorporated (http://www.adobe.com/), with Reserved Font Name `Source'.
UComments: "This font is still in beta. If you find any issues, contact me at nicholas.auler@gmail.com+AAoA"
Version: 0.6
ItalicAngle: -11
UnderlinePosition: -100
UnderlineWidth: 50
Ascent: 750
Descent: 250
InvalidEm: 0
sfntRevision: 0x0000999a
LayerCount: 2
Layer: 0 1 "Back" 1
Layer: 1 1 "Fore" 0
XUID: [1021 316 771282308 3638]
StyleMap: 0x0021
FSType: 0
OS2Version: 3
OS2_WeightWidthSlopeOnly: 0
OS2_UseTypoMetrics: 0
CreationTime: 1441032396
ModificationTime: 1588186969
PfmFamily: 33
TTFWeight: 700
TTFWidth: 5
LineGap: 0
VLineGap: 0
Panose: 2 11 7 3 3 4 3 9 2 4
OS2TypoAscent: 750
OS2TypoAOffset: 0
OS2TypoDescent: -250
OS2TypoDOffset: 0
OS2TypoLinegap: 0
OS2WinAscent: 984
OS2WinAOffset: 0
OS2WinDescent: 273
OS2WinDOffset: 0
HheadAscent: 984
HheadAOffset: 0
HheadDescent: -273
HheadDOffset: 0
OS2SubXSize: 650
OS2SubYSize: 600
OS2SubXOff: -15
OS2SubYOff: 75
OS2SupXSize: 650
OS2SupYSize: 600
OS2SupXOff: 68
OS2SupYOff: 350
OS2StrikeYSize: 50
OS2StrikeYPos: 297
OS2CapHeight: 660
OS2XHeight: 496
OS2Vendor: 'ADBO'
OS2CodePages: 20000193.00000000
OS2UnicodeRanges: 20000007.00000001.00000000.00000000
Lookup: 1 0 0 "'aalt' Access All Alternates in Latin lookup 0" { "'aalt' Access All Alternates in Latin lookup 0 subtable"  } ['aalt' ('DFLT' <'dflt' > 'latn' <'dflt' > ) ]
Lookup: 3 0 0 "'aalt' Access All Alternates in Latin lookup 1" { "'aalt' Access All Alternates in Latin lookup 1 subtable"  } ['aalt' ('DFLT' <'dflt' > 'latn' <'dflt' > ) ]
Lookup: 2 0 0 "Multiple Substitution lookup 2" { "Multiple Substitution lookup 2 subtable"  } []

StartChar: .notdef
Encoding: 65536 -1 0
Width: 663
Flags: W
LayerCount: 2
Fore
SplineSet
29 0 m 1,0,-1
 159 660 l 1,1,-1
 664 660 l 1,2,-1
 534 0 l 1,3,-1
 29 0 l 1,0,-1
361 408 m 1,4,-1
 365 408 l 1,5,-1
 426 504 l 1,6,-1
 471 574 l 1,7,-1
 319 574 l 1,8,-1
 339 504 l 1,9,-1
 361 408 l 1,4,-1
216 86 m 1,10,-1
 379 86 l 1,11,-1
 357 172 l 1,12,-1
 337 269 l 1,13,-1
 333 269 l 1,14,-1
 274 172 l 1,15,-1
 216 86 l 1,10,-1
150 146 m 1,16,-1
 282 340 l 1,17,-1
 228 533 l 1,18,-1
 150 146 l 1,16,-1
470 146 m 1,19,-1
 549 533 l 1,20,-1
 416 340 l 1,21,-1
 470 146 l 1,19,-1
EndSplineSet
EndChar

StartChar: A
Encoding: 65 65 2
Width: 548
GlyphClass: 2
Flags: W
AnchorPoint: "Anchor-6" 428 0 basechar 0
AnchorPoint: "Anchor-3" 237 -22 basechar 0
AnchorPoint: "Anchor-1" 374 682 basechar 0
LayerCount: 2
Fore
SplineSet
255 353 m 2,0,-1
 215 267 l 1,1,-1
 355 267 l 1,2,-1
 351 353 l 2,3,4
 349 401 349 401 347 448 c 128,-1,5
 345 495 345 495 343 547 c 1,6,-1
 339 547 l 1,7,8
 318 496 318 496 298 449 c 128,-1,9
 278 402 278 402 255 353 c 2,0,-1
-62 0 m 1,10,-1
 282 652 l 1,11,-1
 446 652 l 1,12,-1
 511 0 l 1,13,-1
 368 0 l 1,14,-1
 360 164 l 1,15,-1
 166 164 l 1,16,-1
 89 0 l 1,17,-1
 -62 0 l 1,10,-1
EndSplineSet
EndChar

StartChar: B
Encoding: 66 66 3
Width: 604
GlyphClass: 2
Flags: W
AnchorPoint: "Anchor-3" 266 -22 basechar 0
AnchorPoint: "Anchor-1" 354 682 basechar 0
LayerCount: 2
Fore
SplineSet
28 0 m 1,0,-1
 159 652 l 1,1,-1
 358 652 l 2,2,3
 407 652 407 652 447 643 c 128,-1,4
 487 634 487 634 516 616 c 128,-1,5
 545 598 545 598 561 570 c 128,-1,6
 577 542 577 542 577 503 c 0,7,8
 577 446 577 446 538.5 402.5 c 128,-1,9
 500 359 500 359 436 340 c 1,10,-1
 434 336 l 1,11,12
 488 323 488 323 517.5 292.5 c 128,-1,13
 547 262 547 262 547 214 c 0,14,15
 547 157 547 157 524.5 116 c 128,-1,16
 502 75 502 75 463.5 49.5 c 128,-1,17
 425 24 425 24 373.5 12 c 128,-1,18
 322 0 322 0 265 0 c 2,19,-1
 28 0 l 1,0,-1
243 385 m 1,20,-1
 308 385 l 2,21,22
 377 385 377 385 407 411 c 128,-1,23
 437 437 437 437 437 480 c 0,24,25
 437 512 437 512 412 529.5 c 128,-1,26
 387 547 387 547 333 547 c 2,27,-1
 275 547 l 1,28,-1
 243 385 l 1,20,-1
186 105 m 1,29,-1
 271 105 l 2,30,31
 341 105 341 105 378 131.5 c 128,-1,32
 415 158 415 158 415 209 c 0,33,34
 415 249 415 249 389 270.5 c 128,-1,35
 363 292 363 292 309 292 c 2,36,-1
 224 292 l 1,37,-1
 186 105 l 1,29,-1
EndSplineSet
EndChar

StartChar: C
Encoding: 67 67 4
Width: 567
GlyphClass: 2
Flags: W
AnchorPoint: "Anchor-3" 284 -22 basechar 0
AnchorPoint: "Anchor-2" 290 0 basechar 0
AnchorPoint: "Anchor-1" 442 682 basechar 0
LayerCount: 2
Fore
SplineSet
304 -12 m 0,0,1
 247 -12 247 -12 201.5 6.5 c 128,-1,2
 156 25 156 25 123.5 60.5 c 128,-1,3
 91 96 91 96 73.5 146.5 c 128,-1,4
 56 197 56 197 56 261 c 0,5,6
 56 345 56 345 83 418.5 c 128,-1,7
 110 492 110 492 156.5 546.5 c 128,-1,8
 203 601 203 601 266.5 632.5 c 128,-1,9
 330 664 330 664 403 664 c 0,10,11
 460 664 460 664 504.5 636.5 c 128,-1,12
 549 609 549 609 577 560 c 1,13,-1
 483 488 l 1,14,15
 465 517 465 517 444 531 c 128,-1,16
 423 545 423 545 396 545 c 0,17,18
 354 545 354 545 318 522.5 c 128,-1,19
 282 500 282 500 255 462 c 128,-1,20
 228 424 228 424 212.5 374 c 128,-1,21
 197 324 197 324 197 270 c 0,22,23
 197 194 197 194 229 150 c 128,-1,24
 261 106 261 106 333 106 c 0,25,26
 362 106 362 106 390 120 c 128,-1,27
 418 134 418 134 444 156 c 1,28,-1
 501 68 l 1,29,30
 486 54 486 54 466 40 c 128,-1,31
 446 26 446 26 421 14.5 c 128,-1,32
 396 3 396 3 366.5 -4.5 c 128,-1,33
 337 -12 337 -12 304 -12 c 0,0,1
EndSplineSet
EndChar

StartChar: D
Encoding: 68 68 5
Width: 616
GlyphClass: 2
Flags: W
AnchorPoint: "Anchor-3" 286 -22 basechar 0
AnchorPoint: "Anchor-1" 403 682 basechar 0
LayerCount: 2
Fore
SplineSet
28 0 m 1,0,-1
 159 652 l 1,1,-1
 302 652 l 2,2,3
 439 652 439 652 514.5 589 c 128,-1,4
 590 526 590 526 590 396 c 0,5,6
 590 300 590 300 563.5 226 c 128,-1,7
 537 152 537 152 489.5 101.5 c 128,-1,8
 442 51 442 51 376 25.5 c 128,-1,9
 310 0 310 0 232 0 c 2,10,-1
 28 0 l 1,0,-1
188 110 m 1,11,-1
 229 110 l 2,12,13
 276 110 276 110 316.5 126.5 c 128,-1,14
 357 143 357 143 386.5 177 c 128,-1,15
 416 211 416 211 433 263.5 c 128,-1,16
 450 316 450 316 450 387 c 0,17,18
 450 468 450 468 409 505 c 128,-1,19
 368 542 368 542 299 542 c 2,20,-1
 273 542 l 1,21,-1
 188 110 l 1,11,-1
EndSplineSet
EndChar

StartChar: E
Encoding: 69 69 6
Width: 527
GlyphClass: 2
Flags: W
AnchorPoint: "Anchor-6" 345 0 basechar 0
AnchorPoint: "Anchor-3" 247 -22 basechar 0
AnchorPoint: "Anchor-1" 377 682 basechar 0
LayerCount: 2
Fore
SplineSet
28 0 m 1,0,-1
 159 652 l 1,1,-1
 545 652 l 1,2,-1
 523 537 l 1,3,-1
 272 537 l 1,4,-1
 244 395 l 1,5,-1
 457 395 l 1,6,-1
 435 280 l 1,7,-1
 222 280 l 1,8,-1
 188 115 l 1,9,-1
 447 115 l 1,10,-1
 425 0 l 1,11,-1
 28 0 l 1,0,-1
EndSplineSet
EndChar

StartChar: F
Encoding: 70 70 7
Width: 504
GlyphClass: 2
Flags: W
AnchorPoint: "Anchor-3" 102 -22 basechar 0
AnchorPoint: "Anchor-1" 376 682 basechar 0
LayerCount: 2
Fore
SplineSet
28 0 m 1,0,-1
 159 652 l 1,1,-1
 545 652 l 1,2,-1
 523 537 l 1,3,-1
 272 537 l 1,4,-1
 241 377 l 1,5,-1
 453 377 l 1,6,-1
 431 262 l 1,7,-1
 218 262 l 1,8,-1
 166 0 l 1,9,-1
 28 0 l 1,0,-1
EndSplineSet
EndChar

StartChar: G
Encoding: 71 71 8
Width: 611
GlyphClass: 2
Flags: W
AnchorPoint: "Anchor-3" 316 -22 basechar 0
AnchorPoint: "Anchor-1" 437 682 basechar 0
LayerCount: 2
Fore
SplineSet
314 -12 m 0,0,1
 254 -12 254 -12 206 6.5 c 128,-1,2
 158 25 158 25 124.5 60 c 128,-1,3
 91 95 91 95 73.5 145.5 c 128,-1,4
 56 196 56 196 56 261 c 0,5,6
 56 345 56 345 83 418.5 c 128,-1,7
 110 492 110 492 157.5 546.5 c 128,-1,8
 205 601 205 601 270.5 632.5 c 128,-1,9
 336 664 336 664 413 664 c 0,10,11
 476 664 476 664 521.5 636.5 c 128,-1,12
 567 609 567 609 595 560 c 1,13,-1
 502 488 l 1,14,15
 483 517 483 517 460.5 531 c 128,-1,16
 438 545 438 545 406 545 c 0,17,18
 361 545 361 545 322.5 522.5 c 128,-1,19
 284 500 284 500 256 462 c 128,-1,20
 228 424 228 424 212.5 374 c 128,-1,21
 197 324 197 324 197 270 c 0,22,23
 197 232 197 232 204.5 202 c 128,-1,24
 212 172 212 172 229 150 c 128,-1,25
 246 128 246 128 273 116.5 c 128,-1,26
 300 105 300 105 338 105 c 0,27,28
 358 105 358 105 376.5 111 c 128,-1,29
 395 117 395 117 409 127 c 1,30,-1
 437 255 l 1,31,-1
 330 255 l 1,32,-1
 351 367 l 1,33,-1
 578 367 l 1,34,-1
 518 56 l 1,35,36
 480 27 480 27 428 7.5 c 128,-1,37
 376 -12 376 -12 314 -12 c 0,0,1
EndSplineSet
EndChar

StartChar: H
Encoding: 72 72 9
Width: 652
GlyphClass: 2
Flags: W
AnchorPoint: "Anchor-3" 286 -22 basechar 0
AnchorPoint: "Anchor-1" 414 682 basechar 0
LayerCount: 2
Fore
SplineSet
28 0 m 1,0,-1
 159 652 l 1,1,-1
 296 652 l 1,2,-1
 244 399 l 1,3,-1
 467 399 l 1,4,-1
 517 652 l 1,5,-1
 654 652 l 1,6,-1
 524 0 l 1,7,-1
 386 0 l 1,8,-1
 443 279 l 1,9,-1
 220 279 l 1,10,-1
 166 0 l 1,11,-1
 28 0 l 1,0,-1
EndSplineSet
EndChar

StartChar: I
Encoding: 73 73 10
Width: 366
GlyphClass: 2
Flags: W
LayerCount: 2
Fore
SplineSet
-6 0 m 1,0,-1
 18 115 l 1,1,-1
 86 115 l 1,2,-1
 171 537 l 1,3,-1
 102 537 l 1,4,-1
 126 652 l 1,5,-1
 401 652 l 1,6,-1
 377 537 l 1,7,-1
 309 537 l 1,8,-1
 223 115 l 1,9,-1
 295 115 l 1,10,-1
 271 0 l 1,11,-1
 -6 0 l 1,0,-1
EndSplineSet
Substitution2: "'ss04' Style Set 4 in Latin lookup 23 subtable" I.a
Substitution2: "'aalt' Access All Alternates in Latin lookup 0 subtable" I.a
EndChar

StartChar: J
Encoding: 74 74 11
Width: 491
GlyphClass: 2
Flags: W
AnchorPoint: "Anchor-3" 161 -30 basechar 0
AnchorPoint: "Anchor-1" 440 682 basechar 0
LayerCount: 2
Fore
SplineSet
176 -12 m 0,0,1
 119 -12 119 -12 70 13.5 c 128,-1,2
 21 39 21 39 -8 87 c 1,3,-1
 76 170 l 1,4,5
 90 144 90 144 115.5 125 c 128,-1,6
 141 106 141 106 176 106 c 0,7,8
 252 106 252 106 276 227 c 2,9,-1
 361 652 l 1,10,-1
 498 652 l 1,11,-1
 408 203 l 2,12,13
 399 159 399 159 381.5 120 c 128,-1,14
 364 81 364 81 335.5 51.5 c 128,-1,15
 307 22 307 22 267.5 5 c 128,-1,16
 228 -12 228 -12 176 -12 c 0,0,1
EndSplineSet
EndChar

StartChar: K
Encoding: 75 75 12
Width: 604
GlyphClass: 2
Flags: W
AnchorPoint: "Anchor-3" 292 -22 basechar 0
AnchorPoint: "Anchor-1" 422 682 basechar 0
LayerCount: 2
Fore
SplineSet
28 0 m 1,0,-1
 159 652 l 1,1,-1
 296 652 l 1,2,-1
 243 384 l 1,3,-1
 246 384 l 1,4,-1
 491 652 l 1,5,-1
 641 652 l 1,6,-1
 404 384 l 1,7,-1
 550 0 l 1,8,-1
 407 0 l 1,9,-1
 303 298 l 1,10,-1
 204 191 l 1,11,-1
 166 0 l 1,12,-1
 28 0 l 1,0,-1
EndSplineSet
EndChar

StartChar: L
Encoding: 76 76 13
Width: 500
GlyphClass: 2
Flags: W
AnchorPoint: "Anchor-3" 236 -22 basechar 0
AnchorPoint: "Anchor-1" 255 682 basechar 0
LayerCount: 2
Fore
SplineSet
28 0 m 1,0,-1
 159 652 l 1,1,-1
 296 652 l 1,2,-1
 188 115 l 1,3,-1
 435 115 l 1,4,-1
 413 0 l 1,5,-1
 28 0 l 1,0,-1
EndSplineSet
EndChar

StartChar: M
Encoding: 77 77 14
Width: 740
GlyphClass: 2
Flags: W
AnchorPoint: "Anchor-3" 328 -30 basechar 0
AnchorPoint: "Anchor-1" 448 682 basechar 0
LayerCount: 2
Fore
SplineSet
28 0 m 1,0,-1
 159 652 l 1,1,-1
 304 652 l 1,2,-1
 351 351 l 1,3,-1
 368 234 l 1,4,-1
 372 234 l 1,5,-1
 432 351 l 1,6,-1
 596 652 l 1,7,-1
 742 652 l 1,8,-1
 611 0 l 1,9,-1
 483 0 l 1,10,-1
 537 259 l 2,11,12
 542 283 542 283 549 311.5 c 128,-1,13
 556 340 556 340 564 369 c 128,-1,14
 572 398 572 398 580 425.5 c 128,-1,15
 588 453 588 453 596 477 c 1,16,-1
 593 477 l 1,17,-1
 512 327 l 1,18,-1
 359 60 l 1,19,-1
 304 60 l 1,20,-1
 256 327 l 1,21,-1
 236 477 l 1,22,-1
 232 477 l 1,23,24
 230 453 230 453 227.5 425 c 128,-1,25
 225 397 225 397 222 368 c 128,-1,26
 219 339 219 339 215 311 c 128,-1,27
 211 283 211 283 206 259 c 2,28,-1
 154 0 l 1,29,-1
 28 0 l 1,0,-1
EndSplineSet
EndChar

StartChar: N
Encoding: 78 78 15
Width: 643
GlyphClass: 2
Flags: W
AnchorPoint: "Anchor-3" 300 -30 basechar 0
AnchorPoint: "Anchor-1" 426 682 basechar 0
LayerCount: 2
Fore
SplineSet
28 0 m 1,0,-1
 159 652 l 1,1,-1
 292 652 l 1,2,-1
 398 312 l 1,3,-1
 433 169 l 1,4,-1
 437 169 l 1,5,6
 440 194 440 194 442 224 c 128,-1,7
 444 254 444 254 447 284.5 c 128,-1,8
 450 315 450 315 454 346 c 128,-1,9
 458 377 458 377 464 405 c 2,10,-1
 514 652 l 1,11,-1
 644 652 l 1,12,-1
 514 0 l 1,13,-1
 382 0 l 1,14,-1
 275 339 l 1,15,-1
 242 484 l 1,16,-1
 238 484 l 1,17,18
 233 429 233 429 226.5 368 c 128,-1,19
 220 307 220 307 209 250 c 2,20,-1
 159 0 l 1,21,-1
 28 0 l 1,0,-1
EndSplineSet
EndChar

StartChar: O
Encoding: 79 79 16
Width: 660
GlyphClass: 2
Flags: W
AnchorPoint: "Anchor-6" 299 0 basechar 0
AnchorPoint: "Anchor-4" 528 645 basechar 0
AnchorPoint: "Anchor-3" 293 -22 basechar 0
AnchorPoint: "Anchor-1" 429 682 basechar 0
LayerCount: 2
Fore
SplineSet
302 -12 m 0,0,1
 246 -12 246 -12 201 6.5 c 128,-1,2
 156 25 156 25 124 60.5 c 128,-1,3
 92 96 92 96 74.5 147.5 c 128,-1,4
 57 199 57 199 57 264 c 0,5,6
 57 350 57 350 84 423.5 c 128,-1,7
 111 497 111 497 156.5 550.5 c 128,-1,8
 202 604 202 604 262 634 c 128,-1,9
 322 664 322 664 388 664 c 0,10,11
 444 664 444 664 489 645 c 128,-1,12
 534 626 534 626 566 590.5 c 128,-1,13
 598 555 598 555 615.5 504 c 128,-1,14
 633 453 633 453 633 388 c 0,15,16
 633 302 633 302 606 228.5 c 128,-1,17
 579 155 579 155 533.5 101.5 c 128,-1,18
 488 48 488 48 428 18 c 128,-1,19
 368 -12 368 -12 302 -12 c 0,0,1
309 106 m 0,20,21
 344 106 344 106 377 127.5 c 128,-1,22
 410 149 410 149 436 186 c 128,-1,23
 462 223 462 223 477.5 272.5 c 128,-1,24
 493 322 493 322 493 379 c 0,25,26
 493 457 493 457 464.5 501 c 128,-1,27
 436 545 436 545 382 545 c 0,28,29
 347 545 347 545 314 523.5 c 128,-1,30
 281 502 281 502 255 465.5 c 128,-1,31
 229 429 229 429 213 379.5 c 128,-1,32
 197 330 197 330 197 273 c 0,33,34
 197 195 197 195 226 150.5 c 128,-1,35
 255 106 255 106 309 106 c 0,20,21
EndSplineSet
EndChar

StartChar: P
Encoding: 80 80 17
Width: 583
GlyphClass: 2
Flags: W
AnchorPoint: "Anchor-3" 102 -30 basechar 0
AnchorPoint: "Anchor-1" 394 682 basechar 0
LayerCount: 2
Fore
SplineSet
28 0 m 1,0,-1
 159 652 l 1,1,-1
 365 652 l 2,2,3
 413 652 413 652 453.5 642.5 c 128,-1,4
 494 633 494 633 524 612.5 c 128,-1,5
 554 592 554 592 571 559 c 128,-1,6
 588 526 588 526 588 479 c 0,7,8
 588 411 588 411 564 363 c 128,-1,9
 540 315 540 315 499 284.5 c 128,-1,10
 458 254 458 254 403.5 240 c 128,-1,11
 349 226 349 226 287 226 c 2,12,-1
 210 226 l 1,13,-1
 166 0 l 1,14,-1
 28 0 l 1,0,-1
233 335 m 1,15,-1
 302 335 l 2,16,17
 375 335 375 335 414 366 c 128,-1,18
 453 397 453 397 453 459 c 0,19,20
 453 503 453 503 424.5 523 c 128,-1,21
 396 543 396 543 343 543 c 2,22,-1
 273 543 l 1,23,-1
 233 335 l 1,15,-1
EndSplineSet
EndChar

StartChar: Q
Encoding: 81 81 18
Width: 660
GlyphClass: 2
Flags: W
AnchorPoint: "Anchor-1" 429 682 basechar 0
LayerCount: 2
Fore
SplineSet
309 106 m 0,0,1
 344 106 344 106 377 127.5 c 128,-1,2
 410 149 410 149 436 186 c 128,-1,3
 462 223 462 223 477.5 272.5 c 128,-1,4
 493 322 493 322 493 379 c 0,5,6
 493 457 493 457 464.5 501 c 128,-1,7
 436 545 436 545 382 545 c 0,8,9
 347 545 347 545 314 523.5 c 128,-1,10
 281 502 281 502 255 465.5 c 128,-1,11
 229 429 229 429 213 379.5 c 128,-1,12
 197 330 197 330 197 273 c 0,13,14
 197 195 197 195 226 150.5 c 128,-1,15
 255 106 255 106 309 106 c 0,0,1
483 -176 m 0,16,17
 280 -176 280 -176 210 3 c 1,18,19
 138 29 138 29 97.5 95.5 c 128,-1,20
 57 162 57 162 57 264 c 0,21,22
 57 350 57 350 84 423.5 c 128,-1,23
 111 497 111 497 156.5 550.5 c 128,-1,24
 202 604 202 604 262 634 c 128,-1,25
 322 664 322 664 388 664 c 0,26,27
 444 664 444 664 489 645 c 128,-1,28
 534 626 534 626 566 590.5 c 128,-1,29
 598 555 598 555 615.5 504 c 128,-1,30
 633 453 633 453 633 388 c 0,31,32
 633 310 633 310 611 243 c 128,-1,33
 589 176 589 176 551.5 124 c 128,-1,34
 514 72 514 72 463.5 38 c 128,-1,35
 413 4 413 4 355 -7 c 1,36,37
 375 -38 375 -38 412 -52 c 128,-1,38
 449 -66 449 -66 491 -66 c 0,39,40
 511 -66 511 -66 526 -63.5 c 128,-1,41
 541 -61 541 -61 557 -57 c 1,42,-1
 563 -160 l 1,43,44
 546 -167 546 -167 523 -171.5 c 128,-1,45
 500 -176 500 -176 483 -176 c 0,16,17
EndSplineSet
EndChar

StartChar: R
Encoding: 82 82 19
Width: 596
GlyphClass: 2
Flags: W
AnchorPoint: "Anchor-3" 284 -30 basechar 0
AnchorPoint: "Anchor-1" 394 682 basechar 0
LayerCount: 2
Fore
SplineSet
28 0 m 1,0,-1
 159 652 l 1,1,-1
 363 652 l 2,2,3
 411 652 411 652 452 643 c 128,-1,4
 493 634 493 634 522.5 614 c 128,-1,5
 552 594 552 594 569 562 c 128,-1,6
 586 530 586 530 586 485 c 0,7,8
 586 439 586 439 573.5 402.5 c 128,-1,9
 561 366 561 366 539 338 c 128,-1,10
 517 310 517 310 486.5 290 c 128,-1,11
 456 270 456 270 420 258 c 1,12,-1
 521 0 l 1,13,-1
 377 0 l 1,14,-1
 293 239 l 1,15,-1
 213 239 l 1,16,-1
 166 0 l 1,17,-1
 28 0 l 1,0,-1
235 348 m 1,18,-1
 304 348 l 2,19,20
 377 348 377 348 414 379.5 c 128,-1,21
 451 411 451 411 451 465 c 0,22,23
 451 507 451 507 423 525 c 128,-1,24
 395 543 395 543 342 543 c 2,25,-1
 273 543 l 1,26,-1
 235 348 l 1,18,-1
EndSplineSet
EndChar

StartChar: S
Encoding: 83 83 20
Width: 529
GlyphClass: 2
Flags: W
AnchorPoint: "Anchor-3" 242 -30 basechar 0
AnchorPoint: "Anchor-2" 248 0 basechar 0
AnchorPoint: "Anchor-1" 372 689 basechar 0
LayerCount: 2
Fore
SplineSet
238 -12 m 0,0,1
 174 -12 174 -12 113.5 16 c 128,-1,2
 53 44 53 44 5 110 c 1,3,-1
 103 187 l 1,4,5
 129 149 129 149 167.5 127 c 128,-1,6
 206 105 206 105 248 105 c 256,7,8
 290 105 290 105 316 125 c 128,-1,9
 342 145 342 145 342 180 c 0,10,11
 342 206 342 206 321.5 222.5 c 128,-1,12
 301 239 301 239 266 261 c 2,13,-1
 204 299 l 2,14,15
 159 327 159 327 133 364.5 c 128,-1,16
 107 402 107 402 107 462 c 0,17,18
 107 504 107 504 125 540.5 c 128,-1,19
 143 577 143 577 173.5 604.5 c 128,-1,20
 204 632 204 632 246 648 c 128,-1,21
 288 664 288 664 336 664 c 0,22,23
 394 664 394 664 445 637 c 128,-1,24
 496 610 496 610 534 565 c 1,25,-1
 447 484 l 1,26,27
 422 510 422 510 394 527.5 c 128,-1,28
 366 545 366 545 330 545 c 0,29,30
 290 545 290 545 268.5 524.5 c 128,-1,31
 247 504 247 504 247 475 c 0,32,33
 247 450 247 450 269 434 c 128,-1,34
 291 418 291 418 329 394 c 2,35,-1
 393 355 l 2,36,37
 441 326 441 326 462.5 291.5 c 128,-1,38
 484 257 484 257 484 200 c 0,39,40
 484 155 484 155 466.5 116.5 c 128,-1,41
 449 78 449 78 417 49.5 c 128,-1,42
 385 21 385 21 339.5 4.5 c 128,-1,43
 294 -12 294 -12 238 -12 c 0,0,1
EndSplineSet
EndChar

StartChar: T
Encoding: 84 84 21
Width: 532
GlyphClass: 2
Flags: W
AnchorPoint: "Anchor-3" 217 -22 basechar 0
AnchorPoint: "Anchor-2" 223 0 basechar 0
AnchorPoint: "Anchor-1" 361 682 basechar 0
LayerCount: 2
Fore
SplineSet
149 0 m 1,0,-1
 255 536 l 1,1,-1
 84 536 l 1,2,-1
 106 652 l 1,3,-1
 586 652 l 1,4,-1
 563 536 l 1,5,-1
 392 536 l 1,6,-1
 286 0 l 1,7,-1
 149 0 l 1,0,-1
EndSplineSet
EndChar

StartChar: U
Encoding: 85 85 22
Width: 643
GlyphClass: 2
Flags: W
AnchorPoint: "Anchor-6" 290 0 basechar 0
AnchorPoint: "Anchor-4" 611 662 basechar 0
AnchorPoint: "Anchor-3" 283 -22 basechar 0
AnchorPoint: "Anchor-1" 422 682 basechar 0
LayerCount: 2
Fore
SplineSet
88 320 m 2,0,-1
 155 652 l 1,1,-1
 292 652 l 1,2,-1
 221 295 l 2,3,4
 217 275 217 275 215 256 c 128,-1,5
 213 237 213 237 213 219 c 0,6,7
 213 164 213 164 235 135 c 128,-1,8
 257 106 257 106 312 106 c 0,9,10
 359 106 359 106 390 144.5 c 128,-1,11
 421 183 421 183 439 274 c 2,12,-1
 515 652 l 1,13,-1
 649 652 l 1,14,-1
 573 276 l 2,15,16
 543 126 543 126 477.5 57 c 128,-1,17
 412 -12 412 -12 308 -12 c 0,18,19
 192 -12 192 -12 133.5 43.5 c 128,-1,20
 75 99 75 99 75 215 c 0,21,22
 75 237 75 237 79 265.5 c 128,-1,23
 83 294 83 294 88 320 c 2,0,-1
EndSplineSet
EndChar

StartChar: V
Encoding: 86 86 23
Width: 554
GlyphClass: 2
Flags: W
AnchorPoint: "Anchor-3" 237 -30 basechar 0
AnchorPoint: "Anchor-1" 379 682 basechar 0
LayerCount: 2
Fore
SplineSet
134 0 m 1,0,-1
 79 652 l 1,1,-1
 222 652 l 1,2,-1
 239 331 l 2,3,4
 241 279 241 279 243 227 c 128,-1,5
 245 175 245 175 246 122 c 1,6,-1
 250 122 l 1,7,8
 273 175 273 175 295.5 227 c 128,-1,9
 318 279 318 279 341 331 c 2,10,-1
 486 652 l 1,11,-1
 637 652 l 1,12,-1
 300 0 l 1,13,-1
 134 0 l 1,0,-1
EndSplineSet
EndChar

StartChar: W
Encoding: 87 87 24
Width: 794
GlyphClass: 2
Flags: W
AnchorPoint: "Anchor-3" 340 -30 basechar 0
AnchorPoint: "Anchor-1" 491 682 basechar 0
LayerCount: 2
Fore
SplineSet
77 0 m 1,0,-1
 100 652 l 1,1,-1
 240 652 l 1,2,-1
 219 339 l 2,3,4
 214 287 214 287 209.5 234.5 c 128,-1,5
 205 182 205 182 199 130 c 1,6,-1
 203 130 l 1,7,8
 223 182 223 182 245.5 235 c 128,-1,9
 268 288 268 288 288 339 c 2,10,-1
 422 652 l 1,11,-1
 538 652 l 1,12,-1
 540 339 l 2,13,14
 539 288 539 288 537 235.5 c 128,-1,15
 535 183 535 183 533 130 c 1,16,-1
 537 130 l 1,17,18
 555 183 555 183 574 235.5 c 128,-1,19
 593 288 593 288 610 339 c 2,20,-1
 720 652 l 1,21,-1
 851 652 l 1,22,-1
 598 0 l 1,23,-1
 425 0 l 1,24,-1
 429 312 l 2,25,26
 429 344 429 344 431.5 385 c 128,-1,27
 434 426 434 426 438 464 c 1,28,-1
 434 464 l 1,29,30
 420 427 420 427 404.5 388.5 c 128,-1,31
 389 350 389 350 375 312 c 2,32,-1
 247 0 l 1,33,-1
 77 0 l 1,0,-1
EndSplineSet
EndChar

StartChar: X
Encoding: 88 88 25
Width: 553
GlyphClass: 2
Flags: W
AnchorPoint: "Anchor-3" 284 -30 basechar 0
AnchorPoint: "Anchor-1" 375 682 basechar 0
LayerCount: 2
Fore
SplineSet
-36 0 m 1,0,-1
 206 336 l 1,1,-1
 105 652 l 1,2,-1
 257 652 l 1,3,-1
 290 521 l 2,4,5
 295 498 295 498 300.5 473 c 128,-1,6
 306 448 306 448 313 419 c 1,7,-1
 317 419 l 1,8,9
 334 448 334 448 349.5 473.5 c 128,-1,10
 365 499 365 499 379 522 c 2,11,-1
 458 652 l 1,12,-1
 604 652 l 1,13,-1
 375 330 l 1,14,-1
 484 0 l 1,15,-1
 332 0 l 1,16,-1
 295 142 l 2,17,18
 288 168 288 168 282 193 c 128,-1,19
 276 218 276 218 269 247 c 1,20,-1
 265 247 l 1,21,22
 248 218 248 218 232 192.5 c 128,-1,23
 216 167 216 167 200 141 c 2,24,-1
 110 0 l 1,25,-1
 -36 0 l 1,0,-1
EndSplineSet
EndChar

StartChar: Y
Encoding: 89 89 26
Width: 509
GlyphClass: 2
Flags: W
AnchorPoint: "Anchor-3" 206 -30 basechar 0
AnchorPoint: "Anchor-1" 347 682 basechar 0
LayerCount: 2
Fore
SplineSet
138 0 m 1,0,-1
 184 236 l 1,1,-1
 80 652 l 1,2,-1
 222 652 l 1,3,-1
 250 495 l 2,4,5
 257 458 257 458 262.5 424 c 128,-1,6
 268 390 268 390 275 352 c 1,7,-1
 279 352 l 1,8,9
 299 390 299 390 318 424.5 c 128,-1,10
 337 459 337 459 359 497 c 2,11,-1
 450 652 l 1,12,-1
 597 652 l 1,13,-1
 321 236 l 1,14,-1
 274 0 l 1,15,-1
 138 0 l 1,0,-1
EndSplineSet
EndChar

StartChar: Z
Encoding: 90 90 27
Width: 525
GlyphClass: 2
Flags: W
AnchorPoint: "Anchor-3" 216 -30 basechar 0
AnchorPoint: "Anchor-1" 366 682 basechar 0
LayerCount: 2
Fore
SplineSet
-5 0 m 1,0,-1
 13 82 l 1,1,-1
 369 537 l 1,2,-1
 112 537 l 1,3,-1
 135 652 l 1,4,-1
 556 652 l 1,5,-1
 539 569 l 1,6,-1
 186 115 l 1,7,-1
 469 115 l 1,8,-1
 445 0 l 1,9,-1
 -5 0 l 1,0,-1
EndSplineSet
EndChar

StartChar: a
Encoding: 97 97 28
Width: 552
GlyphClass: 2
Flags: W
AnchorPoint: "Anchor-5" 352 0 basechar 0
AnchorPoint: "Anchor-3" 245 -22 basechar 0
AnchorPoint: "Anchor-0" 330 518 basechar 0
LayerCount: 2
Fore
SplineSet
171 -12 m 0,0,1
 105 -12 105 -12 68 35 c 128,-1,2
 31 82 31 82 31 170 c 0,3,4
 31 241 31 241 53 302.5 c 128,-1,5
 75 364 75 364 112 410 c 128,-1,6
 149 456 149 456 197 482 c 128,-1,7
 245 508 245 508 296 508 c 0,8,9
 330 508 330 508 360 490.5 c 128,-1,10
 390 473 390 473 404 443 c 1,11,-1
 406 443 l 1,12,-1
 428 496 l 1,13,-1
 537 496 l 1,14,-1
 438 0 l 1,15,-1
 327 0 l 1,16,-1
 329 65 l 1,17,-1
 326 65 l 1,18,19
 292 30 292 30 251 9 c 128,-1,20
 210 -12 210 -12 171 -12 c 0,0,1
231 100 m 0,21,22
 256 100 256 100 284.5 115.5 c 128,-1,23
 313 131 313 131 337 173 c 1,24,-1
 372 349 l 1,25,26
 360 374 360 374 341.5 385 c 128,-1,27
 323 396 323 396 306 396 c 0,28,29
 280 396 280 396 256 380 c 128,-1,30
 232 364 232 364 213.5 336 c 128,-1,31
 195 308 195 308 184 270 c 128,-1,32
 173 232 173 232 173 187 c 256,33,34
 173 142 173 142 188.5 121 c 128,-1,35
 204 100 204 100 231 100 c 0,21,22
EndSplineSet
Substitution2: "'ss02' Style Set 2 in Latin lookup 21 subtable" a.a
Substitution2: "'sups' Superscript in Latin lookup 12 subtable" a.sups
AlternateSubs2: "'aalt' Access All Alternates in Latin lookup 1 subtable" a.sups a.a
EndChar

StartChar: b
Encoding: 98 98 29
Width: 553
GlyphClass: 2
Flags: W
AnchorPoint: "Anchor-3" 241 -22 basechar 0
AnchorPoint: "Anchor-0" 233 730 basechar 0
LayerCount: 2
Fore
SplineSet
127 0 m 1,0,-1
 14 0 l 1,1,-1
 155 701 l 1,2,-1
 292 701 l 1,3,-1
 259 542 l 1,4,-1
 234 449 l 1,5,-1
 236 449 l 1,6,7
 269 476 269 476 306 492 c 128,-1,8
 343 508 343 508 380 508 c 0,9,10
 446 508 446 508 483 461 c 128,-1,11
 520 414 520 414 520 326 c 0,12,13
 520 255 520 255 498 193.5 c 128,-1,14
 476 132 476 132 439 86 c 128,-1,15
 402 40 402 40 354.5 14 c 128,-1,16
 307 -12 307 -12 256 -12 c 0,17,18
 222 -12 222 -12 193.5 5.5 c 128,-1,19
 165 23 165 23 151 53 c 1,20,-1
 149 53 l 1,21,-1
 127 0 l 1,0,-1
321 396 m 0,22,23
 298 396 298 396 269.5 382.5 c 128,-1,24
 241 369 241 369 219 334 c 1,25,-1
 181 147 l 1,26,27
 192 122 192 122 209.5 111 c 128,-1,28
 227 100 227 100 246 100 c 0,29,30
 272 100 272 100 296 116 c 128,-1,31
 320 132 320 132 338.5 160 c 128,-1,32
 357 188 357 188 368 226 c 128,-1,33
 379 264 379 264 379 309 c 256,34,35
 379 354 379 354 363 375 c 128,-1,36
 347 396 347 396 321 396 c 0,22,23
EndSplineSet
Substitution2: "'sups' Superscript in Latin lookup 12 subtable" b.sups
Substitution2: "'aalt' Access All Alternates in Latin lookup 0 subtable" b.sups
EndChar

StartChar: c
Encoding: 99 99 30
Width: 443
GlyphClass: 2
Flags: W
AnchorPoint: "Anchor-3" 223 -22 basechar 0
AnchorPoint: "Anchor-2" 206 0 basechar 0
AnchorPoint: "Anchor-0" 320 518 basechar 0
LayerCount: 2
Fore
SplineSet
223 -12 m 0,0,1
 182 -12 182 -12 146.5 1.5 c 128,-1,2
 111 15 111 15 85 41.5 c 128,-1,3
 59 68 59 68 44 106 c 128,-1,4
 29 144 29 144 29 192 c 0,5,6
 29 256 29 256 51.5 313.5 c 128,-1,7
 74 371 74 371 113.5 414.5 c 128,-1,8
 153 458 153 458 206.5 483 c 128,-1,9
 260 508 260 508 321 508 c 0,10,11
 368 508 368 508 401.5 489 c 128,-1,12
 435 470 435 470 454 447 c 1,13,-1
 378 366 l 1,14,15
 363 382 363 382 348 390 c 128,-1,16
 333 398 333 398 312 398 c 0,17,18
 282 398 282 398 256 382 c 128,-1,19
 230 366 230 366 210.5 338 c 128,-1,20
 191 310 191 310 180 273.5 c 128,-1,21
 169 237 169 237 169 195 c 0,22,23
 169 150 169 150 190 124 c 128,-1,24
 211 98 211 98 253 98 c 0,25,26
 279 98 279 98 297.5 108 c 128,-1,27
 316 118 316 118 332 130 c 1,28,-1
 389 46 l 1,29,30
 361 25 361 25 321.5 6.5 c 128,-1,31
 282 -12 282 -12 223 -12 c 0,0,1
EndSplineSet
Substitution2: "'sups' Superscript in Latin lookup 12 subtable" c.sups
Substitution2: "'aalt' Access All Alternates in Latin lookup 0 subtable" c.sups
EndChar

StartChar: d
Encoding: 100 100 31
Width: 546
GlyphClass: 2
Flags: W
AnchorPoint: "Anchor-3" 238 -22 basechar 0
AnchorPoint: "Anchor-0" 514 730 basechar 0
LayerCount: 2
Fore
SplineSet
400 448 m 1,0,-1
 412 542 l 1,1,-1
 442 701 l 1,2,-1
 579 701 l 1,3,-1
 438 0 l 1,4,-1
 327 0 l 1,5,-1
 329 65 l 1,6,-1
 326 65 l 1,7,8
 292 30 292 30 251 9 c 128,-1,9
 210 -12 210 -12 171 -12 c 0,10,11
 105 -12 105 -12 68 35 c 128,-1,12
 31 82 31 82 31 170 c 0,13,14
 31 241 31 241 53 302.5 c 128,-1,15
 75 364 75 364 112 410 c 128,-1,16
 149 456 149 456 197 482 c 128,-1,17
 245 508 245 508 296 508 c 0,18,19
 330 508 330 508 356.5 491.5 c 128,-1,20
 383 475 383 475 397 448 c 1,21,-1
 400 448 l 1,0,-1
231 100 m 0,22,23
 256 100 256 100 283.5 115.5 c 128,-1,24
 311 131 311 131 337 173 c 1,25,-1
 372 349 l 1,26,27
 360 374 360 374 341.5 385 c 128,-1,28
 323 396 323 396 306 396 c 0,29,30
 280 396 280 396 256 380 c 128,-1,31
 232 364 232 364 213.5 336 c 128,-1,32
 195 308 195 308 184 270 c 128,-1,33
 173 232 173 232 173 187 c 256,34,35
 173 142 173 142 188.5 121 c 128,-1,36
 204 100 204 100 231 100 c 0,22,23
EndSplineSet
Substitution2: "'sups' Superscript in Latin lookup 12 subtable" d.sups
Substitution2: "'aalt' Access All Alternates in Latin lookup 0 subtable" d.sups
EndChar

StartChar: e
Encoding: 101 101 32
Width: 496
GlyphClass: 2
Flags: W
AnchorPoint: "Anchor-5" 289 0 basechar 0
AnchorPoint: "Anchor-3" 222 -22 basechar 0
AnchorPoint: "Anchor-0" 320 518 basechar 0
LayerCount: 2
Fore
SplineSet
29 200 m 0,0,1
 29 269 29 269 53.5 325.5 c 128,-1,2
 78 382 78 382 117.5 422.5 c 128,-1,3
 157 463 157 463 206 485.5 c 128,-1,4
 255 508 255 508 305 508 c 0,5,6
 349 508 349 508 380 493.5 c 128,-1,7
 411 479 411 479 430.5 453.5 c 128,-1,8
 450 428 450 428 458.5 394.5 c 128,-1,9
 467 361 467 361 467 322 c 0,10,11
 467 304 467 304 464 286.5 c 128,-1,12
 461 269 461 269 457 253.5 c 128,-1,13
 453 238 453 238 448.5 226.5 c 128,-1,14
 444 215 444 215 441 209 c 1,15,-1
 159 209 l 1,16,17
 156 147 156 147 188.5 119 c 128,-1,18
 221 91 221 91 270 91 c 0,19,20
 293 91 293 91 318 102 c 128,-1,21
 343 113 343 113 362 126 c 1,22,-1
 410 40 l 1,23,24
 380 19 380 19 335 3.5 c 128,-1,25
 290 -12 290 -12 232 -12 c 0,26,27
 187 -12 187 -12 149.5 2.5 c 128,-1,28
 112 17 112 17 85.5 44.5 c 128,-1,29
 59 72 59 72 44 111 c 128,-1,30
 29 150 29 150 29 200 c 0,0,1
170 293 m 1,31,-1
 350 293 l 1,32,33
 355 310 355 310 355 330 c 0,34,35
 355 360 355 360 340.5 381.5 c 128,-1,36
 326 403 326 403 288 403 c 0,37,38
 253 403 253 403 220 375.5 c 128,-1,39
 187 348 187 348 170 293 c 1,31,-1
EndSplineSet
Substitution2: "'sups' Superscript in Latin lookup 12 subtable" e.sups
Substitution2: "'aalt' Access All Alternates in Latin lookup 0 subtable" e.sups
EndChar

StartChar: f
Encoding: 102 102 33
Width: 327
GlyphClass: 2
Flags: W
AnchorPoint: "Anchor-3" 113 -22 basechar 0
AnchorPoint: "Anchor-0" 321 740 basechar 0
LayerCount: 2
Fore
SplineSet
51 389 m 1,0,-1
 72 490 l 1,1,-1
 137 496 l 1,2,-1
 143 529 l 2,3,4
 150 567 150 567 165 600.5 c 128,-1,5
 180 634 180 634 203.5 659 c 128,-1,6
 227 684 227 684 259.5 698.5 c 128,-1,7
 292 713 292 713 335 713 c 0,8,9
 364 713 364 713 391 706 c 128,-1,10
 418 699 418 699 441 686 c 1,11,-1
 397 589 l 1,12,13
 389 594 389 594 376 599 c 128,-1,14
 363 604 363 604 349 604 c 0,15,16
 322 604 322 604 305 589.5 c 128,-1,17
 288 575 288 575 280 534 c 2,18,-1
 273 496 l 1,19,-1
 359 496 l 1,20,-1
 338 389 l 1,21,-1
 250 389 l 1,22,-1
 173 0 l 1,23,-1
 36 0 l 1,24,-1
 115 389 l 1,25,-1
 51 389 l 1,0,-1
EndSplineSet
Substitution2: "'sups' Superscript in Latin lookup 12 subtable" f.sups
Substitution2: "'aalt' Access All Alternates in Latin lookup 0 subtable" f.sups
EndChar

StartChar: g
Encoding: 103 103 34
Width: 546
GlyphClass: 2
Flags: W
AnchorPoint: "Anchor-3" 168 -233 basechar 0
AnchorPoint: "Anchor-0" 322 518 basechar 0
LayerCount: 2
Fore
SplineSet
171 -213 m 0,0,1
 126 -213 126 -213 78 -195.5 c 128,-1,2
 30 -178 30 -178 -12 -143 c 1,3,-1
 47 -52 l 1,4,5
 76 -74 76 -74 108 -89 c 128,-1,6
 140 -104 140 -104 175 -104 c 0,7,8
 273 -104 273 -104 302 0 c 2,9,-1
 328 88 l 1,10,11
 295 53 295 53 256.5 34.5 c 128,-1,12
 218 16 218 16 176 16 c 0,13,14
 113 16 113 16 72 58.5 c 128,-1,15
 31 101 31 101 31 189 c 0,16,17
 31 256 31 256 52.5 314 c 128,-1,18
 74 372 74 372 109.5 415 c 128,-1,19
 145 458 145 458 192 483 c 128,-1,20
 239 508 239 508 290 508 c 0,21,22
 324 508 324 508 353 490.5 c 128,-1,23
 382 473 382 473 396 443 c 1,24,-1
 399 443 l 1,25,-1
 420 496 l 1,26,-1
 531 496 l 1,27,-1
 434 8 l 2,28,29
 411 -103 411 -103 343.5 -158 c 128,-1,30
 276 -213 276 -213 171 -213 c 0,0,1
229 127 m 0,31,32
 254 127 254 127 282 141 c 128,-1,33
 310 155 310 155 334 192 c 1,34,-1
 365 349 l 1,35,36
 352 374 352 374 334.5 385 c 128,-1,37
 317 396 317 396 300 396 c 0,38,39
 274 396 274 396 251 381.5 c 128,-1,40
 228 367 228 367 211 341.5 c 128,-1,41
 194 316 194 316 183.5 281.5 c 128,-1,42
 173 247 173 247 173 207 c 0,43,44
 173 166 173 166 188 146.5 c 128,-1,45
 203 127 203 127 229 127 c 0,31,32
EndSplineSet
Substitution2: "'ss03' Style Set 3 in Latin lookup 22 subtable" g.a
Substitution2: "'sups' Superscript in Latin lookup 12 subtable" g.sups
AlternateSubs2: "'aalt' Access All Alternates in Latin lookup 1 subtable" g.sups g.a
EndChar

StartChar: h
Encoding: 104 104 35
Width: 546
GlyphClass: 2
Flags: W
AnchorPoint: "Anchor-3" 235 -22 basechar 0
AnchorPoint: "Anchor-0" 229 730 basechar 0
LayerCount: 2
Fore
SplineSet
14 0 m 1,0,-1
 155 701 l 1,1,-1
 292 701 l 1,2,-1
 254 518 l 1,3,-1
 232 438 l 1,4,-1
 236 438 l 1,5,6
 269 467 269 467 308 487.5 c 128,-1,7
 347 508 347 508 392 508 c 0,8,9
 454 508 454 508 482 475.5 c 128,-1,10
 510 443 510 443 510 381 c 0,11,12
 510 364 510 364 508.5 346.5 c 128,-1,13
 507 329 507 329 502 310 c 2,14,-1
 440 0 l 1,15,-1
 303 0 l 1,16,-1
 362 293 l 2,17,18
 365 308 365 308 367.5 319 c 128,-1,19
 370 330 370 330 370 340 c 0,20,21
 370 391 370 391 319 391 c 0,22,23
 296 391 296 391 271.5 375.5 c 128,-1,24
 247 360 247 360 215 327 c 1,25,-1
 151 0 l 1,26,-1
 14 0 l 1,0,-1
EndSplineSet
Substitution2: "'sups' Superscript in Latin lookup 12 subtable" h.sups
Substitution2: "'aalt' Access All Alternates in Latin lookup 0 subtable" h.sups
EndChar

StartChar: i
Encoding: 105 105 36
Width: 265
GlyphClass: 2
Flags: W
AnchorPoint: "Anchor-5" 80 0 basechar 0
AnchorPoint: "Anchor-3" 89 -22 basechar 0
AnchorPoint: "Anchor-0" 233 722 basechar 0
LayerCount: 2
Fore
SplineSet
14 0 m 1,0,-1
 114 496 l 1,1,-1
 250 496 l 1,2,-1
 151 0 l 1,3,-1
 14 0 l 1,0,-1
208 570 m 0,4,5
 180 570 180 570 157 586.5 c 128,-1,6
 134 603 134 603 134 636 c 0,7,8
 134 652 134 652 140.5 667 c 128,-1,9
 147 682 147 682 158.5 693 c 128,-1,10
 170 704 170 704 185.5 710.5 c 128,-1,11
 201 717 201 717 219 717 c 0,12,13
 248 717 248 717 270.5 700 c 128,-1,14
 293 683 293 683 293 651 c 0,15,16
 293 616 293 616 268.5 593 c 128,-1,17
 244 570 244 570 208 570 c 0,4,5
EndSplineSet
Substitution2: "'sups' Superscript in Latin lookup 12 subtable" i.sups
Substitution2: "'aalt' Access All Alternates in Latin lookup 0 subtable" i.sups
EndChar

StartChar: j
Encoding: 106 106 37
Width: 267
GlyphClass: 2
Flags: W
AnchorPoint: "Anchor-3" -14 -237 basechar 0
AnchorPoint: "Anchor-0" 233 722 basechar 0
LayerCount: 2
Fore
SplineSet
-35 -196 m 0,0,1
 -61 -196 -61 -196 -84 -191 c 128,-1,2
 -107 -186 -107 -186 -131 -174 c 1,3,-1
 -90 -75 l 1,4,5
 -79 -81 -79 -81 -69 -84.5 c 128,-1,6
 -59 -88 -59 -88 -46 -88 c 0,7,8
 -21 -88 -21 -88 -8.5 -69.5 c 128,-1,9
 4 -51 4 -51 14 -10 c 2,10,-1
 115 496 l 1,11,-1
 252 496 l 1,12,-1
 149 -16 l 2,13,14
 141 -54 141 -54 127 -86.5 c 128,-1,15
 113 -119 113 -119 91 -143.5 c 128,-1,16
 69 -168 69 -168 38 -182 c 128,-1,17
 7 -196 7 -196 -35 -196 c 0,0,1
210 570 m 0,18,19
 181 570 181 570 158.5 586.5 c 128,-1,20
 136 603 136 603 136 636 c 256,21,22
 136 669 136 669 160.5 693 c 128,-1,23
 185 717 185 717 221 717 c 0,24,25
 249 717 249 717 272 700 c 128,-1,26
 295 683 295 683 295 651 c 0,27,28
 295 616 295 616 270 593 c 128,-1,29
 245 570 245 570 210 570 c 0,18,19
EndSplineSet
Substitution2: "'sups' Superscript in Latin lookup 12 subtable" j.sups
Substitution2: "'aalt' Access All Alternates in Latin lookup 0 subtable" j.sups
EndChar

StartChar: k
Encoding: 107 107 38
Width: 525
GlyphClass: 2
Flags: W
AnchorPoint: "Anchor-3" 239 -22 basechar 0
AnchorPoint: "Anchor-0" 233 730 basechar 0
LayerCount: 2
Fore
SplineSet
14 0 m 1,0,-1
 155 701 l 1,1,-1
 292 701 l 1,2,-1
 210 295 l 1,3,-1
 214 295 l 1,4,-1
 401 496 l 1,5,-1
 553 496 l 1,6,-1
 350 279 l 1,7,-1
 468 0 l 1,8,-1
 331 0 l 1,9,-1
 256 200 l 1,10,-1
 175 119 l 1,11,-1
 151 0 l 1,12,-1
 14 0 l 1,0,-1
EndSplineSet
Substitution2: "'sups' Superscript in Latin lookup 12 subtable" k.sups
Substitution2: "'aalt' Access All Alternates in Latin lookup 0 subtable" k.sups
EndChar

StartChar: l
Encoding: 108 108 39
Width: 275
GlyphClass: 2
Flags: W
AnchorPoint: "Anchor-3" 85 -22 basechar 0
AnchorPoint: "Anchor-0" 234 730 basechar 0
LayerCount: 2
Fore
SplineSet
137 -12 m 0,0,1
 83 -12 83 -12 60 14 c 128,-1,2
 37 40 37 40 37 85 c 0,3,4
 37 111 37 111 44 146 c 2,5,-1
 155 701 l 1,6,-1
 292 701 l 1,7,-1
 179 140 l 2,8,9
 177 132 177 132 177 128.5 c 128,-1,10
 177 125 177 125 177 121 c 0,11,12
 177 108 177 108 182.5 103 c 128,-1,13
 188 98 188 98 196 98 c 0,14,15
 201 98 201 98 204 98 c 128,-1,16
 207 98 207 98 214 100 c 1,17,-1
 210 -1 l 1,18,19
 197 -6 197 -6 179 -9 c 128,-1,20
 161 -12 161 -12 137 -12 c 0,0,1
EndSplineSet
Substitution2: "'ss01' Style Set 1 in Latin lookup 20 subtable" l.a
Substitution2: "'sups' Superscript in Latin lookup 12 subtable" l.sups
AlternateSubs2: "'aalt' Access All Alternates in Latin lookup 1 subtable" l.sups l.a
EndChar

StartChar: m
Encoding: 109 109 40
Width: 827
GlyphClass: 2
Flags: W
AnchorPoint: "Anchor-3" 373 -22 basechar 0
AnchorPoint: "Anchor-0" 495 518 basechar 0
LayerCount: 2
Fore
SplineSet
14 0 m 1,0,-1
 112 496 l 1,1,-1
 223 496 l 1,2,-1
 221 430 l 1,3,-1
 225 430 l 1,4,5
 261 462 261 462 302 485 c 128,-1,6
 343 508 343 508 385 508 c 0,7,8
 441 508 441 508 465.5 484 c 128,-1,9
 490 460 490 460 500 421 c 1,10,11
 542 459 542 459 584 483.5 c 128,-1,12
 626 508 626 508 668 508 c 0,13,14
 730 508 730 508 757.5 475.5 c 128,-1,15
 785 443 785 443 785 381 c 0,16,17
 785 364 785 364 783 346.5 c 128,-1,18
 781 329 781 329 777 310 c 2,19,-1
 715 0 l 1,20,-1
 578 0 l 1,21,-1
 637 293 l 2,22,23
 640 308 640 308 642.5 319 c 128,-1,24
 645 330 645 330 645 340 c 0,25,26
 645 391 645 391 595 391 c 0,27,28
 578 391 578 391 554 375.5 c 128,-1,29
 530 360 530 360 498 327 c 1,30,-1
 432 0 l 1,31,-1
 295 0 l 1,32,-1
 354 293 l 2,33,34
 357 308 357 308 359.5 319 c 128,-1,35
 362 330 362 330 362 340 c 0,36,37
 362 366 362 366 349.5 378.5 c 128,-1,38
 337 391 337 391 314 391 c 0,39,40
 296 391 296 391 271.5 375.5 c 128,-1,41
 247 360 247 360 215 327 c 1,42,-1
 151 0 l 1,43,-1
 14 0 l 1,0,-1
EndSplineSet
Substitution2: "'sups' Superscript in Latin lookup 12 subtable" m.sups
Substitution2: "'aalt' Access All Alternates in Latin lookup 0 subtable" m.sups
EndChar

StartChar: n
Encoding: 110 110 41
Width: 552
GlyphClass: 2
Flags: W
AnchorPoint: "Anchor-3" 238 -22 basechar 0
AnchorPoint: "Anchor-0" 358 518 basechar 0
LayerCount: 2
Fore
SplineSet
14 0 m 1,0,-1
 112 496 l 1,1,-1
 223 496 l 1,2,-1
 221 430 l 1,3,-1
 225 430 l 1,4,5
 262 462 262 462 303 485 c 128,-1,6
 344 508 344 508 392 508 c 0,7,8
 454 508 454 508 482 475.5 c 128,-1,9
 510 443 510 443 510 381 c 0,10,11
 510 364 510 364 508 346.5 c 128,-1,12
 506 329 506 329 502 310 c 2,13,-1
 440 0 l 1,14,-1
 303 0 l 1,15,-1
 362 293 l 2,16,17
 365 308 365 308 367.5 319 c 128,-1,18
 370 330 370 330 370 340 c 0,19,20
 370 391 370 391 319 391 c 0,21,22
 296 391 296 391 271.5 375.5 c 128,-1,23
 247 360 247 360 215 327 c 1,24,-1
 151 0 l 1,25,-1
 14 0 l 1,0,-1
EndSplineSet
Substitution2: "'sups' Superscript in Latin lookup 12 subtable" n.sups
Substitution2: "'aalt' Access All Alternates in Latin lookup 0 subtable" n.sups
EndChar

StartChar: o
Encoding: 111 111 42
Width: 533
GlyphClass: 2
Flags: W
AnchorPoint: "Anchor-5" 216 0 basechar 0
AnchorPoint: "Anchor-4" 415 496 basechar 0
AnchorPoint: "Anchor-3" 200 -22 basechar 0
AnchorPoint: "Anchor-0" 331 518 basechar 0
LayerCount: 2
Fore
SplineSet
222 -12 m 0,0,1
 178 -12 178 -12 143 2.5 c 128,-1,2
 108 17 108 17 82.5 44 c 128,-1,3
 57 71 57 71 43.5 108.5 c 128,-1,4
 30 146 30 146 30 192 c 0,5,6
 30 264 30 264 54 322.5 c 128,-1,7
 78 381 78 381 117.5 422 c 128,-1,8
 157 463 157 463 207 485.5 c 128,-1,9
 257 508 257 508 308 508 c 0,10,11
 351 508 351 508 386.5 493.5 c 128,-1,12
 422 479 422 479 447 452 c 128,-1,13
 472 425 472 425 486 387.5 c 128,-1,14
 500 350 500 350 500 304 c 0,15,16
 500 232 500 232 476 173.5 c 128,-1,17
 452 115 452 115 412.5 74 c 128,-1,18
 373 33 373 33 323 10.5 c 128,-1,19
 273 -12 273 -12 222 -12 c 0,0,1
237 98 m 0,20,21
 262 98 262 98 284.5 113.5 c 128,-1,22
 307 129 307 129 324.5 156 c 128,-1,23
 342 183 342 183 352 220 c 128,-1,24
 362 257 362 257 362 301 c 0,25,26
 362 347 362 347 344.5 372.5 c 128,-1,27
 327 398 327 398 292 398 c 0,28,29
 267 398 267 398 244.5 382.5 c 128,-1,30
 222 367 222 367 205 340 c 128,-1,31
 188 313 188 313 178 275.5 c 128,-1,32
 168 238 168 238 168 195 c 0,33,34
 168 150 168 150 185 124 c 128,-1,35
 202 98 202 98 237 98 c 0,20,21
EndSplineSet
Substitution2: "'sups' Superscript in Latin lookup 12 subtable" o.sups
Substitution2: "'aalt' Access All Alternates in Latin lookup 0 subtable" o.sups
EndChar

StartChar: p
Encoding: 112 112 43
Width: 553
GlyphClass: 2
Flags: W
AnchorPoint: "Anchor-3" 40 -218 basechar 0
AnchorPoint: "Anchor-0" 360 518 basechar 0
LayerCount: 2
Fore
SplineSet
153 47 m 1,0,-1
 139 -50 l 1,1,-1
 114 -184 l 1,2,-1
 -23 -184 l 1,3,-1
 114 496 l 1,4,-1
 225 496 l 1,5,-1
 226 439 l 1,6,-1
 229 439 l 1,7,8
 263 470 263 470 302.5 489 c 128,-1,9
 342 508 342 508 380 508 c 0,10,11
 446 508 446 508 483 461 c 128,-1,12
 520 414 520 414 520 326 c 0,13,14
 520 255 520 255 498 193.5 c 128,-1,15
 476 132 476 132 439 86 c 128,-1,16
 402 40 402 40 354.5 14 c 128,-1,17
 307 -12 307 -12 256 -12 c 0,18,19
 224 -12 224 -12 198 3.5 c 128,-1,20
 172 19 172 19 155 47 c 1,21,-1
 153 47 l 1,0,-1
321 396 m 0,22,23
 298 396 298 396 269.5 382.5 c 128,-1,24
 241 369 241 369 219 334 c 1,25,-1
 181 146 l 1,26,27
 192 122 192 122 209.5 111 c 128,-1,28
 227 100 227 100 246 100 c 0,29,30
 272 100 272 100 296 116 c 128,-1,31
 320 132 320 132 338.5 160 c 128,-1,32
 357 188 357 188 368 226 c 128,-1,33
 379 264 379 264 379 309 c 256,34,35
 379 354 379 354 363 375 c 128,-1,36
 347 396 347 396 321 396 c 0,22,23
EndSplineSet
Substitution2: "'sups' Superscript in Latin lookup 12 subtable" p.sups
Substitution2: "'aalt' Access All Alternates in Latin lookup 0 subtable" p.sups
EndChar

StartChar: q
Encoding: 113 113 44
Width: 552
GlyphClass: 2
Flags: W
AnchorPoint: "Anchor-3" 340 -218 basechar 0
AnchorPoint: "Anchor-0" 344 518 basechar 0
LayerCount: 2
Fore
SplineSet
292 -50 m 1,0,-1
 329 65 l 1,1,-1
 327 65 l 1,2,3
 293 30 293 30 251.5 9 c 128,-1,4
 210 -12 210 -12 171 -12 c 0,5,6
 105 -12 105 -12 68 35 c 128,-1,7
 31 82 31 82 31 170 c 0,8,9
 31 241 31 241 53 302.5 c 128,-1,10
 75 364 75 364 112 410 c 128,-1,11
 149 456 149 456 197 482 c 128,-1,12
 245 508 245 508 296 508 c 0,13,14
 330 508 330 508 360 490.5 c 128,-1,15
 390 473 390 473 404 443 c 1,16,-1
 406 443 l 1,17,-1
 428 496 l 1,18,-1
 537 496 l 1,19,-1
 401 -184 l 1,20,-1
 264 -184 l 1,21,-1
 292 -50 l 1,0,-1
231 100 m 0,22,23
 254 100 254 100 282.5 115.5 c 128,-1,24
 311 131 311 131 337 173 c 1,25,-1
 372 349 l 1,26,27
 360 374 360 374 341.5 385 c 128,-1,28
 323 396 323 396 306 396 c 0,29,30
 280 396 280 396 256 380 c 128,-1,31
 232 364 232 364 213.5 336 c 128,-1,32
 195 308 195 308 184 270 c 128,-1,33
 173 232 173 232 173 187 c 256,34,35
 173 142 173 142 188.5 121 c 128,-1,36
 204 100 204 100 231 100 c 0,22,23
EndSplineSet
Substitution2: "'sups' Superscript in Latin lookup 12 subtable" q.sups
Substitution2: "'aalt' Access All Alternates in Latin lookup 0 subtable" q.sups
EndChar

StartChar: r
Encoding: 114 114 45
Width: 384
GlyphClass: 2
Flags: W
AnchorPoint: "Anchor-3" 87 -22 basechar 0
AnchorPoint: "Anchor-0" 280 518 basechar 0
LayerCount: 2
Fore
SplineSet
14 0 m 1,0,-1
 112 496 l 1,1,-1
 223 496 l 1,2,-1
 217 400 l 1,3,-1
 221 400 l 1,4,5
 250 447 250 447 290 477.5 c 128,-1,6
 330 508 330 508 373 508 c 0,7,8
 392 508 392 508 404.5 505.5 c 128,-1,9
 417 503 417 503 425 498 c 1,10,-1
 380 380 l 1,11,12
 370 385 370 385 356.5 386.5 c 128,-1,13
 343 388 343 388 331 388 c 0,14,15
 298 388 298 388 267 364 c 128,-1,16
 236 340 236 340 207 287 c 1,17,-1
 151 0 l 1,18,-1
 14 0 l 1,0,-1
EndSplineSet
Substitution2: "'sups' Superscript in Latin lookup 12 subtable" r.sups
Substitution2: "'aalt' Access All Alternates in Latin lookup 0 subtable" r.sups
EndChar

StartChar: s
Encoding: 115 115 46
Width: 424
GlyphClass: 2
Flags: W
AnchorPoint: "Anchor-3" 181 -22 basechar 0
AnchorPoint: "Anchor-2" 169 0 basechar 0
AnchorPoint: "Anchor-0" 278 518 basechar 0
LayerCount: 2
Fore
SplineSet
170 -12 m 0,0,1
 147 -12 147 -12 122 -5.5 c 128,-1,2
 97 1 97 1 73.5 13 c 128,-1,3
 50 25 50 25 28.5 43 c 128,-1,4
 7 61 7 61 -8 84 c 1,5,-1
 71 150 l 1,6,7
 123 88 123 88 178 88 c 0,8,9
 207 88 207 88 227.5 101.5 c 128,-1,10
 248 115 248 115 248 135 c 0,11,12
 248 157 248 157 226 171 c 128,-1,13
 204 185 204 185 162 209 c 0,14,15
 120 232 120 232 91 265.5 c 128,-1,16
 62 299 62 299 62 346 c 0,17,18
 62 381 62 381 77 411 c 128,-1,19
 92 441 92 441 118 462.5 c 128,-1,20
 144 484 144 484 179 496 c 128,-1,21
 214 508 214 508 254 508 c 0,22,23
 305 508 305 508 345.5 486 c 128,-1,24
 386 464 386 464 417 432 c 1,25,-1
 342 361 l 1,26,27
 324 380 324 380 302 393 c 128,-1,28
 280 406 280 406 254 406 c 0,29,30
 225 406 225 406 207.5 392.5 c 128,-1,31
 190 379 190 379 190 359 c 0,32,33
 190 347 190 347 197 338 c 128,-1,34
 204 329 204 329 216 321.5 c 128,-1,35
 228 314 228 314 242.5 306.5 c 128,-1,36
 257 299 257 299 272 290 c 0,37,38
 317 266 317 266 346.5 234 c 128,-1,39
 376 202 376 202 376 151 c 0,40,41
 376 115 376 115 360.5 85 c 128,-1,42
 345 55 345 55 318 33.5 c 128,-1,43
 291 12 291 12 253 0 c 128,-1,44
 215 -12 215 -12 170 -12 c 0,0,1
EndSplineSet
Substitution2: "'sups' Superscript in Latin lookup 12 subtable" s.sups
Substitution2: "'aalt' Access All Alternates in Latin lookup 0 subtable" s.sups
EndChar

StartChar: t
Encoding: 116 116 47
Width: 367
GlyphClass: 2
Flags: W
AnchorPoint: "Anchor-3" 177 -22 basechar 0
AnchorPoint: "Anchor-2" 181 0 basechar 0
AnchorPoint: "Anchor-0" 247 659 basechar 0
LayerCount: 2
Fore
SplineSet
203 -12 m 0,0,1
 128 -12 128 -12 95 25 c 128,-1,2
 62 62 62 62 62 119 c 0,3,4
 62 135 62 135 64.5 150.5 c 128,-1,5
 67 166 67 166 70 182 c 2,6,-1
 113 389 l 1,7,-1
 47 389 l 1,8,-1
 67 490 l 1,9,-1
 140 496 l 1,10,-1
 182 626 l 1,11,-1
 297 626 l 1,12,-1
 272 496 l 1,13,-1
 385 496 l 1,14,-1
 364 389 l 1,15,-1
 248 389 l 1,16,-1
 205 176 l 2,17,18
 203 167 203 167 203 159 c 128,-1,19
 203 151 203 151 203 143 c 0,20,21
 203 95 203 95 254 95 c 0,22,23
 265 95 265 95 275 98 c 128,-1,24
 285 101 285 101 295 106 c 1,25,-1
 319 10 l 1,26,27
 299 2 299 2 270 -5 c 128,-1,28
 241 -12 241 -12 203 -12 c 0,0,1
EndSplineSet
Substitution2: "'sups' Superscript in Latin lookup 12 subtable" t.sups
Substitution2: "'aalt' Access All Alternates in Latin lookup 0 subtable" t.sups
EndChar

StartChar: u
Encoding: 117 117 48
Width: 545
GlyphClass: 2
Flags: W
AnchorPoint: "Anchor-5" 345 0 basechar 0
AnchorPoint: "Anchor-4" 468 506 basechar 0
AnchorPoint: "Anchor-3" 248 -29 basechar 0
AnchorPoint: "Anchor-0" 328 518 basechar 0
LayerCount: 2
Fore
SplineSet
529 496 m 1,0,-1
 431 0 l 1,1,-1
 320 0 l 1,2,-1
 322 67 l 1,3,-1
 318 67 l 1,4,5
 284 35 284 35 242.5 11.5 c 128,-1,6
 201 -12 201 -12 156 -12 c 0,7,8
 94 -12 94 -12 66.5 20.5 c 128,-1,9
 39 53 39 53 39 116 c 0,10,11
 39 133 39 133 41 150 c 128,-1,12
 43 167 43 167 47 186 c 2,13,-1
 109 496 l 1,14,-1
 245 496 l 1,15,-1
 187 203 l 2,16,17
 183 188 183 188 181 177 c 128,-1,18
 179 166 179 166 179 156 c 0,19,20
 179 105 179 105 229 105 c 0,21,22
 271 105 271 105 328 169 c 1,23,-1
 392 496 l 1,24,-1
 529 496 l 1,0,-1
EndSplineSet
Substitution2: "'sups' Superscript in Latin lookup 12 subtable" u.sups
Substitution2: "'aalt' Access All Alternates in Latin lookup 0 subtable" u.sups
EndChar

StartChar: v
Encoding: 118 118 49
Width: 499
GlyphClass: 2
Flags: W
AnchorPoint: "Anchor-3" 212 -22 basechar 0
AnchorPoint: "Anchor-0" 315 518 basechar 0
LayerCount: 2
Fore
SplineSet
123 0 m 1,0,-1
 60 496 l 1,1,-1
 196 496 l 1,2,-1
 213 253 l 2,3,4
 216 216 216 216 217 178 c 128,-1,5
 218 140 218 140 219 102 c 1,6,-1
 223 102 l 1,7,8
 240 140 240 140 256 177.5 c 128,-1,9
 272 215 272 215 289 253 c 2,10,-1
 400 496 l 1,11,-1
 534 496 l 1,12,-1
 281 0 l 1,13,-1
 123 0 l 1,0,-1
EndSplineSet
Substitution2: "'sups' Superscript in Latin lookup 12 subtable" v.sups
Substitution2: "'aalt' Access All Alternates in Latin lookup 0 subtable" v.sups
EndChar

StartChar: w
Encoding: 119 119 50
Width: 748
GlyphClass: 2
Flags: W
AnchorPoint: "Anchor-3" 337 -22 basechar 0
AnchorPoint: "Anchor-0" 432 518 basechar 0
LayerCount: 2
Fore
SplineSet
96 0 m 1,0,-1
 72 496 l 1,1,-1
 207 496 l 1,2,-1
 208 256 l 2,3,4
 207 220 207 220 205.5 183.5 c 128,-1,5
 204 147 204 147 202 110 c 1,6,-1
 206 110 l 1,7,8
 220 147 220 147 233 184 c 128,-1,9
 246 221 246 221 262 256 c 2,10,-1
 364 496 l 1,11,-1
 483 496 l 1,12,-1
 491 256 l 2,13,14
 492 220 492 220 491.5 183.5 c 128,-1,15
 491 147 491 147 491 110 c 1,16,-1
 495 110 l 1,17,18
 509 147 509 147 521 183.5 c 128,-1,19
 533 220 533 220 547 256 c 2,20,-1
 640 496 l 1,21,-1
 767 496 l 1,22,-1
 555 0 l 1,23,-1
 394 0 l 1,24,-1
 390 208 l 2,25,26
 391 243 391 243 391 278.5 c 128,-1,27
 391 314 391 314 392 353 c 1,28,-1
 388 353 l 1,29,30
 374 314 374 314 362 278.5 c 128,-1,31
 350 243 350 243 336 208 c 2,32,-1
 251 0 l 1,33,-1
 96 0 l 1,0,-1
EndSplineSet
Substitution2: "'sups' Superscript in Latin lookup 12 subtable" w.sups
Substitution2: "'aalt' Access All Alternates in Latin lookup 0 subtable" w.sups
EndChar

StartChar: x
Encoding: 120 120 51
Width: 490
GlyphClass: 2
Flags: W
AnchorPoint: "Anchor-3" 206 -22 basechar 0
AnchorPoint: "Anchor-0" 310 519 basechar 0
LayerCount: 2
Fore
SplineSet
-40 0 m 1,0,-1
 170 265 l 1,1,-1
 84 496 l 1,2,-1
 222 496 l 1,3,-1
 252 411 l 2,4,5
 258 389 258 389 264 368 c 128,-1,6
 270 347 270 347 276 326 c 1,7,-1
 280 326 l 1,8,9
 293 347 293 347 306 368.5 c 128,-1,10
 319 390 319 390 331 411 c 2,11,-1
 382 496 l 1,12,-1
 528 496 l 1,13,-1
 334 234 l 1,14,-1
 426 0 l 1,15,-1
 286 0 l 1,16,-1
 255 87 l 2,17,18
 248 108 248 108 241 130 c 128,-1,19
 234 152 234 152 227 174 c 1,20,-1
 223 174 l 1,21,22
 209 152 209 152 195 130.5 c 128,-1,23
 181 109 181 109 167 87 c 2,24,-1
 107 0 l 1,25,-1
 -40 0 l 1,0,-1
EndSplineSet
Substitution2: "'sups' Superscript in Latin lookup 12 subtable" x.sups
Substitution2: "'aalt' Access All Alternates in Latin lookup 0 subtable" x.sups
EndChar

StartChar: y
Encoding: 121 121 52
Width: 499
GlyphClass: 2
Flags: W
AnchorPoint: "Anchor-3" 132 -242 basechar 0
AnchorPoint: "Anchor-0" 297 518 basechar 0
LayerCount: 2
Fore
SplineSet
36 -194 m 0,0,1
 22 -194 22 -194 1 -188 c 128,-1,2
 -20 -182 -20 -182 -35 -174 c 1,3,-1
 7 -76 l 1,4,5
 24 -86 24 -86 44 -86 c 0,6,7
 71 -86 71 -86 96 -66.5 c 128,-1,8
 121 -47 121 -47 138 -14 c 2,9,-1
 150 11 l 1,10,-1
 64 496 l 1,11,-1
 200 496 l 1,12,-1
 223 272 l 2,13,14
 227 240 227 240 229 199 c 128,-1,15
 231 158 231 158 232 123 c 1,16,-1
 236 123 l 1,17,18
 252 158 252 158 269 198 c 128,-1,19
 286 238 286 238 302 272 c 2,20,-1
 406 496 l 1,21,-1
 539 496 l 1,22,-1
 271 -11 l 2,23,24
 245 -56 245 -56 219.5 -90 c 128,-1,25
 194 -124 194 -124 166 -147 c 128,-1,26
 138 -170 138 -170 106 -182 c 128,-1,27
 74 -194 74 -194 36 -194 c 0,0,1
EndSplineSet
Substitution2: "'sups' Superscript in Latin lookup 12 subtable" y.sups
Substitution2: "'aalt' Access All Alternates in Latin lookup 0 subtable" y.sups
EndChar

StartChar: z
Encoding: 122 122 53
Width: 443
GlyphClass: 2
Flags: W
AnchorPoint: "Anchor-3" 185 -22 basechar 0
AnchorPoint: "Anchor-0" 290 518 basechar 0
LayerCount: 2
Fore
SplineSet
-10 0 m 1,0,-1
 5 77 l 1,1,-1
 268 389 l 1,2,-1
 89 389 l 1,3,-1
 109 496 l 1,4,-1
 460 496 l 1,5,-1
 445 417 l 1,6,-1
 182 107 l 1,7,-1
 390 107 l 1,8,-1
 369 0 l 1,9,-1
 -10 0 l 1,0,-1
EndSplineSet
Substitution2: "'sups' Superscript in Latin lookup 12 subtable" z.sups
Substitution2: "'aalt' Access All Alternates in Latin lookup 0 subtable" z.sups
EndChar

StartChar: Aogonek
Encoding: 260 260 75
Width: 548
GlyphClass: 2
Flags: W
AnchorPoint: "Anchor-1" 374 682 basechar 0
LayerCount: 2
Fore
SplineSet
391 -222 m 0,0,1
 350 -222 350 -222 324.5 -202 c 128,-1,2
 299 -182 299 -182 299 -145 c 0,3,4
 299 -121 299 -121 309 -99 c 128,-1,5
 319 -77 319 -77 333 -58 c 128,-1,6
 347 -39 347 -39 363.5 -24.5 c 128,-1,7
 380 -10 380 -10 394 0 c 1,8,-1
 368 0 l 1,9,-1
 360 164 l 1,10,-1
 166 164 l 1,11,-1
 89 0 l 1,12,-1
 -62 0 l 1,13,-1
 282 652 l 1,14,-1
 446 652 l 1,15,-1
 511 0 l 1,16,17
 452 -23 452 -23 429 -50.5 c 128,-1,18
 406 -78 406 -78 406 -101 c 0,19,20
 406 -117 406 -117 416.5 -125 c 128,-1,21
 427 -133 427 -133 441 -133 c 0,22,23
 448 -133 448 -133 454 -131 c 128,-1,24
 460 -129 460 -129 468 -124 c 1,25,-1
 495 -191 l 1,26,27
 474 -205 474 -205 445 -213.5 c 128,-1,28
 416 -222 416 -222 391 -222 c 0,0,1
255 353 m 2,29,-1
 215 267 l 1,30,-1
 355 267 l 1,31,-1
 351 353 l 2,32,33
 349 401 349 401 347 448 c 128,-1,34
 345 495 345 495 343 547 c 1,35,-1
 339 547 l 1,36,37
 318 496 318 496 298 449 c 128,-1,38
 278 402 278 402 255 353 c 2,29,-1
EndSplineSet
Ligature2: "'ccmp' Glyph Composition/Decomposition in Latin lookup 6 subtable" A uni0328
EndChar

StartChar: AE
Encoding: 198 198 76
Width: 838
GlyphClass: 2
Flags: W
AnchorPoint: "Anchor-1" 582 694 basechar 0
LayerCount: 2
Fore
SplineSet
340 366 m 2,0,-1
 277 262 l 1,1,-1
 401 262 l 1,2,-1
 459 553 l 1,3,-1
 456 553 l 1,4,5
 426 504 426 504 397.5 459 c 128,-1,6
 369 414 369 414 340 366 c 2,0,-1
-35 0 m 1,7,-1
 387 652 l 1,8,-1
 857 652 l 1,9,-1
 834 537 l 1,10,-1
 592 537 l 1,11,-1
 565 395 l 1,12,-1
 769 395 l 1,13,-1
 746 280 l 1,14,-1
 543 280 l 1,15,-1
 508 115 l 1,16,-1
 759 115 l 1,17,-1
 736 0 l 1,18,-1
 349 0 l 1,19,-1
 380 155 l 1,20,-1
 213 155 l 1,21,-1
 119 0 l 1,22,-1
 -35 0 l 1,7,-1
EndSplineSet
EndChar

StartChar: Eogonek
Encoding: 280 280 102
Width: 527
GlyphClass: 2
Flags: W
AnchorPoint: "Anchor-1" 377 682 basechar 0
LayerCount: 2
Fore
SplineSet
28 0 m 1,0,-1
 159 652 l 1,1,-1
 545 652 l 1,2,-1
 523 537 l 1,3,-1
 272 537 l 1,4,-1
 244 395 l 1,5,-1
 457 395 l 1,6,-1
 435 280 l 1,7,-1
 222 280 l 1,8,-1
 188 115 l 1,9,-1
 447 115 l 1,10,-1
 425 0 l 1,11,12
 402 -3 402 -3 383.5 -15 c 128,-1,13
 365 -27 365 -27 351.5 -42 c 128,-1,14
 338 -57 338 -57 331 -73 c 128,-1,15
 324 -89 324 -89 324 -101 c 0,16,17
 324 -117 324 -117 334.5 -125 c 128,-1,18
 345 -133 345 -133 359 -133 c 0,19,20
 365 -133 365 -133 371.5 -131 c 128,-1,21
 378 -129 378 -129 386 -124 c 1,22,-1
 412 -191 l 1,23,24
 391 -205 391 -205 362 -213.5 c 128,-1,25
 333 -222 333 -222 309 -222 c 0,26,27
 267 -222 267 -222 242 -202 c 128,-1,28
 217 -182 217 -182 217 -145 c 0,29,30
 217 -120 217 -120 227.5 -97 c 128,-1,31
 238 -74 238 -74 253 -55 c 128,-1,32
 268 -36 268 -36 284 -22 c 128,-1,33
 300 -8 300 -8 312 0 c 1,34,-1
 28 0 l 1,0,-1
EndSplineSet
Ligature2: "'ccmp' Glyph Composition/Decomposition in Latin lookup 6 subtable" E uni0328
EndChar

StartChar: Hbar
Encoding: 294 294 113
Width: 658
Flags: W
LayerCount: 2
Fore
SplineSet
70 489 m 1,0,-1
 83 551 l 1,1,-1
 142 556 l 1,2,-1
 161 652 l 1,3,-1
 298 652 l 1,4,-1
 278 557 l 1,5,-1
 500 557 l 1,6,-1
 519 652 l 1,7,-1
 656 652 l 1,8,-1
 637 557 l 1,9,-1
 732 557 l 1,10,-1
 719 489 l 1,11,-1
 624 489 l 1,12,-1
 526 0 l 1,13,-1
 388 0 l 1,14,-1
 445 279 l 1,15,-1
 222 279 l 1,16,-1
 168 0 l 1,17,-1
 30 0 l 1,18,-1
 128 489 l 1,19,-1
 70 489 l 1,0,-1
246 399 m 1,20,-1
 469 399 l 1,21,-1
 487 489 l 1,22,-1
 264 489 l 1,23,-1
 246 399 l 1,20,-1
EndSplineSet
EndChar

StartChar: Iogonek
Encoding: 302 302 124
Width: 366
GlyphClass: 2
Flags: W
AnchorPoint: "Anchor-1" 270 682 basechar 0
LayerCount: 2
Fore
SplineSet
92 -222 m 0,0,1
 51 -222 51 -222 25.5 -202 c 128,-1,2
 0 -182 0 -182 0 -145 c 0,3,4
 0 -120 0 -120 10.5 -97 c 128,-1,5
 21 -74 21 -74 36 -55 c 128,-1,6
 51 -36 51 -36 67 -22 c 128,-1,7
 83 -8 83 -8 95 0 c 1,8,-1
 -6 0 l 1,9,-1
 18 115 l 1,10,-1
 86 115 l 1,11,-1
 171 537 l 1,12,-1
 102 537 l 1,13,-1
 126 652 l 1,14,-1
 401 652 l 1,15,-1
 377 537 l 1,16,-1
 309 537 l 1,17,-1
 223 115 l 1,18,-1
 295 115 l 1,19,-1
 271 0 l 1,20,-1
 201 0 l 1,21,22
 153 -18 153 -18 130 -48 c 128,-1,23
 107 -78 107 -78 107 -101 c 0,24,25
 107 -117 107 -117 117.5 -125 c 128,-1,26
 128 -133 128 -133 142 -133 c 0,27,28
 148 -133 148 -133 154.5 -131 c 128,-1,29
 161 -129 161 -129 169 -124 c 1,30,-1
 195 -190 l 1,31,32
 175 -204 175 -204 145.5 -213 c 128,-1,33
 116 -222 116 -222 92 -222 c 0,0,1
EndSplineSet
Substitution2: "'ss04' Style Set 4 in Latin lookup 23 subtable" Iogonek.a
Ligature2: "'ccmp' Glyph Composition/Decomposition in Latin lookup 6 subtable" I uni0328
Substitution2: "'aalt' Access All Alternates in Latin lookup 0 subtable" Iogonek.a
EndChar

StartChar: Lslash
Encoding: 321 321 134
Width: 500
Flags: W
LayerCount: 2
Fore
SplineSet
15 178 m 1,0,-1
 -18 266 l 1,1,-1
 92 320 l 1,2,-1
 159 652 l 1,3,-1
 296 652 l 1,4,-1
 244 391 l 1,5,-1
 397 468 l 1,6,-1
 431 380 l 1,7,-1
 221 277 l 1,8,-1
 188 115 l 1,9,-1
 435 115 l 1,10,-1
 413 0 l 1,11,-1
 28 0 l 1,12,-1
 69 205 l 1,13,-1
 15 178 l 1,0,-1
EndSplineSet
EndChar

StartChar: Oslash
Encoding: 216 216 158
Width: 660
GlyphClass: 2
Flags: W
AnchorPoint: "Anchor-1" 434 682 basechar 0
LayerCount: 2
Fore
SplineSet
302 -12 m 0,0,1
 200 -12 200 -12 137 48 c 1,2,-1
 52 -40 l 1,3,-1
 -10 16 l 1,4,-1
 87 116 l 1,5,6
 73 147 73 147 65 183.5 c 128,-1,7
 57 220 57 220 57 264 c 0,8,9
 57 350 57 350 84 423.5 c 128,-1,10
 111 497 111 497 156.5 550.5 c 128,-1,11
 202 604 202 604 262 634 c 128,-1,12
 322 664 322 664 388 664 c 0,13,14
 492 664 492 664 557 601 c 1,15,-1
 651 698 l 1,16,-1
 711 642 l 1,17,-1
 605 532 l 1,18,19
 633 470 633 470 633 388 c 0,20,21
 633 302 633 302 606 228.5 c 128,-1,22
 579 155 579 155 533.5 101.5 c 128,-1,23
 488 48 488 48 428 18 c 128,-1,24
 368 -12 368 -12 302 -12 c 0,0,1
197 273 m 0,25,26
 197 262 197 262 197.5 252 c 128,-1,27
 198 242 198 242 199 232 c 1,28,-1
 463 504 l 1,29,30
 433 545 433 545 382 545 c 0,31,32
 347 545 347 545 314 523.5 c 128,-1,33
 281 502 281 502 255 465.5 c 128,-1,34
 229 429 229 429 213 379.5 c 128,-1,35
 197 330 197 330 197 273 c 0,25,26
309 106 m 0,36,37
 344 106 344 106 377 127.5 c 128,-1,38
 410 149 410 149 436 186 c 128,-1,39
 462 223 462 223 477.5 272.5 c 128,-1,40
 493 322 493 322 493 379 c 0,41,42
 493 389 493 389 492.5 397.5 c 128,-1,43
 492 406 492 406 491 415 c 1,44,-1
 230 144 l 1,45,46
 260 106 260 106 309 106 c 0,36,37
EndSplineSet
EndChar

StartChar: OE
Encoding: 338 338 159
Width: 833
GlyphClass: 2
Flags: W
AnchorPoint: "Anchor-1" 580 682 basechar 0
LayerCount: 2
Fore
SplineSet
345 0 m 2,0,1
 208 0 208 0 132.5 63 c 128,-1,2
 57 126 57 126 57 256 c 0,3,4
 57 352 57 352 83.5 426 c 128,-1,5
 110 500 110 500 158 550.5 c 128,-1,6
 206 601 206 601 272 626.5 c 128,-1,7
 338 652 338 652 416 652 c 2,8,-1
 852 652 l 1,9,-1
 829 537 l 1,10,-1
 591 537 l 1,11,-1
 563 395 l 1,12,-1
 764 395 l 1,13,-1
 741 280 l 1,14,-1
 541 280 l 1,15,-1
 507 115 l 1,16,-1
 754 115 l 1,17,-1
 731 0 l 1,18,-1
 345 0 l 2,0,1
349 110 m 2,19,-1
 370 110 l 1,20,-1
 456 542 l 1,21,-1
 419 542 l 2,22,23
 372 542 372 542 331.5 525.5 c 128,-1,24
 291 509 291 509 261 475 c 128,-1,25
 231 441 231 441 214 388.5 c 128,-1,26
 197 336 197 336 197 265 c 0,27,28
 197 184 197 184 238.5 147 c 128,-1,29
 280 110 280 110 349 110 c 2,19,-1
EndSplineSet
EndChar

StartChar: Ohorn
Encoding: 416 416 160
Width: 660
GlyphClass: 2
Flags: W
AnchorPoint: "Anchor-3" 298 -22 basechar 0
AnchorPoint: "Anchor-1" 418 682 basechar 0
LayerCount: 2
Fore
SplineSet
302 -12 m 0,0,1
 246 -12 246 -12 201 6.5 c 128,-1,2
 156 25 156 25 124 60.5 c 128,-1,3
 92 96 92 96 74.5 147.5 c 128,-1,4
 57 199 57 199 57 264 c 0,5,6
 57 350 57 350 84 423.5 c 128,-1,7
 111 497 111 497 156.5 550.5 c 128,-1,8
 202 604 202 604 262 634 c 128,-1,9
 322 664 322 664 388 664 c 0,10,11
 456 664 456 664 509 636 c 1,12,13
 551 641 551 641 571 667 c 128,-1,14
 591 693 591 693 591 726 c 0,15,16
 591 748 591 748 580 773 c 1,17,-1
 682 805 l 1,18,19
 690 786 690 786 694.5 768.5 c 128,-1,20
 699 751 699 751 699 733 c 0,21,22
 699 676 699 676 664.5 637 c 128,-1,23
 630 598 630 598 570 587 c 1,24,25
 600 552 600 552 616.5 501.5 c 128,-1,26
 633 451 633 451 633 388 c 0,27,28
 633 302 633 302 606 228.5 c 128,-1,29
 579 155 579 155 533.5 101.5 c 128,-1,30
 488 48 488 48 428 18 c 128,-1,31
 368 -12 368 -12 302 -12 c 0,0,1
309 106 m 0,32,33
 344 106 344 106 377 127.5 c 128,-1,34
 410 149 410 149 436 186 c 128,-1,35
 462 223 462 223 477.5 272.5 c 128,-1,36
 493 322 493 322 493 379 c 0,37,38
 493 457 493 457 464.5 501 c 128,-1,39
 436 545 436 545 382 545 c 0,40,41
 347 545 347 545 314 523.5 c 128,-1,42
 281 502 281 502 255 465.5 c 128,-1,43
 229 429 229 429 213 379.5 c 128,-1,44
 197 330 197 330 197 273 c 0,45,46
 197 195 197 195 226 150.5 c 128,-1,47
 255 106 255 106 309 106 c 0,32,33
EndSplineSet
EndChar

StartChar: uni01EA
Encoding: 490 490 166
Width: 660
GlyphClass: 2
Flags: W
AnchorPoint: "Anchor-1" 429 682 basechar 0
LayerCount: 2
Fore
SplineSet
268 -222 m 0,0,1
 226 -222 226 -222 200.5 -202 c 128,-1,2
 175 -182 175 -182 175 -145 c 0,3,4
 175 -123 175 -123 183.5 -102 c 128,-1,5
 192 -81 192 -81 205 -63.5 c 128,-1,6
 218 -46 218 -46 233 -32 c 128,-1,7
 248 -18 248 -18 261 -9 c 1,8,9
 165 5 165 5 111 75.5 c 128,-1,10
 57 146 57 146 57 264 c 0,11,12
 57 350 57 350 84 423.5 c 128,-1,13
 111 497 111 497 156.5 550.5 c 128,-1,14
 202 604 202 604 262 634 c 128,-1,15
 322 664 322 664 388 664 c 0,16,17
 444 664 444 664 489 645 c 128,-1,18
 534 626 534 626 566 590.5 c 128,-1,19
 598 555 598 555 615.5 504 c 128,-1,20
 633 453 633 453 633 388 c 0,21,22
 633 251 633 251 568 150 c 128,-1,23
 503 49 503 49 377 -4 c 0,24,25
 326 -25 326 -25 304.5 -51.5 c 128,-1,26
 283 -78 283 -78 283 -101 c 0,27,28
 283 -117 283 -117 293.5 -125 c 128,-1,29
 304 -133 304 -133 318 -133 c 0,30,31
 324 -133 324 -133 330.5 -131 c 128,-1,32
 337 -129 337 -129 345 -124 c 1,33,-1
 371 -191 l 1,34,35
 350 -205 350 -205 321 -213.5 c 128,-1,36
 292 -222 292 -222 268 -222 c 0,0,1
309 106 m 0,37,38
 344 106 344 106 377 127.5 c 128,-1,39
 410 149 410 149 436 186 c 128,-1,40
 462 223 462 223 477.5 272.5 c 128,-1,41
 493 322 493 322 493 379 c 0,42,43
 493 457 493 457 464.5 501 c 128,-1,44
 436 545 436 545 382 545 c 0,45,46
 347 545 347 545 314 523.5 c 128,-1,47
 281 502 281 502 255 465.5 c 128,-1,48
 229 429 229 429 213 379.5 c 128,-1,49
 197 330 197 330 197 273 c 0,50,51
 197 195 197 195 226 150.5 c 128,-1,52
 255 106 255 106 309 106 c 0,37,38
EndSplineSet
Ligature2: "'ccmp' Glyph Composition/Decomposition in Latin lookup 6 subtable" O uni0328
EndChar

StartChar: uni1E9E
Encoding: 7838 7838 180
Width: 671
Flags: W
LayerCount: 2
Fore
SplineSet
420 -12 m 0,0,1
 369 -12 369 -12 322 6.5 c 128,-1,2
 275 25 275 25 239 64 c 1,3,-1
 317 149 l 1,4,5
 332 129 332 129 355 113.5 c 128,-1,6
 378 98 378 98 410 98 c 0,7,8
 441 98 441 98 464.5 121 c 128,-1,9
 488 144 488 144 488 180 c 0,10,11
 488 209 488 209 457 238 c 128,-1,12
 426 267 426 267 357 286 c 1,13,-1
 364 366 l 1,14,-1
 497 489 l 1,15,16
 485 525 485 525 456 543.5 c 128,-1,17
 427 562 427 562 388 562 c 0,18,19
 334 562 334 562 297.5 520 c 128,-1,20
 261 478 261 478 245 403 c 2,21,-1
 166 0 l 1,22,-1
 28 0 l 1,23,-1
 115 430 l 2,24,25
 125 480 125 480 146 524 c 128,-1,26
 167 568 167 568 201.5 601 c 128,-1,27
 236 634 236 634 284.5 653 c 128,-1,28
 333 672 333 672 397 672 c 0,29,30
 442 672 442 672 483 660.5 c 128,-1,31
 524 649 524 649 555.5 624.5 c 128,-1,32
 587 600 587 600 607 562.5 c 128,-1,33
 627 525 627 525 631 473 c 1,34,-1
 497 354 l 1,35,36
 555 328 555 328 592 287 c 128,-1,37
 629 246 629 246 629 188 c 0,38,39
 629 146 629 146 613.5 109.5 c 128,-1,40
 598 73 598 73 570.5 46 c 128,-1,41
 543 19 543 19 504.5 3.5 c 128,-1,42
 466 -12 466 -12 420 -12 c 0,0,1
EndSplineSet
EndChar

StartChar: Uogonek
Encoding: 370 370 202
Width: 643
GlyphClass: 2
Flags: W
AnchorPoint: "Anchor-1" 422 682 basechar 0
LayerCount: 2
Fore
SplineSet
649 652 m 1,0,-1
 573 276 l 2,1,2
 561 211 561 211 543 164.5 c 128,-1,3
 525 118 525 118 500 85.5 c 128,-1,4
 475 53 475 53 442 31 c 128,-1,5
 409 9 409 9 367 -6 c 0,6,7
 314 -25 314 -25 291.5 -51.5 c 128,-1,8
 269 -78 269 -78 269 -101 c 0,9,10
 269 -117 269 -117 279.5 -125 c 128,-1,11
 290 -133 290 -133 304 -133 c 0,12,13
 310 -133 310 -133 316.5 -131 c 128,-1,14
 323 -129 323 -129 331 -124 c 1,15,-1
 357 -191 l 1,16,17
 336 -205 336 -205 307 -213.5 c 128,-1,18
 278 -222 278 -222 254 -222 c 0,19,20
 212 -222 212 -222 186.5 -202 c 128,-1,21
 161 -182 161 -182 161 -145 c 0,22,23
 161 -124 161 -124 169.5 -103 c 128,-1,24
 178 -82 178 -82 191 -64 c 128,-1,25
 204 -46 204 -46 219 -31.5 c 128,-1,26
 234 -17 234 -17 248 -7 c 1,27,28
 163 7 163 7 119 61.5 c 128,-1,29
 75 116 75 116 75 215 c 0,30,31
 75 237 75 237 79 265.5 c 128,-1,32
 83 294 83 294 88 320 c 2,33,-1
 155 652 l 1,34,-1
 292 652 l 1,35,-1
 221 295 l 2,36,37
 217 275 217 275 215 256 c 128,-1,38
 213 237 213 237 213 219 c 0,39,40
 213 164 213 164 235 135 c 128,-1,41
 257 106 257 106 312 106 c 0,42,43
 359 106 359 106 390 144.5 c 128,-1,44
 421 183 421 183 439 274 c 2,45,-1
 515 652 l 1,46,-1
 649 652 l 1,0,-1
EndSplineSet
Ligature2: "'ccmp' Glyph Composition/Decomposition in Latin lookup 6 subtable" U uni0328
EndChar

StartChar: Uhorn
Encoding: 431 431 203
Width: 666
GlyphClass: 2
Flags: W
AnchorPoint: "Anchor-3" 289 -22 basechar 0
AnchorPoint: "Anchor-1" 422 682 basechar 0
LayerCount: 2
Fore
SplineSet
88 320 m 2,0,-1
 155 652 l 1,1,-1
 292 652 l 1,2,-1
 221 295 l 2,3,4
 217 275 217 275 215 256 c 128,-1,5
 213 237 213 237 213 219 c 0,6,7
 213 164 213 164 235 135 c 128,-1,8
 257 106 257 106 312 106 c 0,9,10
 359 106 359 106 390 144.5 c 128,-1,11
 421 183 421 183 439 274 c 2,12,-1
 515 652 l 1,13,-1
 594 652 l 1,14,15
 674 663 674 663 674 728 c 0,16,17
 674 751 674 751 663 776 c 1,18,-1
 766 808 l 1,19,20
 782 772 782 772 782 736 c 0,21,22
 782 680 782 680 746 647.5 c 128,-1,23
 710 615 710 615 639 601 c 1,24,-1
 573 276 l 2,25,26
 543 126 543 126 477.5 57 c 128,-1,27
 412 -12 412 -12 308 -12 c 0,28,29
 192 -12 192 -12 133.5 43.5 c 128,-1,30
 75 99 75 99 75 215 c 0,31,32
 75 237 75 237 79 265.5 c 128,-1,33
 83 294 83 294 88 320 c 2,0,-1
EndSplineSet
EndChar

StartChar: Eth
Encoding: 208 208 225
Width: 634
Flags: W
LayerCount: 2
Fore
SplineSet
38 307 m 1,0,-1
 50 369 l 1,1,-1
 121 374 l 1,2,-1
 177 652 l 1,3,-1
 320 652 l 2,4,5
 457 652 457 652 532.5 589 c 128,-1,6
 608 526 608 526 608 396 c 0,7,8
 608 300 608 300 581.5 226 c 128,-1,9
 555 152 555 152 507.5 101.5 c 128,-1,10
 460 51 460 51 394 25.5 c 128,-1,11
 328 0 328 0 250 0 c 2,12,-1
 46 0 l 1,13,-1
 108 307 l 1,14,-1
 38 307 l 1,0,-1
206 110 m 1,15,-1
 247 110 l 2,16,17
 294 110 294 110 334.5 126.5 c 128,-1,18
 375 143 375 143 404.5 177 c 128,-1,19
 434 211 434 211 451 263.5 c 128,-1,20
 468 316 468 316 468 387 c 0,21,22
 468 468 468 468 427 505 c 128,-1,23
 386 542 386 542 317 542 c 2,24,-1
 291 542 l 1,25,-1
 258 374 l 1,26,-1
 383 374 l 1,27,-1
 368 307 l 1,28,-1
 245 307 l 1,29,-1
 206 110 l 1,15,-1
EndSplineSet
EndChar

StartChar: Thorn
Encoding: 222 222 226
Width: 595
Flags: W
LayerCount: 2
Fore
SplineSet
28 0 m 1,0,-1
 159 660 l 1,1,-1
 296 660 l 1,2,-1
 275 556 l 1,3,-1
 363 556 l 2,4,5
 408 556 408 556 446 546.5 c 128,-1,6
 484 537 484 537 512 516.5 c 128,-1,7
 540 496 540 496 556 463 c 128,-1,8
 572 430 572 430 572 383 c 0,9,10
 572 315 572 315 547.5 267 c 128,-1,11
 523 219 523 219 482 188.5 c 128,-1,12
 441 158 441 158 386 144 c 128,-1,13
 331 130 331 130 270 130 c 2,14,-1
 190 130 l 1,15,-1
 164 0 l 1,16,-1
 28 0 l 1,0,-1
212 239 m 1,17,-1
 283 239 l 2,18,19
 358 239 358 239 397 270 c 128,-1,20
 436 301 436 301 436 363 c 0,21,22
 436 407 436 407 409.5 427 c 128,-1,23
 383 447 383 447 334 447 c 2,24,-1
 253 447 l 1,25,-1
 212 239 l 1,17,-1
EndSplineSet
EndChar

StartChar: uni018F
Encoding: 399 399 227
Width: 668
GlyphClass: 2
Flags: W
AnchorPoint: "Anchor-3" 324 -22 basechar 0
AnchorPoint: "Anchor-1" 476 682 basechar 0
LayerCount: 2
Fore
SplineSet
300 -12 m 0,0,1
 245 -12 245 -12 201.5 6 c 128,-1,2
 158 24 158 24 127.5 57.5 c 128,-1,3
 97 91 97 91 81 138 c 128,-1,4
 65 185 65 185 65 244 c 0,5,6
 65 281 65 281 70.5 309.5 c 128,-1,7
 76 338 76 338 87 373 c 1,8,-1
 506 373 l 1,9,-1
 506 387 l 2,10,11
 506 467 506 467 479 511 c 128,-1,12
 452 555 452 555 386 555 c 0,13,14
 341 555 341 555 308 538 c 128,-1,15
 275 521 275 521 247 498 c 1,16,-1
 189 591 l 1,17,18
 229 626 229 626 281.5 649 c 128,-1,19
 334 672 334 672 403 672 c 0,20,21
 462 672 462 672 507 653 c 128,-1,22
 552 634 552 634 582 599 c 128,-1,23
 612 564 612 564 627.5 514 c 128,-1,24
 643 464 643 464 643 401 c 0,25,26
 643 309 643 309 615.5 233.5 c 128,-1,27
 588 158 588 158 541 103 c 128,-1,28
 494 48 494 48 432 18 c 128,-1,29
 370 -12 370 -12 300 -12 c 0,0,1
310 105 m 0,30,31
 368 105 368 105 417.5 150 c 128,-1,32
 467 195 467 195 490 273 c 1,33,-1
 195 273 l 1,34,35
 189 233 189 233 195.5 201.5 c 128,-1,36
 202 170 202 170 218 148.5 c 128,-1,37
 234 127 234 127 258 116 c 128,-1,38
 282 105 282 105 310 105 c 0,30,31
EndSplineSet
EndChar

StartChar: aogonek
Encoding: 261 261 249
Width: 552
GlyphClass: 2
Flags: W
AnchorPoint: "Anchor-0" 322 518 basechar 0
LayerCount: 2
Fore
SplineSet
319 -210 m 0,0,1
 281 -210 281 -210 257 -191.5 c 128,-1,2
 233 -173 233 -173 233 -137 c 0,3,4
 233 -113 233 -113 243 -91.5 c 128,-1,5
 253 -70 253 -70 267.5 -52 c 128,-1,6
 282 -34 282 -34 298.5 -20.5 c 128,-1,7
 315 -7 315 -7 327 2 c 1,8,-1
 329 65 l 1,9,-1
 327 65 l 1,10,11
 293 30 293 30 251.5 9 c 128,-1,12
 210 -12 210 -12 171 -12 c 0,13,14
 105 -12 105 -12 68 35 c 128,-1,15
 31 82 31 82 31 170 c 0,16,17
 31 241 31 241 53 302.5 c 128,-1,18
 75 364 75 364 112 410 c 128,-1,19
 149 456 149 456 197 482 c 128,-1,20
 245 508 245 508 296 508 c 0,21,22
 330 508 330 508 360 490 c 128,-1,23
 390 472 390 472 404 443 c 1,24,-1
 406 443 l 1,25,-1
 428 496 l 1,26,-1
 537 496 l 1,27,-1
 438 0 l 1,28,29
 389 -15 389 -15 360.5 -41 c 128,-1,30
 332 -67 332 -67 332 -98 c 0,31,32
 332 -112 332 -112 342.5 -120 c 128,-1,33
 353 -128 353 -128 367 -128 c 256,34,35
 381 -128 381 -128 399 -118 c 1,36,-1
 422 -174 l 1,37,38
 401 -189 401 -189 372 -199.5 c 128,-1,39
 343 -210 343 -210 319 -210 c 0,0,1
231 100 m 0,40,41
 254 100 254 100 283.5 115.5 c 128,-1,42
 313 131 313 131 337 173 c 1,43,-1
 372 349 l 1,44,45
 360 374 360 374 341.5 385 c 128,-1,46
 323 396 323 396 306 396 c 0,47,48
 280 396 280 396 256 380 c 128,-1,49
 232 364 232 364 213.5 336 c 128,-1,50
 195 308 195 308 184 270 c 128,-1,51
 173 232 173 232 173 187 c 256,52,53
 173 142 173 142 188.5 121 c 128,-1,54
 204 100 204 100 231 100 c 0,40,41
EndSplineSet
Substitution2: "'ss02' Style Set 2 in Latin lookup 21 subtable" aogonek.a
Ligature2: "'ccmp' Glyph Composition/Decomposition in Latin lookup 6 subtable" a uni0328
Substitution2: "'aalt' Access All Alternates in Latin lookup 0 subtable" aogonek.a
EndChar

StartChar: ae
Encoding: 230 230 250
Width: 754
Flags: W
LayerCount: 2
Fore
SplineSet
22 112 m 0,0,1
 22 166 22 166 45.5 203.5 c 128,-1,2
 69 241 69 241 110.5 264 c 128,-1,3
 152 287 152 287 207.5 297.5 c 128,-1,4
 263 308 263 308 326 310 c 1,5,6
 327 316 327 316 327 321 c 128,-1,7
 327 326 327 326 327 331 c 0,8,9
 327 368 327 368 310 384.5 c 128,-1,10
 293 401 293 401 260 401 c 0,11,12
 231 401 231 401 199.5 390.5 c 128,-1,13
 168 380 168 380 133 363 c 1,14,-1
 103 458 l 1,15,16
 147 480 147 480 195.5 494 c 128,-1,17
 244 508 244 508 294 508 c 0,18,19
 338 508 338 508 369 492 c 128,-1,20
 400 476 400 476 416 441 c 1,21,22
 448 473 448 473 486.5 490.5 c 128,-1,23
 525 508 525 508 563 508 c 0,24,25
 608 508 608 508 638.5 493.5 c 128,-1,26
 669 479 669 479 688.5 453.5 c 128,-1,27
 708 428 708 428 716.5 394.5 c 128,-1,28
 725 361 725 361 725 322 c 0,29,30
 725 304 725 304 722 286.5 c 128,-1,31
 719 269 719 269 715.5 253.5 c 128,-1,32
 712 238 712 238 707.5 226.5 c 128,-1,33
 703 215 703 215 700 209 c 1,34,-1
 428 209 l 1,35,36
 423 150 423 150 452.5 120.5 c 128,-1,37
 482 91 482 91 530 91 c 0,38,39
 553 91 553 91 577.5 102 c 128,-1,40
 602 113 602 113 620 126 c 1,41,-1
 669 40 l 1,42,43
 640 19 640 19 597 3.5 c 128,-1,44
 554 -12 554 -12 500 -12 c 0,45,46
 447 -12 447 -12 405 11.5 c 128,-1,47
 363 35 363 35 343 69 c 1,48,49
 298 31 298 31 253.5 9.5 c 128,-1,50
 209 -12 209 -12 155 -12 c 0,51,52
 127 -12 127 -12 102.5 -3.5 c 128,-1,53
 78 5 78 5 60 21.5 c 128,-1,54
 42 38 42 38 32 60.5 c 128,-1,55
 22 83 22 83 22 112 c 0,0,1
439 293 m 1,56,-1
 609 293 l 1,57,58
 611 304 611 304 612 311.5 c 128,-1,59
 613 319 613 319 613 330 c 0,60,61
 613 360 613 360 598.5 381.5 c 128,-1,62
 584 403 584 403 546 403 c 0,63,64
 515 403 515 403 485 375.5 c 128,-1,65
 455 348 455 348 439 293 c 1,56,-1
308 227 m 1,66,67
 230 225 230 225 192.5 201 c 128,-1,68
 155 177 155 177 155 139 c 0,69,70
 155 117 155 117 170.5 105 c 128,-1,71
 186 93 186 93 210 93 c 0,72,73
 232 93 232 93 257.5 107.5 c 128,-1,74
 283 122 283 122 309 152 c 1,75,76
 307 170 307 170 306.5 187.5 c 128,-1,77
 306 205 306 205 308 227 c 1,66,67
EndSplineSet
EndChar

StartChar: dcroat
Encoding: 273 273 259
Width: 550
Flags: W
LayerCount: 2
Fore
SplineSet
171 -12 m 0,0,1
 105 -12 105 -12 68 35 c 128,-1,2
 31 82 31 82 31 170 c 0,3,4
 31 233 31 233 53 290.5 c 128,-1,5
 75 348 75 348 112 392 c 128,-1,6
 149 436 149 436 197 462 c 128,-1,7
 245 488 245 488 296 488 c 0,8,9
 330 488 330 488 355 471.5 c 128,-1,10
 380 455 380 455 393 428 c 1,11,-1
 396 428 l 1,12,-1
 408 522 l 1,13,-1
 415 558 l 1,14,-1
 271 558 l 1,15,-1
 284 625 l 1,16,-1
 428 625 l 1,17,-1
 442 701 l 1,18,-1
 579 701 l 1,19,-1
 564 625 l 1,20,-1
 631 625 l 1,21,-1
 617 563 l 1,22,-1
 550 558 l 1,23,-1
 438 0 l 1,24,-1
 327 0 l 1,25,-1
 329 65 l 1,26,-1
 326 65 l 1,27,28
 292 30 292 30 251 9 c 128,-1,29
 210 -12 210 -12 171 -12 c 0,0,1
231 100 m 0,30,31
 256 100 256 100 283.5 115.5 c 128,-1,32
 311 131 311 131 337 173 c 1,33,-1
 368 329 l 1,34,35
 357 354 357 354 340 365 c 128,-1,36
 323 376 323 376 305 376 c 0,37,38
 279 376 279 376 255 360 c 128,-1,39
 231 344 231 344 213 318 c 128,-1,40
 195 292 195 292 184 257.5 c 128,-1,41
 173 223 173 223 173 187 c 0,42,43
 173 142 173 142 188.5 121 c 128,-1,44
 204 100 204 100 231 100 c 0,30,31
EndSplineSet
EndChar

StartChar: eogonek
Encoding: 281 281 276
Width: 496
GlyphClass: 2
Flags: W
AnchorPoint: "Anchor-0" 320 518 basechar 0
LayerCount: 2
Fore
SplineSet
170 -137 m 0,0,1
 170 -113 170 -113 179.5 -92 c 128,-1,2
 189 -71 189 -71 202 -54.5 c 128,-1,3
 215 -38 215 -38 227 -27 c 128,-1,4
 239 -16 239 -16 245 -11 c 1,5,6
 243 -12 243 -12 239.5 -12 c 128,-1,7
 236 -12 236 -12 234 -12 c 0,8,9
 188 -12 188 -12 150.5 2.5 c 128,-1,10
 113 17 113 17 86 44.5 c 128,-1,11
 59 72 59 72 44 111 c 128,-1,12
 29 150 29 150 29 200 c 0,13,14
 29 269 29 269 53.5 325.5 c 128,-1,15
 78 382 78 382 117.5 422.5 c 128,-1,16
 157 463 157 463 206 485.5 c 128,-1,17
 255 508 255 508 305 508 c 0,18,19
 349 508 349 508 380 493.5 c 128,-1,20
 411 479 411 479 430.5 453.5 c 128,-1,21
 450 428 450 428 458.5 394.5 c 128,-1,22
 467 361 467 361 467 322 c 0,23,24
 467 304 467 304 464 286.5 c 128,-1,25
 461 269 461 269 457 253.5 c 128,-1,26
 453 238 453 238 448.5 226.5 c 128,-1,27
 444 215 444 215 441 209 c 1,28,-1
 159 209 l 1,29,30
 156 147 156 147 188.5 119 c 128,-1,31
 221 91 221 91 270 91 c 0,32,33
 293 91 293 91 318 102 c 128,-1,34
 343 113 343 113 362 126 c 1,35,-1
 410 40 l 1,36,37
 365 18 365 18 337.5 -2 c 128,-1,38
 310 -22 310 -22 295 -39.5 c 128,-1,39
 280 -57 280 -57 274.5 -71.5 c 128,-1,40
 269 -86 269 -86 269 -98 c 0,41,42
 269 -112 269 -112 279 -120 c 128,-1,43
 289 -128 289 -128 303 -128 c 0,44,45
 318 -128 318 -128 336 -118 c 1,46,-1
 359 -174 l 1,47,48
 338 -189 338 -189 309 -199.5 c 128,-1,49
 280 -210 280 -210 255 -210 c 0,50,51
 218 -210 218 -210 194 -191.5 c 128,-1,52
 170 -173 170 -173 170 -137 c 0,0,1
170 293 m 1,53,-1
 350 293 l 1,54,55
 355 310 355 310 355 330 c 0,56,57
 355 360 355 360 340.5 381.5 c 128,-1,58
 326 403 326 403 288 403 c 0,59,60
 253 403 253 403 220 375.5 c 128,-1,61
 187 348 187 348 170 293 c 1,53,-1
EndSplineSet
Ligature2: "'ccmp' Glyph Composition/Decomposition in Latin lookup 6 subtable" e uni0328
EndChar

StartChar: hbar
Encoding: 295 295 287
Width: 546
Flags: W
LayerCount: 2
Fore
SplineSet
14 0 m 1,0,-1
 126 558 l 1,1,-1
 58 558 l 1,2,-1
 71 619 l 1,3,-1
 140 625 l 1,4,-1
 155 701 l 1,5,-1
 292 701 l 1,6,-1
 276 625 l 1,7,-1
 438 625 l 1,8,-1
 423 558 l 1,9,-1
 262 558 l 1,10,-1
 250 498 l 1,11,-1
 228 418 l 1,12,-1
 232 418 l 1,13,14
 265 447 265 447 304 467.5 c 128,-1,15
 343 488 343 488 388 488 c 0,16,17
 450 488 450 488 478 455.5 c 128,-1,18
 506 423 506 423 506 361 c 0,19,20
 506 344 506 344 504.5 326.5 c 128,-1,21
 503 309 503 309 498 290 c 2,22,-1
 440 0 l 1,23,-1
 303 0 l 1,24,-1
 358 273 l 2,25,26
 361 288 361 288 363.5 299 c 128,-1,27
 366 310 366 310 366 320 c 0,28,29
 366 371 366 371 315 371 c 0,30,31
 292 371 292 371 267.5 355.5 c 128,-1,32
 243 340 243 340 211 307 c 1,33,-1
 151 0 l 1,34,-1
 14 0 l 1,0,-1
EndSplineSet
EndChar

StartChar: iogonek
Encoding: 303 303 297
Width: 265
GlyphClass: 3
Flags: W
LayerCount: 2
Fore
SplineSet
47 -210 m 0,0,1
 9 -210 9 -210 -15 -191.5 c 128,-1,2
 -39 -173 -39 -173 -39 -137 c 0,3,4
 -39 -113 -39 -113 -29 -91.5 c 128,-1,5
 -19 -70 -19 -70 -4.5 -52 c 128,-1,6
 10 -34 10 -34 25.5 -21 c 128,-1,7
 41 -8 41 -8 53 0 c 1,8,-1
 14 0 l 1,9,-1
 114 496 l 1,10,-1
 250 496 l 1,11,-1
 151 0 l 1,12,13
 102 -20 102 -20 81 -45.5 c 128,-1,14
 60 -71 60 -71 60 -98 c 0,15,16
 60 -112 60 -112 70.5 -120 c 128,-1,17
 81 -128 81 -128 95 -128 c 256,18,19
 109 -128 109 -128 127 -118 c 1,20,-1
 150 -174 l 1,21,22
 129 -189 129 -189 100 -199.5 c 128,-1,23
 71 -210 71 -210 47 -210 c 0,0,1
208 570 m 0,24,25
 180 570 180 570 157 586.5 c 128,-1,26
 134 603 134 603 134 636 c 0,27,28
 134 652 134 652 140.5 667 c 128,-1,29
 147 682 147 682 158.5 693 c 128,-1,30
 170 704 170 704 185.5 710.5 c 128,-1,31
 201 717 201 717 219 717 c 0,32,33
 248 717 248 717 270.5 700 c 128,-1,34
 293 683 293 683 293 651 c 0,35,36
 293 616 293 616 268.5 593 c 128,-1,37
 244 570 244 570 208 570 c 0,24,25
EndSplineSet
Substitution2: "Single Substitution lookup 26 subtable" iogonek.d
Ligature2: "'ccmp' Glyph Composition/Decomposition in Latin lookup 6 subtable" i uni0328
EndChar

StartChar: iogonek.d
Encoding: 65539 -1 298
Width: 265
GlyphClass: 2
Flags: W
AnchorPoint: "Anchor-0" 192 518 basechar 0
LayerCount: 2
Fore
SplineSet
47 -210 m 0,0,1
 9 -210 9 -210 -15 -191.5 c 128,-1,2
 -39 -173 -39 -173 -39 -137 c 0,3,4
 -39 -113 -39 -113 -29 -91.5 c 128,-1,5
 -19 -70 -19 -70 -4.5 -52 c 128,-1,6
 10 -34 10 -34 25.5 -21 c 128,-1,7
 41 -8 41 -8 53 0 c 1,8,-1
 14 0 l 1,9,-1
 114 496 l 1,10,-1
 250 496 l 1,11,-1
 151 0 l 1,12,13
 102 -20 102 -20 81 -45.5 c 128,-1,14
 60 -71 60 -71 60 -98 c 0,15,16
 60 -112 60 -112 70.5 -120 c 128,-1,17
 81 -128 81 -128 95 -128 c 256,18,19
 109 -128 109 -128 127 -118 c 1,20,-1
 150 -174 l 1,21,22
 129 -189 129 -189 100 -199.5 c 128,-1,23
 71 -210 71 -210 47 -210 c 0,0,1
EndSplineSet
Ligature2: "Ligature Substitution lookup 25 subtable" i uni0328
EndChar

StartChar: dotlessi
Encoding: 305 305 299
Width: 265
GlyphClass: 2
Flags: W
AnchorPoint: "Anchor-5" 76 0 basechar 0
AnchorPoint: "Anchor-3" 89 -22 basechar 0
AnchorPoint: "Anchor-0" 192 518 basechar 0
LayerCount: 2
Fore
SplineSet
14 0 m 1,0,-1
 114 496 l 1,1,-1
 250 496 l 1,2,-1
 151 0 l 1,3,-1
 14 0 l 1,0,-1
EndSplineSet
EndChar

StartChar: kgreenlandic
Encoding: 312 312 302
Width: 525
Flags: W
LayerCount: 2
Fore
SplineSet
14 0 m 1,0,-1
 112 496 l 1,1,-1
 249 496 l 1,2,-1
 210 295 l 1,3,-1
 214 295 l 1,4,-1
 401 496 l 1,5,-1
 553 496 l 1,6,-1
 350 279 l 1,7,-1
 468 0 l 1,8,-1
 331 0 l 1,9,-1
 256 200 l 1,10,-1
 175 119 l 1,11,-1
 151 0 l 1,12,-1
 14 0 l 1,0,-1
EndSplineSet
EndChar

StartChar: lslash
Encoding: 322 322 310
Width: 285
Flags: W
LayerCount: 2
Fore
SplineSet
147 -12 m 0,0,1
 93 -12 93 -12 70 14 c 128,-1,2
 47 40 47 40 47 85 c 0,3,4
 47 111 47 111 54 146 c 2,5,-1
 82 288 l 1,6,-1
 33 262 l 1,7,-1
 1 343 l 1,8,-1
 104 396 l 1,9,-1
 165 701 l 1,10,-1
 302 701 l 1,11,-1
 254 464 l 1,12,-1
 308 495 l 1,13,-1
 341 413 l 1,14,-1
 232 355 l 1,15,-1
 189 140 l 2,16,17
 187 132 187 132 187 128.5 c 128,-1,18
 187 125 187 125 187 121 c 0,19,20
 187 108 187 108 192.5 103 c 128,-1,21
 198 98 198 98 206 98 c 0,22,23
 211 98 211 98 214 98 c 128,-1,24
 217 98 217 98 224 100 c 1,25,-1
 220 -1 l 1,26,27
 207 -6 207 -6 189 -9 c 128,-1,28
 171 -12 171 -12 147 -12 c 0,0,1
EndSplineSet
Substitution2: "'ss01' Style Set 1 in Latin lookup 20 subtable" lslash.a
Substitution2: "'aalt' Access All Alternates in Latin lookup 0 subtable" lslash.a
EndChar

StartChar: oslash
Encoding: 248 248 335
Width: 533
GlyphClass: 2
Flags: W
AnchorPoint: "Anchor-0" 331 518 basechar 0
LayerCount: 2
Fore
SplineSet
222 -12 m 0,0,1
 148 -12 148 -12 97 31 c 1,2,-1
 43 -25 l 1,3,-1
 0 16 l 1,4,-1
 59 76 l 1,5,6
 30 123 30 123 30 192 c 0,7,8
 30 264 30 264 54 322.5 c 128,-1,9
 78 381 78 381 117.5 422 c 128,-1,10
 157 463 157 463 207 485.5 c 128,-1,11
 257 508 257 508 308 508 c 0,12,13
 385 508 385 508 436 463 c 1,14,-1
 490 519 l 1,15,-1
 534 480 l 1,16,-1
 473 417 l 1,17,18
 486 394 486 394 493 366 c 128,-1,19
 500 338 500 338 500 304 c 0,20,21
 500 232 500 232 476 173.5 c 128,-1,22
 452 115 452 115 412.5 73.5 c 128,-1,23
 373 32 373 32 323 10 c 128,-1,24
 273 -12 273 -12 222 -12 c 0,0,1
158 195 m 0,25,26
 158 184 158 184 159 179 c 1,27,-1
 350 376 l 1,28,29
 331 401 331 401 297 401 c 0,30,31
 264 401 264 401 238 382 c 128,-1,32
 212 363 212 363 194 333.5 c 128,-1,33
 176 304 176 304 167 267.5 c 128,-1,34
 158 231 158 231 158 195 c 0,25,26
232 95 m 0,35,36
 266 95 266 95 292.5 113.5 c 128,-1,37
 319 132 319 132 336.5 161.5 c 128,-1,38
 354 191 354 191 363 227.5 c 128,-1,39
 372 264 372 264 372 299 c 0,40,41
 372 309 372 309 371 313 c 2,42,-1
 181 117 l 1,43,44
 200 95 200 95 232 95 c 0,35,36
EndSplineSet
EndChar

StartChar: oe
Encoding: 339 339 336
Width: 798
GlyphClass: 2
Flags: W
AnchorPoint: "Anchor-0" 444 502 basechar 0
LayerCount: 2
Fore
SplineSet
214 -12 m 0,0,1
 172 -12 172 -12 138 2.5 c 128,-1,2
 104 17 104 17 80 44 c 128,-1,3
 56 71 56 71 43 108.5 c 128,-1,4
 30 146 30 146 30 192 c 0,5,6
 30 264 30 264 53.5 322.5 c 128,-1,7
 77 381 77 381 115.5 422 c 128,-1,8
 154 463 154 463 202 485.5 c 128,-1,9
 250 508 250 508 299 508 c 0,10,11
 354 508 354 508 387 483.5 c 128,-1,12
 420 459 420 459 440 413 c 1,13,14
 475 459 475 459 519 483.5 c 128,-1,15
 563 508 563 508 606 508 c 0,16,17
 651 508 651 508 681.5 493.5 c 128,-1,18
 712 479 712 479 731.5 453.5 c 128,-1,19
 751 428 751 428 759.5 394.5 c 128,-1,20
 768 361 768 361 768 322 c 0,21,22
 768 304 768 304 765 286.5 c 128,-1,23
 762 269 762 269 758.5 253.5 c 128,-1,24
 755 238 755 238 750.5 226.5 c 128,-1,25
 746 215 746 215 743 209 c 1,26,-1
 472 209 l 1,27,28
 470 147 470 147 499 119 c 128,-1,29
 528 91 528 91 572 91 c 0,30,31
 595 91 595 91 620 102 c 128,-1,32
 645 113 645 113 663 126 c 1,33,-1
 712 40 l 1,34,35
 682 19 682 19 637 3.5 c 128,-1,36
 592 -12 592 -12 534 -12 c 0,37,38
 486 -12 486 -12 449 13.5 c 128,-1,39
 412 39 412 39 392 87 c 1,40,41
 357 39 357 39 310 13.5 c 128,-1,42
 263 -12 263 -12 214 -12 c 0,0,1
237 98 m 0,43,44
 260 98 260 98 281 113.5 c 128,-1,45
 302 129 302 129 318 156 c 128,-1,46
 334 183 334 183 343.5 220 c 128,-1,47
 353 257 353 257 353 301 c 0,48,49
 353 347 353 347 336 372.5 c 128,-1,50
 319 398 319 398 284 398 c 0,51,52
 262 398 262 398 241.5 382.5 c 128,-1,53
 221 367 221 367 204.5 340 c 128,-1,54
 188 313 188 313 178 275.5 c 128,-1,55
 168 238 168 238 168 195 c 0,56,57
 168 150 168 150 185 124 c 128,-1,58
 202 98 202 98 237 98 c 0,43,44
483 293 m 1,59,-1
 652 293 l 1,60,61
 654 301 654 301 655 310 c 128,-1,62
 656 319 656 319 656 330 c 0,63,64
 656 360 656 360 641.5 381.5 c 128,-1,65
 627 403 627 403 590 403 c 0,66,67
 558 403 558 403 528 375.5 c 128,-1,68
 498 348 498 348 483 293 c 1,59,-1
EndSplineSet
EndChar

StartChar: ohorn
Encoding: 417 417 337
Width: 538
GlyphClass: 2
Flags: W
AnchorPoint: "Anchor-3" 200 -22 basechar 0
AnchorPoint: "Anchor-0" 315 518 basechar 0
LayerCount: 2
Fore
SplineSet
222 -12 m 0,0,1
 178 -12 178 -12 143 2.5 c 128,-1,2
 108 17 108 17 82.5 44 c 128,-1,3
 57 71 57 71 43.5 108.5 c 128,-1,4
 30 146 30 146 30 192 c 0,5,6
 30 264 30 264 54 322.5 c 128,-1,7
 78 381 78 381 117.5 422 c 128,-1,8
 157 463 157 463 207 485.5 c 128,-1,9
 257 508 257 508 308 508 c 0,10,11
 361 508 361 508 403 486 c 1,12,13
 438 494 438 494 458.5 524.5 c 128,-1,14
 479 555 479 555 480 594 c 0,15,16
 480 603 480 603 477 617 c 128,-1,17
 474 631 474 631 470 641 c 1,18,-1
 572 673 l 1,19,20
 580 656 580 656 583.5 636.5 c 128,-1,21
 587 617 587 617 587 601 c 0,22,23
 587 540 587 540 553.5 495.5 c 128,-1,24
 520 451 520 451 460 437 c 1,25,26
 479 411 479 411 489.5 377.5 c 128,-1,27
 500 344 500 344 500 304 c 0,28,29
 500 232 500 232 476 173.5 c 128,-1,30
 452 115 452 115 412.5 74 c 128,-1,31
 373 33 373 33 323 10.5 c 128,-1,32
 273 -12 273 -12 222 -12 c 0,0,1
237 98 m 0,33,34
 262 98 262 98 284.5 113.5 c 128,-1,35
 307 129 307 129 324.5 156 c 128,-1,36
 342 183 342 183 352 220 c 128,-1,37
 362 257 362 257 362 301 c 0,38,39
 362 347 362 347 344.5 372.5 c 128,-1,40
 327 398 327 398 292 398 c 0,41,42
 267 398 267 398 244.5 382.5 c 128,-1,43
 222 367 222 367 205 340 c 128,-1,44
 188 313 188 313 178 275.5 c 128,-1,45
 168 238 168 238 168 195 c 0,46,47
 168 150 168 150 185 124 c 128,-1,48
 202 98 202 98 237 98 c 0,33,34
EndSplineSet
EndChar

StartChar: uni1EE1
Encoding: 7905 7905 341
Width: 538
Flags: W
LayerCount: 2
Fore
SplineSet
357 573 m 0,0,1
 334 573 334 573 318 583 c 128,-1,2
 302 593 302 593 288.5 605.5 c 128,-1,3
 275 618 275 618 263 628 c 128,-1,4
 251 638 251 638 236 638 c 0,5,6
 222 638 222 638 211.5 624.5 c 128,-1,7
 201 611 201 611 196 582 c 1,8,-1
 110 587 l 1,9,10
 124 665 124 665 156.5 702 c 128,-1,11
 189 739 189 739 240 739 c 0,12,13
 263 739 263 739 279 729 c 128,-1,14
 295 719 295 719 308.5 707 c 128,-1,15
 322 695 322 695 334 685 c 128,-1,16
 346 675 346 675 361 675 c 0,17,18
 375 675 375 675 385.5 688 c 128,-1,19
 396 701 396 701 401 730 c 1,20,-1
 487 725 l 1,21,22
 473 647 473 647 440 610 c 128,-1,23
 407 573 407 573 357 573 c 0,0,1
222 -12 m 0,24,25
 178 -12 178 -12 143 2.5 c 128,-1,26
 108 17 108 17 82.5 44 c 128,-1,27
 57 71 57 71 43.5 108.5 c 128,-1,28
 30 146 30 146 30 192 c 0,29,30
 30 264 30 264 54 322.5 c 128,-1,31
 78 381 78 381 117.5 422 c 128,-1,32
 157 463 157 463 207 485.5 c 128,-1,33
 257 508 257 508 308 508 c 0,34,35
 361 508 361 508 403 486 c 1,36,37
 438 494 438 494 458.5 524.5 c 128,-1,38
 479 555 479 555 480 594 c 0,39,40
 480 603 480 603 477 617 c 128,-1,41
 474 631 474 631 470 641 c 1,42,-1
 572 673 l 1,43,44
 580 656 580 656 583.5 636.5 c 128,-1,45
 587 617 587 617 587 601 c 0,46,47
 587 540 587 540 553.5 495.5 c 128,-1,48
 520 451 520 451 460 437 c 1,49,50
 479 411 479 411 489.5 377.5 c 128,-1,51
 500 344 500 344 500 304 c 0,52,53
 500 232 500 232 476 173.5 c 128,-1,54
 452 115 452 115 412.5 74 c 128,-1,55
 373 33 373 33 323 10.5 c 128,-1,56
 273 -12 273 -12 222 -12 c 0,24,25
237 98 m 0,57,58
 262 98 262 98 284.5 113.5 c 128,-1,59
 307 129 307 129 324.5 156 c 128,-1,60
 342 183 342 183 352 220 c 128,-1,61
 362 257 362 257 362 301 c 0,62,63
 362 347 362 347 344.5 372.5 c 128,-1,64
 327 398 327 398 292 398 c 0,65,66
 267 398 267 398 244.5 382.5 c 128,-1,67
 222 367 222 367 205 340 c 128,-1,68
 188 313 188 313 178 275.5 c 128,-1,69
 168 238 168 238 168 195 c 0,70,71
 168 150 168 150 185 124 c 128,-1,72
 202 98 202 98 237 98 c 0,57,58
EndSplineSet
EndChar

StartChar: uni01EB
Encoding: 491 491 343
Width: 533
GlyphClass: 2
Flags: W
AnchorPoint: "Anchor-0" 331 518 basechar 0
LayerCount: 2
Fore
SplineSet
186 -210 m 0,0,1
 148 -210 148 -210 124 -191.5 c 128,-1,2
 100 -173 100 -173 100 -137 c 0,3,4
 100 -113 100 -113 110 -91.5 c 128,-1,5
 120 -70 120 -70 133.5 -53 c 128,-1,6
 147 -36 147 -36 160.5 -24 c 128,-1,7
 174 -12 174 -12 182 -7 c 1,8,9
 113 6 113 6 71.5 56.5 c 128,-1,10
 30 107 30 107 30 192 c 0,11,12
 30 264 30 264 54 322.5 c 128,-1,13
 78 381 78 381 117.5 422 c 128,-1,14
 157 463 157 463 207 485.5 c 128,-1,15
 257 508 257 508 308 508 c 0,16,17
 349 508 349 508 384 494.5 c 128,-1,18
 419 481 419 481 445 455 c 128,-1,19
 471 429 471 429 485.5 391 c 128,-1,20
 500 353 500 353 500 304 c 0,21,22
 500 240 500 240 483.5 191 c 128,-1,23
 467 142 467 142 438.5 104.5 c 128,-1,24
 410 67 410 67 372 41 c 128,-1,25
 334 15 334 15 291 -3 c 0,26,27
 242 -23 242 -23 220.5 -50 c 128,-1,28
 199 -77 199 -77 199 -98 c 0,29,30
 199 -112 199 -112 209.5 -120 c 128,-1,31
 220 -128 220 -128 234 -128 c 256,32,33
 248 -128 248 -128 266 -118 c 1,34,-1
 289 -174 l 1,35,36
 268 -189 268 -189 239 -199.5 c 128,-1,37
 210 -210 210 -210 186 -210 c 0,0,1
237 98 m 0,38,39
 262 98 262 98 284.5 113.5 c 128,-1,40
 307 129 307 129 324.5 156 c 128,-1,41
 342 183 342 183 352 220 c 128,-1,42
 362 257 362 257 362 301 c 0,43,44
 362 347 362 347 344.5 372.5 c 128,-1,45
 327 398 327 398 292 398 c 0,46,47
 267 398 267 398 244.5 382.5 c 128,-1,48
 222 367 222 367 205 340 c 128,-1,49
 188 313 188 313 178 275.5 c 128,-1,50
 168 238 168 238 168 195 c 0,51,52
 168 150 168 150 185 124 c 128,-1,53
 202 98 202 98 237 98 c 0,38,39
EndSplineSet
Ligature2: "'ccmp' Glyph Composition/Decomposition in Latin lookup 6 subtable" o uni0328
EndChar

StartChar: germandbls
Encoding: 223 223 357
Width: 609
Flags: W
LayerCount: 2
Fore
SplineSet
374 -12 m 0,0,1
 336 -12 336 -12 298.5 -1.5 c 128,-1,2
 261 9 261 9 227 32 c 1,3,-1
 283 123 l 1,4,5
 303 109 303 109 325 99.5 c 128,-1,6
 347 90 347 90 373 90 c 0,7,8
 400 90 400 90 417 106.5 c 128,-1,9
 434 123 434 123 434 149 c 0,10,11
 434 166 434 166 424 179.5 c 128,-1,12
 414 193 414 193 399 206 c 128,-1,13
 384 219 384 219 366 232 c 128,-1,14
 348 245 348 245 333 261 c 128,-1,15
 318 277 318 277 308 296 c 128,-1,16
 298 315 298 315 298 341 c 0,17,18
 298 375 298 375 316 398.5 c 128,-1,19
 334 422 334 422 355.5 443.5 c 128,-1,20
 377 465 377 465 395 487.5 c 128,-1,21
 413 510 413 510 413 543 c 0,22,23
 413 572 413 572 399.5 588 c 128,-1,24
 386 604 386 604 354 604 c 0,25,26
 333 604 333 604 316 594 c 128,-1,27
 299 584 299 584 285.5 567 c 128,-1,28
 272 550 272 550 262.5 527.5 c 128,-1,29
 253 505 253 505 247 479 c 2,30,-1
 151 0 l 1,31,-1
 14 0 l 1,32,-1
 116 505 l 2,33,34
 125 549 125 549 145 587 c 128,-1,35
 165 625 165 625 195.5 653 c 128,-1,36
 226 681 226 681 267 697 c 128,-1,37
 308 713 308 713 359 713 c 0,38,39
 394 713 394 713 427.5 704 c 128,-1,40
 461 695 461 695 487 677 c 128,-1,41
 513 659 513 659 529 630.5 c 128,-1,42
 545 602 545 602 545 563 c 0,43,44
 545 535 545 535 536.5 513.5 c 128,-1,45
 528 492 528 492 515.5 475 c 128,-1,46
 503 458 503 458 488 444.5 c 128,-1,47
 473 431 473 431 460.5 418 c 128,-1,48
 448 405 448 405 439.5 392.5 c 128,-1,49
 431 380 431 380 431 365 c 256,50,51
 431 350 431 350 440.5 337.5 c 128,-1,52
 450 325 450 325 464.5 312.5 c 128,-1,53
 479 300 479 300 496 286 c 128,-1,54
 513 272 513 272 527.5 254 c 128,-1,55
 542 236 542 236 551.5 214 c 128,-1,56
 561 192 561 192 561 163 c 0,57,58
 561 126 561 126 546.5 94 c 128,-1,59
 532 62 532 62 507 38.5 c 128,-1,60
 482 15 482 15 447.5 1.5 c 128,-1,61
 413 -12 413 -12 374 -12 c 0,0,1
EndSplineSet
EndChar

StartChar: uogonek
Encoding: 371 371 380
Width: 545
GlyphClass: 2
Flags: W
AnchorPoint: "Anchor-0" 328 518 basechar 0
LayerCount: 2
Fore
SplineSet
312 -210 m 0,0,1
 275 -210 275 -210 250.5 -191.5 c 128,-1,2
 226 -173 226 -173 226 -137 c 0,3,4
 226 -113 226 -113 236 -91.5 c 128,-1,5
 246 -70 246 -70 260.5 -52 c 128,-1,6
 275 -34 275 -34 291.5 -20.5 c 128,-1,7
 308 -7 308 -7 320 2 c 1,8,-1
 322 67 l 1,9,-1
 318 67 l 1,10,11
 284 35 284 35 242.5 11.5 c 128,-1,12
 201 -12 201 -12 156 -12 c 0,13,14
 94 -12 94 -12 66.5 20.5 c 128,-1,15
 39 53 39 53 39 116 c 0,16,17
 39 133 39 133 41 150 c 128,-1,18
 43 167 43 167 47 186 c 2,19,-1
 109 496 l 1,20,-1
 245 496 l 1,21,-1
 187 203 l 2,22,23
 183 188 183 188 181 177 c 128,-1,24
 179 166 179 166 179 156 c 0,25,26
 179 105 179 105 229 105 c 0,27,28
 271 105 271 105 328 169 c 1,29,-1
 392 496 l 1,30,-1
 529 496 l 1,31,-1
 431 0 l 1,32,33
 382 -15 382 -15 354 -41 c 128,-1,34
 326 -67 326 -67 326 -98 c 0,35,36
 326 -112 326 -112 336 -120 c 128,-1,37
 346 -128 346 -128 360 -128 c 0,38,39
 375 -128 375 -128 392 -118 c 1,40,-1
 416 -174 l 1,41,42
 395 -189 395 -189 366 -199.5 c 128,-1,43
 337 -210 337 -210 312 -210 c 0,0,1
EndSplineSet
Ligature2: "'ccmp' Glyph Composition/Decomposition in Latin lookup 6 subtable" u uni0328
EndChar

StartChar: uhorn
Encoding: 432 432 381
Width: 567
GlyphClass: 2
Flags: W
AnchorPoint: "Anchor-3" 248 -29 basechar 0
AnchorPoint: "Anchor-0" 328 518 basechar 0
LayerCount: 2
Fore
SplineSet
318 67 m 1,0,1
 284 35 284 35 242.5 11.5 c 128,-1,2
 201 -12 201 -12 156 -12 c 0,3,4
 94 -12 94 -12 66.5 20.5 c 128,-1,5
 39 53 39 53 39 116 c 0,6,7
 39 133 39 133 41 150 c 128,-1,8
 43 167 43 167 47 186 c 2,9,-1
 109 496 l 1,10,-1
 245 496 l 1,11,-1
 187 203 l 2,12,13
 183 188 183 188 181 177 c 128,-1,14
 179 166 179 166 179 156 c 0,15,16
 179 105 179 105 229 105 c 0,17,18
 271 105 271 105 328 169 c 1,19,-1
 392 496 l 1,20,-1
 453 496 l 1,21,22
 487 501 487 501 508.5 528 c 128,-1,23
 530 555 530 555 531 596 c 0,24,25
 531 605 531 605 528.5 619.5 c 128,-1,26
 526 634 526 634 522 643 c 1,27,-1
 624 676 l 1,28,29
 631 659 631 659 634.5 639.5 c 128,-1,30
 638 620 638 620 638 604 c 0,31,32
 638 546 638 546 607.5 505.5 c 128,-1,33
 577 465 577 465 520 448 c 1,34,-1
 431 0 l 1,35,-1
 320 0 l 1,36,-1
 322 67 l 1,37,-1
 318 67 l 1,0,1
EndSplineSet
EndChar

StartChar: eth
Encoding: 240 240 403
Width: 537
Flags: W
LayerCount: 2
Fore
SplineSet
223 -12 m 0,0,1
 184 -12 184 -12 149.5 1.5 c 128,-1,2
 115 15 115 15 89.5 40.5 c 128,-1,3
 64 66 64 66 49 101.5 c 128,-1,4
 34 137 34 137 34 182 c 0,5,6
 34 231 34 231 49 280 c 128,-1,7
 64 329 64 329 93.5 368 c 128,-1,8
 123 407 123 407 165.5 431 c 128,-1,9
 208 455 208 455 263 455 c 0,10,11
 293 455 293 455 320 441.5 c 128,-1,12
 347 428 347 428 364 401 c 1,13,14
 357 482 357 482 318 543 c 1,15,-1
 173 485 l 1,16,-1
 147 550 l 1,17,-1
 271 600 l 1,18,19
 236 633 236 633 191 661 c 1,20,-1
 254 740 l 1,21,22
 291 720 291 720 323.5 696.5 c 128,-1,23
 356 673 356 673 382 644 c 1,24,-1
 527 702 l 1,25,-1
 553 637 l 1,26,-1
 428 587 l 1,27,28
 460 539 460 539 477 481.5 c 128,-1,29
 494 424 494 424 494 356 c 256,30,31
 494 288 494 288 477.5 222 c 128,-1,32
 461 156 461 156 427 104 c 128,-1,33
 393 52 393 52 342.5 20 c 128,-1,34
 292 -12 292 -12 223 -12 c 0,0,1
236 98 m 0,35,36
 263 98 263 98 284.5 113 c 128,-1,37
 306 128 306 128 322.5 155 c 128,-1,38
 339 182 339 182 350 218.5 c 128,-1,39
 361 255 361 255 365 299 c 1,40,41
 351 320 351 320 330 335.5 c 128,-1,42
 309 351 309 351 280 351 c 0,43,44
 250 351 250 351 227 337 c 128,-1,45
 204 323 204 323 188.5 300.5 c 128,-1,46
 173 278 173 278 165 249.5 c 128,-1,47
 157 221 157 221 157 193 c 0,48,49
 157 153 157 153 177 125.5 c 128,-1,50
 197 98 197 98 236 98 c 0,35,36
EndSplineSet
EndChar

StartChar: thorn
Encoding: 254 254 404
Width: 553
GlyphClass: 2
Flags: W
AnchorPoint: "Anchor-3" 241 -22 basechar 0
AnchorPoint: "Anchor-0" 233 730 basechar 0
LayerCount: 2
Fore
SplineSet
-23 -184 m 1,0,-1
 155 701 l 1,1,-1
 292 701 l 1,2,-1
 259 542 l 1,3,-1
 234 449 l 1,4,-1
 236 449 l 1,5,6
 269 476 269 476 306 492 c 128,-1,7
 343 508 343 508 380 508 c 0,8,9
 446 508 446 508 483 461 c 128,-1,10
 520 414 520 414 520 326 c 0,11,12
 520 255 520 255 498 193.5 c 128,-1,13
 476 132 476 132 439 86 c 128,-1,14
 402 40 402 40 354.5 14 c 128,-1,15
 307 -12 307 -12 256 -12 c 0,16,17
 224 -12 224 -12 198 3.5 c 128,-1,18
 172 19 172 19 155 47 c 1,19,-1
 153 47 l 1,20,-1
 139 -50 l 1,21,-1
 114 -184 l 1,22,-1
 -23 -184 l 1,0,-1
246 100 m 0,23,24
 272 100 272 100 296 116 c 128,-1,25
 320 132 320 132 338.5 160 c 128,-1,26
 357 188 357 188 368 226 c 128,-1,27
 379 264 379 264 379 309 c 256,28,29
 379 354 379 354 363 375 c 128,-1,30
 347 396 347 396 321 396 c 0,31,32
 298 396 298 396 269.5 382.5 c 128,-1,33
 241 369 241 369 219 334 c 1,34,-1
 181 146 l 1,35,36
 192 122 192 122 209.5 111 c 128,-1,37
 227 100 227 100 246 100 c 0,23,24
EndSplineSet
EndChar

StartChar: uni0237
Encoding: 567 567 405
Width: 267
GlyphClass: 2
Flags: W
AnchorPoint: "Anchor-0" 191 518 basechar 0
LayerCount: 2
Fore
SplineSet
-35 -196 m 0,0,1
 -61 -196 -61 -196 -84 -191 c 128,-1,2
 -107 -186 -107 -186 -131 -174 c 1,3,-1
 -90 -75 l 1,4,5
 -79 -81 -79 -81 -69 -84.5 c 128,-1,6
 -59 -88 -59 -88 -46 -88 c 0,7,8
 -21 -88 -21 -88 -8.5 -69.5 c 128,-1,9
 4 -51 4 -51 14 -10 c 2,10,-1
 115 496 l 1,11,-1
 252 496 l 1,12,-1
 149 -16 l 2,13,14
 141 -54 141 -54 127 -86.5 c 128,-1,15
 113 -119 113 -119 91 -143.5 c 128,-1,16
 69 -168 69 -168 38 -182 c 128,-1,17
 7 -196 7 -196 -35 -196 c 0,0,1
EndSplineSet
EndChar

StartChar: uni0259
Encoding: 601 601 407
Width: 492
Flags: W
LayerCount: 2
Fore
SplineSet
460 296 m 0,0,1
 460 227 460 227 435.5 170 c 128,-1,2
 411 113 411 113 371.5 72.5 c 128,-1,3
 332 32 332 32 282.5 10 c 128,-1,4
 233 -12 233 -12 184 -12 c 0,5,6
 139 -12 139 -12 108.5 2.5 c 128,-1,7
 78 17 78 17 58.5 42.5 c 128,-1,8
 39 68 39 68 30.5 101.5 c 128,-1,9
 22 135 22 135 22 174 c 0,10,11
 22 205 22 205 30 236 c 128,-1,12
 38 267 38 267 48 286 c 1,13,-1
 330 286 l 1,14,15
 331 348 331 348 305 376.5 c 128,-1,16
 279 405 279 405 239 405 c 0,17,18
 217 405 217 405 191 396 c 128,-1,19
 165 387 165 387 142 375 c 1,20,-1
 102 463 l 1,21,22
 143 484 143 484 184 496 c 128,-1,23
 225 508 225 508 272 508 c 0,24,25
 314 508 314 508 348.5 494.5 c 128,-1,26
 383 481 383 481 407.5 454.5 c 128,-1,27
 432 428 432 428 446 388 c 128,-1,28
 460 348 460 348 460 296 c 0,0,1
201 93 m 0,29,30
 236 93 236 93 269 119 c 128,-1,31
 302 145 302 145 319 202 c 1,32,-1
 139 202 l 1,33,34
 137 193 137 193 135.5 184.5 c 128,-1,35
 134 176 134 176 134 166 c 0,36,37
 134 136 134 136 148.5 114.5 c 128,-1,38
 163 93 163 93 201 93 c 0,29,30
EndSplineSet
Substitution2: "'sups' Superscript in Latin lookup 12 subtable" uni0259.sups
Substitution2: "'aalt' Access All Alternates in Latin lookup 0 subtable" uni0259.sups
EndChar

StartChar: f_f
Encoding: 64256 64256 409
Width: 625
GlyphClass: 3
Flags: W
LayerCount: 2
Fore
SplineSet
337 0 m 1,0,-1
 416 389 l 1,1,-1
 251 389 l 1,2,-1
 173 0 l 1,3,-1
 36 0 l 1,4,-1
 115 389 l 1,5,-1
 51 389 l 1,6,-1
 72 490 l 1,7,-1
 136 495 l 1,8,-1
 141 519 l 2,9,10
 149 557 149 557 164 590.5 c 128,-1,11
 179 624 179 624 202.5 649 c 128,-1,12
 226 674 226 674 259 688.5 c 128,-1,13
 292 703 292 703 335 703 c 0,14,15
 364 703 364 703 391.5 696 c 128,-1,16
 419 689 419 689 443 676 c 1,17,-1
 399 579 l 1,18,19
 390 584 390 584 376.5 589 c 128,-1,20
 363 594 363 594 349 594 c 0,21,22
 320 594 320 594 303 579.5 c 128,-1,23
 286 565 286 565 278 524 c 2,24,-1
 272 496 l 1,25,-1
 437 496 l 1,26,-1
 444 529 l 2,27,28
 451 567 451 567 466 600.5 c 128,-1,29
 481 634 481 634 504.5 659 c 128,-1,30
 528 684 528 684 560.5 698.5 c 128,-1,31
 593 713 593 713 635 713 c 0,32,33
 664 713 664 713 691 706 c 128,-1,34
 718 699 718 699 741 686 c 1,35,-1
 698 589 l 1,36,37
 690 594 690 594 676.5 599 c 128,-1,38
 663 604 663 604 650 604 c 0,39,40
 622 604 622 604 605 589.5 c 128,-1,41
 588 575 588 575 580 534 c 2,42,-1
 572 496 l 1,43,-1
 659 496 l 1,44,-1
 639 389 l 1,45,-1
 551 389 l 1,46,-1
 474 0 l 1,47,-1
 337 0 l 1,0,-1
EndSplineSet
Ligature2: "'liga' Standard Ligatures in Latin lookup 24 subtable" f f
EndChar

StartChar: f_t
Encoding: 65540 -1 410
Width: 650
GlyphClass: 3
Flags: W
LayerCount: 2
Fore
SplineSet
36 0 m 1,0,-1
 115 389 l 1,1,-1
 51 389 l 1,2,-1
 72 490 l 1,3,-1
 136 495 l 1,4,-1
 143 529 l 2,5,6
 150 567 150 567 165 600.5 c 128,-1,7
 180 634 180 634 203.5 659 c 128,-1,8
 227 684 227 684 259.5 698.5 c 128,-1,9
 292 713 292 713 335 713 c 0,10,11
 364 713 364 713 391 706 c 128,-1,12
 418 699 418 699 441 686 c 1,13,-1
 397 589 l 1,14,15
 389 594 389 594 376 599 c 128,-1,16
 363 604 363 604 349 604 c 0,17,18
 322 604 322 604 305 589.5 c 128,-1,19
 288 575 288 575 280 534 c 2,20,-1
 272 496 l 1,21,-1
 423 496 l 1,22,-1
 465 626 l 1,23,-1
 579 626 l 1,24,-1
 555 496 l 1,25,-1
 667 496 l 1,26,-1
 646 389 l 1,27,-1
 531 389 l 1,28,-1
 487 176 l 2,29,30
 485 167 485 167 485 159 c 128,-1,31
 485 151 485 151 485 143 c 0,32,33
 485 95 485 95 537 95 c 0,34,35
 548 95 548 95 557.5 98 c 128,-1,36
 567 101 567 101 577 106 c 1,37,-1
 602 10 l 1,38,39
 582 2 582 2 552.5 -5 c 128,-1,40
 523 -12 523 -12 485 -12 c 0,41,42
 410 -12 410 -12 377.5 25 c 128,-1,43
 345 62 345 62 345 119 c 0,44,45
 345 135 345 135 347 150.5 c 128,-1,46
 349 166 349 166 352 182 c 2,47,-1
 395 389 l 1,48,-1
 251 389 l 1,49,-1
 173 0 l 1,50,-1
 36 0 l 1,0,-1
EndSplineSet
Ligature2: "'liga' Standard Ligatures in Latin lookup 24 subtable" f t
EndChar

StartChar: I.a
Encoding: 65541 -1 411
Width: 294
GlyphClass: 2
Flags: W
LayerCount: 2
Fore
SplineSet
28 0 m 1,0,-1
 159 652 l 1,1,-1
 296 652 l 1,2,-1
 166 0 l 1,3,-1
 28 0 l 1,0,-1
EndSplineSet
EndChar

StartChar: Iogonek.a
Encoding: 65552 -1 422
Width: 294
GlyphClass: 2
Flags: W
AnchorPoint: "Anchor-1" 232 682 basechar 0
LayerCount: 2
Fore
SplineSet
57 -222 m 0,0,1
 15 -222 15 -222 -10 -202 c 128,-1,2
 -35 -182 -35 -182 -35 -145 c 0,3,4
 -35 -120 -35 -120 -24.5 -97 c 128,-1,5
 -14 -74 -14 -74 1 -55 c 128,-1,6
 16 -36 16 -36 32 -22 c 128,-1,7
 48 -8 48 -8 60 0 c 1,8,-1
 28 0 l 1,9,-1
 159 652 l 1,10,-1
 296 652 l 1,11,-1
 166 0 l 1,12,13
 118 -18 118 -18 95 -48 c 128,-1,14
 72 -78 72 -78 72 -101 c 0,15,16
 72 -117 72 -117 82.5 -125 c 128,-1,17
 93 -133 93 -133 107 -133 c 0,18,19
 113 -133 113 -133 119.5 -131 c 128,-1,20
 126 -129 126 -129 134 -124 c 1,21,-1
 160 -190 l 1,22,23
 140 -204 140 -204 110.5 -213 c 128,-1,24
 81 -222 81 -222 57 -222 c 0,0,1
EndSplineSet
EndChar

StartChar: a.a
Encoding: 65553 -1 423
Width: 514
GlyphClass: 2
Flags: W
AnchorPoint: "Anchor-5" 316 0 basechar 0
AnchorPoint: "Anchor-3" 222 -22 basechar 0
AnchorPoint: "Anchor-0" 310 518 basechar 0
LayerCount: 2
Fore
SplineSet
22 112 m 0,0,1
 22 166 22 166 45.5 203.5 c 128,-1,2
 69 241 69 241 110.5 264 c 128,-1,3
 152 287 152 287 207.5 297.5 c 128,-1,4
 263 308 263 308 327 310 c 1,5,6
 329 318 329 318 329.5 323 c 128,-1,7
 330 328 330 328 330 333 c 0,8,9
 330 371 330 371 312.5 386 c 128,-1,10
 295 401 295 401 264 401 c 0,11,12
 232 401 232 401 204.5 391.5 c 128,-1,13
 177 382 177 382 141 363 c 1,14,-1
 99 458 l 1,15,16
 144 480 144 480 194 494 c 128,-1,17
 244 508 244 508 294 508 c 0,18,19
 375 508 375 508 420 468.5 c 128,-1,20
 465 429 465 429 465 346 c 0,21,22
 465 330 465 330 463.5 312 c 128,-1,23
 462 294 462 294 457 275 c 2,24,-1
 402 0 l 1,25,-1
 292 0 l 1,26,-1
 291 50 l 1,27,-1
 287 50 l 1,28,29
 261 25 261 25 223 6.5 c 128,-1,30
 185 -12 185 -12 146 -12 c 0,31,32
 120 -12 120 -12 97.5 -3.5 c 128,-1,33
 75 5 75 5 58.5 21.5 c 128,-1,34
 42 38 42 38 32 60.5 c 128,-1,35
 22 83 22 83 22 112 c 0,0,1
311 227 m 1,36,37
 230 225 230 225 192.5 201 c 128,-1,38
 155 177 155 177 155 139 c 0,39,40
 155 117 155 117 170.5 105 c 128,-1,41
 186 93 186 93 210 93 c 0,42,43
 232 93 232 93 251.5 104.5 c 128,-1,44
 271 116 271 116 292 135 c 1,45,-1
 311 227 l 1,36,37
EndSplineSet
EndChar

StartChar: aogonek.a
Encoding: 65575 -1 445
Width: 514
GlyphClass: 2
Flags: W
AnchorPoint: "Anchor-0" 310 518 basechar 0
LayerCount: 2
Fore
SplineSet
292 2 m 1,0,-1
 291 50 l 1,1,-1
 287 50 l 1,2,3
 261 25 261 25 223 6.5 c 128,-1,4
 185 -12 185 -12 146 -12 c 0,5,6
 120 -12 120 -12 97.5 -3.5 c 128,-1,7
 75 5 75 5 58.5 21.5 c 128,-1,8
 42 38 42 38 32 60.5 c 128,-1,9
 22 83 22 83 22 112 c 0,10,11
 22 166 22 166 45.5 203.5 c 128,-1,12
 69 241 69 241 110.5 264 c 128,-1,13
 152 287 152 287 207.5 297.5 c 128,-1,14
 263 308 263 308 327 310 c 1,15,16
 329 318 329 318 329.5 323 c 128,-1,17
 330 328 330 328 330 333 c 0,18,19
 330 371 330 371 312.5 386 c 128,-1,20
 295 401 295 401 264 401 c 0,21,22
 232 401 232 401 204.5 391.5 c 128,-1,23
 177 382 177 382 141 363 c 1,24,-1
 99 458 l 1,25,26
 144 480 144 480 194 494 c 128,-1,27
 244 508 244 508 294 508 c 0,28,29
 375 508 375 508 420 468.5 c 128,-1,30
 465 429 465 429 465 346 c 0,31,32
 465 330 465 330 463.5 312 c 128,-1,33
 462 294 462 294 457 275 c 2,34,-1
 402 0 l 1,35,36
 353 -15 353 -15 325 -41 c 128,-1,37
 297 -67 297 -67 297 -98 c 0,38,39
 297 -112 297 -112 307 -120 c 128,-1,40
 317 -128 317 -128 331 -128 c 0,41,42
 346 -128 346 -128 363 -118 c 1,43,-1
 387 -174 l 1,44,45
 366 -189 366 -189 337 -199.5 c 128,-1,46
 308 -210 308 -210 283 -210 c 0,47,48
 246 -210 246 -210 221.5 -191.5 c 128,-1,49
 197 -173 197 -173 197 -137 c 0,50,51
 197 -113 197 -113 207 -91.5 c 128,-1,52
 217 -70 217 -70 231.5 -52 c 128,-1,53
 246 -34 246 -34 262.5 -20.5 c 128,-1,54
 279 -7 279 -7 292 2 c 1,0,-1
311 227 m 1,55,56
 230 225 230 225 192.5 201 c 128,-1,57
 155 177 155 177 155 139 c 0,58,59
 155 117 155 117 170.5 105 c 128,-1,60
 186 93 186 93 210 93 c 0,61,62
 232 93 232 93 251.5 104.5 c 128,-1,63
 271 116 271 116 292 135 c 1,64,-1
 311 227 l 1,55,56
EndSplineSet
EndChar

StartChar: g.a
Encoding: 65576 -1 446
Width: 502
GlyphClass: 2
Flags: W
AnchorPoint: "Anchor-3" 156 -230 basechar 0
AnchorPoint: "Anchor-0" 291 518 basechar 0
LayerCount: 2
Fore
SplineSet
171 -211 m 0,0,1
 142 -211 142 -211 107.5 -206.5 c 128,-1,2
 73 -202 73 -202 43.5 -189.5 c 128,-1,3
 14 -177 14 -177 -6 -154 c 128,-1,4
 -26 -131 -26 -131 -26 -93 c 0,5,6
 -26 -50 -26 -50 4.5 -21.5 c 128,-1,7
 35 7 35 7 78 26 c 1,8,-1
 78 29 l 1,9,10
 65 41 65 41 57.5 58 c 128,-1,11
 50 75 50 75 50 96 c 0,12,13
 50 126 50 126 69.5 151 c 128,-1,14
 89 176 89 176 120 192 c 1,15,-1
 120 196 l 1,16,17
 95 218 95 218 80 245.5 c 128,-1,18
 65 273 65 273 65 310 c 0,19,20
 65 353 65 353 82 389 c 128,-1,21
 99 425 99 425 128 451.5 c 128,-1,22
 157 478 157 478 196 493 c 128,-1,23
 235 508 235 508 279 508 c 0,24,25
 299 508 299 508 315 505 c 128,-1,26
 331 502 331 502 347 496 c 1,27,-1
 530 496 l 1,28,-1
 511 394 l 1,29,-1
 437 394 l 1,30,31
 442 383 442 383 444 370.5 c 128,-1,32
 446 358 446 358 446 346 c 0,33,34
 446 303 446 303 430 268 c 128,-1,35
 414 233 414 233 385.5 208.5 c 128,-1,36
 357 184 357 184 317.5 170.5 c 128,-1,37
 278 157 278 157 231 157 c 0,38,39
 202 157 202 157 184 162 c 1,40,41
 176 157 176 157 169 146.5 c 128,-1,42
 162 136 162 136 162 125 c 0,43,44
 162 116 162 116 165 109 c 128,-1,45
 168 102 168 102 176.5 97.5 c 128,-1,46
 185 93 185 93 201 89.5 c 128,-1,47
 217 86 217 86 243 83 c 0,48,49
 297 76 297 76 333 66 c 128,-1,50
 369 56 369 56 390 41.5 c 128,-1,51
 411 27 411 27 419.5 8.5 c 128,-1,52
 428 -10 428 -10 428 -34 c 0,53,54
 428 -79 428 -79 405.5 -112 c 128,-1,55
 383 -145 383 -145 346 -167 c 128,-1,56
 309 -189 309 -189 263 -200 c 128,-1,57
 217 -211 217 -211 171 -211 c 0,0,1
245 241 m 0,58,59
 264 241 264 241 279.5 250 c 128,-1,60
 295 259 295 259 306.5 274 c 128,-1,61
 318 289 318 289 324 308 c 128,-1,62
 330 327 330 327 330 347 c 0,63,64
 330 379 330 379 315 397 c 128,-1,65
 300 415 300 415 275 415 c 0,66,67
 256 415 256 415 240.5 405.5 c 128,-1,68
 225 396 225 396 214 381 c 128,-1,69
 203 366 203 366 197 346.5 c 128,-1,70
 191 327 191 327 191 308 c 0,71,72
 191 276 191 276 205.5 258.5 c 128,-1,73
 220 241 220 241 245 241 c 0,58,59
184 -126 m 0,74,75
 232 -126 232 -126 262.5 -110 c 128,-1,76
 293 -94 293 -94 293 -68 c 0,77,78
 293 -44 293 -44 266.5 -33.5 c 128,-1,79
 240 -23 240 -23 202 -18 c 0,80,81
 191 -16 191 -16 176 -13.5 c 128,-1,82
 161 -11 161 -11 144 -6 c 1,83,84
 125 -17 125 -17 108 -33 c 128,-1,85
 91 -49 91 -49 91 -69 c 0,86,87
 91 -126 91 -126 184 -126 c 0,74,75
EndSplineSet
EndChar

StartChar: l.a
Encoding: 65584 -1 454
Width: 265
GlyphClass: 2
Flags: W
AnchorPoint: "Anchor-3" 85 -22 basechar 0
AnchorPoint: "Anchor-0" 234 730 basechar 0
LayerCount: 2
Fore
SplineSet
14 0 m 1,0,-1
 155 701 l 1,1,-1
 292 701 l 1,2,-1
 151 0 l 1,3,-1
 14 0 l 1,0,-1
EndSplineSet
EndChar

StartChar: lslash.a
Encoding: 65592 -1 462
Width: 284
Flags: W
LayerCount: 2
Fore
SplineSet
33 262 m 1,0,-1
 1 343 l 1,1,-1
 104 396 l 1,2,-1
 165 701 l 1,3,-1
 302 701 l 1,4,-1
 254 464 l 1,5,-1
 308 495 l 1,6,-1
 341 413 l 1,7,-1
 233 356 l 1,8,-1
 161 0 l 1,9,-1
 24 0 l 1,10,-1
 82 288 l 1,11,-1
 33 262 l 1,0,-1
EndSplineSet
EndChar

StartChar: ampersand
Encoding: 38 38 463
Width: 633
Flags: W
LayerCount: 2
Fore
SplineSet
200 -12 m 0,0,1
 112 -12 112 -12 63 33 c 128,-1,2
 14 78 14 78 14 150 c 0,3,4
 14 190 14 190 26.5 221.5 c 128,-1,5
 39 253 39 253 60 278 c 128,-1,6
 81 303 81 303 108 323 c 128,-1,7
 135 343 135 343 165 360 c 1,8,9
 156 388 156 388 151 415.5 c 128,-1,10
 146 443 146 443 146 469 c 0,11,12
 146 509 146 509 161.5 544.5 c 128,-1,13
 177 580 177 580 204 606.5 c 128,-1,14
 231 633 231 633 267 648.5 c 128,-1,15
 303 664 303 664 344 664 c 0,16,17
 410 664 410 664 444 628.5 c 128,-1,18
 478 593 478 593 478 533 c 0,19,20
 478 496 478 496 463 466 c 128,-1,21
 448 436 448 436 424 411.5 c 128,-1,22
 400 387 400 387 369.5 366 c 128,-1,23
 339 345 339 345 307 326 c 1,24,25
 327 291 327 291 354 258.5 c 128,-1,26
 381 226 381 226 411 198 c 1,27,28
 444 236 444 236 469 277.5 c 128,-1,29
 494 319 494 319 514 367 c 1,30,-1
 638 367 l 1,31,32
 609 305 609 305 573.5 247 c 128,-1,33
 538 189 538 189 491 137 c 1,34,35
 517 121 517 121 542 111 c 128,-1,36
 567 101 567 101 587 96 c 1,37,-1
 533 -12 l 1,38,39
 499 -4 499 -4 464.5 11.5 c 128,-1,40
 430 27 430 27 397 50 c 1,41,42
 354 20 354 20 305 4 c 128,-1,43
 256 -12 256 -12 200 -12 c 0,0,1
260 473 m 0,44,45
 260 446 260 446 268 414 c 1,46,47
 312 438 312 438 342 465.5 c 128,-1,48
 372 493 372 493 372 534 c 0,49,50
 372 552 372 552 363 562.5 c 128,-1,51
 354 573 354 573 336 573 c 0,52,53
 306 573 306 573 283 546.5 c 128,-1,54
 260 520 260 520 260 473 c 0,44,45
224 91 m 0,55,56
 271 91 271 91 318 117 c 1,57,58
 286 149 286 149 258.5 186 c 128,-1,59
 231 223 231 223 209 263 c 1,60,61
 181 241 181 241 164 217.5 c 128,-1,62
 147 194 147 194 147 165 c 0,63,64
 147 133 147 133 167.5 112 c 128,-1,65
 188 91 188 91 224 91 c 0,55,56
EndSplineSet
EndChar

StartChar: zero
Encoding: 48 48 464
Width: 509
Flags: W
LayerCount: 2
Fore
SplineSet
217 -12 m 0,0,1
 178 -12 178 -12 145.5 2.5 c 128,-1,2
 113 17 113 17 89 45.5 c 128,-1,3
 65 74 65 74 51.5 117 c 128,-1,4
 38 160 38 160 38 216 c 0,5,6
 38 321 38 321 62.5 401.5 c 128,-1,7
 87 482 87 482 126.5 536.5 c 128,-1,8
 166 591 166 591 216 619 c 128,-1,9
 266 647 266 647 317 647 c 0,10,11
 356 647 356 647 388.5 632.5 c 128,-1,12
 421 618 421 618 444.5 589 c 128,-1,13
 468 560 468 560 481.5 517 c 128,-1,14
 495 474 495 474 495 417 c 0,15,16
 495 312 495 312 470.5 231.5 c 128,-1,17
 446 151 446 151 407 97 c 128,-1,18
 368 43 368 43 318 15.5 c 128,-1,19
 268 -12 268 -12 217 -12 c 0,0,1
226 93 m 0,20,21
 253 93 253 93 279 119.5 c 128,-1,22
 305 146 305 146 325 192 c 128,-1,23
 345 238 345 238 357.5 299.5 c 128,-1,24
 370 361 370 361 370 431 c 0,25,26
 370 490 370 490 354 516 c 128,-1,27
 338 542 338 542 309 542 c 0,28,29
 282 542 282 542 256 515 c 128,-1,30
 230 488 230 488 210 442 c 128,-1,31
 190 396 190 396 177.5 334 c 128,-1,32
 165 272 165 272 165 202 c 0,33,34
 165 143 165 143 181 118 c 128,-1,35
 197 93 197 93 226 93 c 0,20,21
EndSplineSet
Substitution2: "'zero' Slashed Zero in Latin lookup 18 subtable" zero.0
Substitution2: "'ss05' Style Set 5 in Latin lookup 17 subtable" zero.0s
Substitution2: "'onum' Oldstyle Figures in Latin lookup 16 subtable" zero.tnum
Substitution2: "'pnum' Proportional Numbers in Latin lookup 15 subtable" zero.pnum
Substitution2: "'subs' Subscript in Latin lookup 14 subtable" zero.subs
Substitution2: "'sups' Superscript in Latin lookup 13 subtable" zero.sups
Substitution2: "'dnom' Denominators in Latin lookup 9 subtable" zero.dnom
Substitution2: "'numr' Numerators in Latin lookup 8 subtable" zero.numr
AlternateSubs2: "'aalt' Access All Alternates in Latin lookup 1 subtable" zero.numr zero.dnom zero.sups zero.subs zero.pnum zero.tnum
EndChar

StartChar: one
Encoding: 49 49 465
Width: 509
Flags: W
LayerCount: 2
Fore
SplineSet
19 0 m 1,0,-1
 41 110 l 1,1,-1
 172 110 l 1,2,-1
 250 493 l 1,3,-1
 134 493 l 1,4,-1
 151 579 l 1,5,6
 204 587 204 587 241 600.5 c 128,-1,7
 278 614 278 614 313 635 c 1,8,-1
 415 635 l 1,9,-1
 309 110 l 1,10,-1
 426 110 l 1,11,-1
 404 0 l 1,12,-1
 19 0 l 1,0,-1
EndSplineSet
Substitution2: "'onum' Oldstyle Figures in Latin lookup 16 subtable" one.tnum
Substitution2: "'pnum' Proportional Numbers in Latin lookup 15 subtable" one.pnum
Substitution2: "'subs' Subscript in Latin lookup 14 subtable" one.subs
Substitution2: "'sups' Superscript in Latin lookup 13 subtable" one.sups
Substitution2: "'dnom' Denominators in Latin lookup 9 subtable" one.dnom
Substitution2: "'numr' Numerators in Latin lookup 8 subtable" one.numr
AlternateSubs2: "'aalt' Access All Alternates in Latin lookup 1 subtable" one.numr one.dnom one.sups one.subs one.pnum one.tnum
EndChar

StartChar: two
Encoding: 50 50 466
Width: 509
Flags: W
LayerCount: 2
Fore
SplineSet
-13 0 m 1,0,-1
 2 78 l 1,1,2
 80 142 80 142 143.5 194 c 128,-1,3
 207 246 207 246 252 292 c 128,-1,4
 297 338 297 338 321.5 379 c 128,-1,5
 346 420 346 420 346 462 c 0,6,7
 346 496 346 496 326.5 517.5 c 128,-1,8
 307 539 307 539 269 539 c 0,9,10
 242 539 242 539 217.5 525 c 128,-1,11
 193 511 193 511 165 488 c 1,12,-1
 99 567 l 1,13,14
 145 606 145 606 191.5 626.5 c 128,-1,15
 238 647 238 647 286 647 c 0,16,17
 377 647 377 647 428 600 c 128,-1,18
 479 553 479 553 479 476 c 0,19,20
 479 428 479 428 460.5 385.5 c 128,-1,21
 442 343 442 343 408 300.5 c 128,-1,22
 374 258 374 258 326 213 c 128,-1,23
 278 168 278 168 220 115 c 1,24,-1
 435 115 l 1,25,-1
 413 0 l 1,26,-1
 -13 0 l 1,0,-1
EndSplineSet
Substitution2: "'onum' Oldstyle Figures in Latin lookup 16 subtable" two.tnum
Substitution2: "'pnum' Proportional Numbers in Latin lookup 15 subtable" two.pnum
Substitution2: "'subs' Subscript in Latin lookup 14 subtable" two.subs
Substitution2: "'sups' Superscript in Latin lookup 13 subtable" two.sups
Substitution2: "'dnom' Denominators in Latin lookup 9 subtable" two.dnom
Substitution2: "'numr' Numerators in Latin lookup 8 subtable" two.numr
AlternateSubs2: "'aalt' Access All Alternates in Latin lookup 1 subtable" two.numr two.dnom two.sups two.subs two.pnum two.tnum
EndChar

StartChar: three
Encoding: 51 51 467
Width: 509
Flags: W
LayerCount: 2
Fore
SplineSet
202 -12 m 0,0,1
 142 -12 142 -12 84 15.5 c 128,-1,2
 26 43 26 43 -16 102 c 1,3,-1
 71 173 l 1,4,5
 96 138 96 138 130.5 118 c 128,-1,6
 165 98 165 98 199 98 c 0,7,8
 251 98 251 98 281.5 121.5 c 128,-1,9
 312 145 312 145 312 187 c 0,10,11
 312 208 312 208 305 224.5 c 128,-1,12
 298 241 298 241 280 252.5 c 128,-1,13
 262 264 262 264 231.5 270 c 128,-1,14
 201 276 201 276 155 276 c 1,15,-1
 174 373 l 1,16,17
 224 373 224 373 257 381 c 128,-1,18
 290 389 290 389 309.5 402.5 c 128,-1,19
 329 416 329 416 337 433.5 c 128,-1,20
 345 451 345 451 345 471 c 0,21,22
 345 502 345 502 325 520.5 c 128,-1,23
 305 539 305 539 268 539 c 0,24,25
 245 539 245 539 220.5 528.5 c 128,-1,26
 196 518 196 518 167 498 c 1,27,-1
 101 586 l 1,28,29
 149 620 149 620 196 633.5 c 128,-1,30
 243 647 243 647 293 647 c 0,31,32
 336 647 336 647 371.5 636 c 128,-1,33
 407 625 407 625 432 605 c 128,-1,34
 457 585 457 585 471 556.5 c 128,-1,35
 485 528 485 528 485 494 c 0,36,37
 485 434 485 434 454.5 391.5 c 128,-1,38
 424 349 424 349 349 324 c 1,39,-1
 349 320 l 1,40,41
 400 300 400 300 424.5 265 c 128,-1,42
 449 230 449 230 449 186 c 0,43,44
 449 138 449 138 430 101 c 128,-1,45
 411 64 411 64 378 39 c 128,-1,46
 345 14 345 14 299.5 1 c 128,-1,47
 254 -12 254 -12 202 -12 c 0,0,1
EndSplineSet
Substitution2: "'onum' Oldstyle Figures in Latin lookup 16 subtable" three.tnum
Substitution2: "'pnum' Proportional Numbers in Latin lookup 15 subtable" three.pnum
Substitution2: "'subs' Subscript in Latin lookup 14 subtable" three.subs
Substitution2: "'sups' Superscript in Latin lookup 13 subtable" three.sups
Substitution2: "'dnom' Denominators in Latin lookup 9 subtable" three.dnom
Substitution2: "'numr' Numerators in Latin lookup 8 subtable" three.numr
AlternateSubs2: "'aalt' Access All Alternates in Latin lookup 1 subtable" three.numr three.dnom three.sups three.subs three.pnum three.tnum
EndChar

StartChar: four
Encoding: 52 52 468
Width: 509
Flags: W
LayerCount: 2
Fore
SplineSet
365 0 m 1,0,-1
 240 0 l 1,1,-1
 271 154 l 1,2,-1
 8 154 l 1,3,-1
 26 250 l 1,4,-1
 328 635 l 1,5,-1
 491 635 l 1,6,-1
 416 260 l 1,7,-1
 489 260 l 1,8,-1
 469 154 l 1,9,-1
 396 154 l 1,10,-1
 365 0 l 1,0,-1
161 260 m 1,11,-1
 291 260 l 1,12,-1
 314 374 l 2,13,14
 321 408 321 408 330 444 c 128,-1,15
 339 480 339 480 347 515 c 1,16,-1
 343 515 l 1,17,18
 324 486 324 486 306.5 456 c 128,-1,19
 289 426 289 426 270 399 c 2,20,-1
 161 260 l 1,11,-1
EndSplineSet
Substitution2: "'onum' Oldstyle Figures in Latin lookup 16 subtable" four.tnum
Substitution2: "'pnum' Proportional Numbers in Latin lookup 15 subtable" four.pnum
Substitution2: "'subs' Subscript in Latin lookup 14 subtable" four.subs
Substitution2: "'sups' Superscript in Latin lookup 13 subtable" four.sups
Substitution2: "'dnom' Denominators in Latin lookup 9 subtable" four.dnom
Substitution2: "'numr' Numerators in Latin lookup 8 subtable" four.numr
AlternateSubs2: "'aalt' Access All Alternates in Latin lookup 1 subtable" four.numr four.dnom four.sups four.subs four.pnum four.tnum
EndChar

StartChar: five
Encoding: 53 53 469
Width: 509
Flags: W
LayerCount: 2
Fore
SplineSet
201 -12 m 0,0,1
 141 -12 141 -12 88 15 c 128,-1,2
 35 42 35 42 -7 102 c 1,3,-1
 79 172 l 1,4,5
 104 138 104 138 134.5 118 c 128,-1,6
 165 98 165 98 204 98 c 0,7,8
 227 98 227 98 248 106 c 128,-1,9
 269 114 269 114 284.5 129.5 c 128,-1,10
 300 145 300 145 309.5 167.5 c 128,-1,11
 319 190 319 190 319 218 c 0,12,13
 319 263 319 263 296 284.5 c 128,-1,14
 273 306 273 306 232 306 c 0,15,16
 220 306 220 306 210 305 c 128,-1,17
 200 304 200 304 189.5 300.5 c 128,-1,18
 179 297 179 297 167 291.5 c 128,-1,19
 155 286 155 286 139 277 c 1,20,-1
 88 319 l 1,21,-1
 166 635 l 1,22,-1
 508 635 l 1,23,-1
 485 520 l 1,24,-1
 262 520 l 1,25,-1
 227 395 l 1,26,27
 256 408 256 408 288 408 c 0,28,29
 324 408 324 408 355 397.5 c 128,-1,30
 386 387 386 387 408.5 366 c 128,-1,31
 431 345 431 345 444 313.5 c 128,-1,32
 457 282 457 282 457 240 c 0,33,34
 457 181 457 181 435.5 134.5 c 128,-1,35
 414 88 414 88 378 55.5 c 128,-1,36
 342 23 342 23 296 5.5 c 128,-1,37
 250 -12 250 -12 201 -12 c 0,0,1
EndSplineSet
Substitution2: "'onum' Oldstyle Figures in Latin lookup 16 subtable" five.tnum
Substitution2: "'pnum' Proportional Numbers in Latin lookup 15 subtable" five.pnum
Substitution2: "'subs' Subscript in Latin lookup 14 subtable" five.subs
Substitution2: "'sups' Superscript in Latin lookup 13 subtable" five.sups
Substitution2: "'dnom' Denominators in Latin lookup 9 subtable" five.dnom
Substitution2: "'numr' Numerators in Latin lookup 8 subtable" five.numr
AlternateSubs2: "'aalt' Access All Alternates in Latin lookup 1 subtable" five.numr five.dnom five.sups five.subs five.pnum five.tnum
EndChar

StartChar: six
Encoding: 54 54 470
Width: 509
Flags: W
LayerCount: 2
Fore
SplineSet
248 -12 m 0,0,1
 203 -12 203 -12 166 4.5 c 128,-1,2
 129 21 129 21 103.5 51 c 128,-1,3
 78 81 78 81 64 122.5 c 128,-1,4
 50 164 50 164 50 214 c 0,5,6
 50 311 50 311 74 391 c 128,-1,7
 98 471 98 471 140.5 528 c 128,-1,8
 183 585 183 585 241.5 616 c 128,-1,9
 300 647 300 647 369 647 c 0,10,11
 399 647 399 647 423 639 c 128,-1,12
 447 631 447 631 466.5 618 c 128,-1,13
 486 605 486 605 500.5 590 c 128,-1,14
 515 575 515 575 526 560 c 1,15,-1
 439 487 l 1,16,17
 425 510 425 510 406 523.5 c 128,-1,18
 387 537 387 537 360 537 c 0,19,20
 303 537 303 537 256 486.5 c 128,-1,21
 209 436 209 436 189 336 c 1,22,23
 216 365 216 365 252 380.5 c 128,-1,24
 288 396 288 396 314 396 c 0,25,26
 348 396 348 396 377 386 c 128,-1,27
 406 376 406 376 427 355.5 c 128,-1,28
 448 335 448 335 460 303.5 c 128,-1,29
 472 272 472 272 472 230 c 0,30,31
 472 184 472 184 455.5 140.5 c 128,-1,32
 439 97 439 97 409 63 c 128,-1,33
 379 29 379 29 338 8.5 c 128,-1,34
 297 -12 297 -12 248 -12 c 0,0,1
255 90 m 0,35,36
 277 90 277 90 294 102 c 128,-1,37
 311 114 311 114 322.5 132.5 c 128,-1,38
 334 151 334 151 340 174 c 128,-1,39
 346 197 346 197 346 218 c 0,40,41
 346 258 346 258 328.5 280 c 128,-1,42
 311 302 311 302 278 302 c 0,43,44
 258 302 258 302 232.5 289 c 128,-1,45
 207 276 207 276 178 240 c 1,46,47
 177 230 177 230 177 220.5 c 128,-1,48
 177 211 177 211 177 201 c 0,49,50
 177 147 177 147 198.5 118.5 c 128,-1,51
 220 90 220 90 255 90 c 0,35,36
EndSplineSet
Substitution2: "'onum' Oldstyle Figures in Latin lookup 16 subtable" six.tnum
Substitution2: "'pnum' Proportional Numbers in Latin lookup 15 subtable" six.pnum
Substitution2: "'subs' Subscript in Latin lookup 14 subtable" six.subs
Substitution2: "'sups' Superscript in Latin lookup 13 subtable" six.sups
Substitution2: "'dnom' Denominators in Latin lookup 9 subtable" six.dnom
Substitution2: "'numr' Numerators in Latin lookup 8 subtable" six.numr
AlternateSubs2: "'aalt' Access All Alternates in Latin lookup 1 subtable" six.numr six.dnom six.sups six.subs six.pnum six.tnum
EndChar

StartChar: seven
Encoding: 55 55 471
Width: 509
Flags: W
LayerCount: 2
Fore
SplineSet
100 0 m 1,0,1
 122 83 122 83 147.5 155.5 c 128,-1,2
 173 228 173 228 205.5 292.5 c 128,-1,3
 238 357 238 357 277.5 413.5 c 128,-1,4
 317 470 317 470 368 520 c 1,5,-1
 99 520 l 1,6,-1
 122 635 l 1,7,-1
 543 635 l 1,8,-1
 526 549 l 1,9,10
 454 483 454 483 406.5 415 c 128,-1,11
 359 347 359 347 327 278 c 128,-1,12
 295 209 295 209 275.5 139.5 c 128,-1,13
 256 70 256 70 241 0 c 1,14,-1
 100 0 l 1,0,1
EndSplineSet
Substitution2: "'onum' Oldstyle Figures in Latin lookup 16 subtable" seven.tnum
Substitution2: "'pnum' Proportional Numbers in Latin lookup 15 subtable" seven.pnum
Substitution2: "'subs' Subscript in Latin lookup 14 subtable" seven.subs
Substitution2: "'sups' Superscript in Latin lookup 13 subtable" seven.sups
Substitution2: "'dnom' Denominators in Latin lookup 9 subtable" seven.dnom
Substitution2: "'numr' Numerators in Latin lookup 8 subtable" seven.numr
AlternateSubs2: "'aalt' Access All Alternates in Latin lookup 1 subtable" seven.numr seven.dnom seven.sups seven.subs seven.pnum seven.tnum
EndChar

StartChar: eight
Encoding: 56 56 472
Width: 509
Flags: W
LayerCount: 2
Fore
SplineSet
233 -12 m 0,0,1
 199 -12 199 -12 164.5 -2.5 c 128,-1,2
 130 7 130 7 101.5 27 c 128,-1,3
 73 47 73 47 55 78.5 c 128,-1,4
 37 110 37 110 37 154 c 0,5,6
 37 187 37 187 48 214.5 c 128,-1,7
 59 242 59 242 77.5 264.5 c 128,-1,8
 96 287 96 287 121 304 c 128,-1,9
 146 321 146 321 174 332 c 1,10,-1
 174 336 l 1,11,12
 147 364 147 364 133 395.5 c 128,-1,13
 119 427 119 427 119 465 c 0,14,15
 119 507 119 507 135.5 541 c 128,-1,16
 152 575 152 575 180.5 598.5 c 128,-1,17
 209 622 209 622 246 634.5 c 128,-1,18
 283 647 283 647 325 647 c 0,19,20
 357 647 357 647 388 638.5 c 128,-1,21
 419 630 419 630 443.5 611.5 c 128,-1,22
 468 593 468 593 483 565 c 128,-1,23
 498 537 498 537 498 498 c 0,24,25
 498 438 498 438 467 396 c 128,-1,26
 436 354 436 354 384 326 c 1,27,-1
 384 322 l 1,28,29
 418 299 418 299 440.5 262.5 c 128,-1,30
 463 226 463 226 463 177 c 0,31,32
 463 133 463 133 444.5 98.5 c 128,-1,33
 426 64 426 64 394.5 39 c 128,-1,34
 363 14 363 14 321 1 c 128,-1,35
 279 -12 279 -12 233 -12 c 0,0,1
322 365 m 1,36,37
 345 385 345 385 363 412.5 c 128,-1,38
 381 440 381 440 381 478 c 0,39,40
 381 510 381 510 365 530 c 128,-1,41
 349 550 349 550 315 550 c 0,42,43
 284 550 284 550 261.5 529 c 128,-1,44
 239 508 239 508 239 470 c 0,45,46
 239 434 239 434 260 410.5 c 128,-1,47
 281 387 281 387 322 365 c 1,36,37
243 83 m 0,48,49
 261 83 261 83 278.5 89 c 128,-1,50
 296 95 296 95 309 106.5 c 128,-1,51
 322 118 322 118 330 135.5 c 128,-1,52
 338 153 338 153 338 176 c 0,53,54
 338 214 338 214 308 239 c 128,-1,55
 278 264 278 264 230 291 c 1,56,57
 200 270 200 270 179.5 240 c 128,-1,58
 159 210 159 210 159 169 c 0,59,60
 159 133 159 133 181 108 c 128,-1,61
 203 83 203 83 243 83 c 0,48,49
EndSplineSet
Substitution2: "'onum' Oldstyle Figures in Latin lookup 16 subtable" eight.tnum
Substitution2: "'pnum' Proportional Numbers in Latin lookup 15 subtable" eight.pnum
Substitution2: "'subs' Subscript in Latin lookup 14 subtable" eight.subs
Substitution2: "'sups' Superscript in Latin lookup 13 subtable" eight.sups
Substitution2: "'dnom' Denominators in Latin lookup 9 subtable" eight.dnom
Substitution2: "'numr' Numerators in Latin lookup 8 subtable" eight.numr
AlternateSubs2: "'aalt' Access All Alternates in Latin lookup 1 subtable" eight.numr eight.dnom eight.sups eight.subs eight.pnum eight.tnum
EndChar

StartChar: nine
Encoding: 57 57 473
Width: 509
Flags: W
LayerCount: 2
Fore
SplineSet
259 333 m 0,0,1
 279 333 279 333 304 346.5 c 128,-1,2
 329 360 329 360 358 395 c 1,3,4
 359 405 359 405 359 414.5 c 128,-1,5
 359 424 359 424 359 434 c 0,6,7
 359 488 359 488 337.5 516.5 c 128,-1,8
 316 545 316 545 281 545 c 0,9,10
 259 545 259 545 242 533 c 128,-1,11
 225 521 225 521 213.5 502.5 c 128,-1,12
 202 484 202 484 196 461 c 128,-1,13
 190 438 190 438 190 417 c 0,14,15
 190 377 190 377 207.5 355 c 128,-1,16
 225 333 225 333 259 333 c 0,0,1
168 -12 m 0,17,18
 138 -12 138 -12 113.5 -4 c 128,-1,19
 89 4 89 4 69.5 17 c 128,-1,20
 50 30 50 30 35.5 45.5 c 128,-1,21
 21 61 21 61 11 76 c 1,22,-1
 97 148 l 1,23,24
 111 125 111 125 130 111.5 c 128,-1,25
 149 98 149 98 176 98 c 0,26,27
 233 98 233 98 280 148 c 128,-1,28
 327 198 327 198 347 298 c 1,29,30
 319 269 319 269 283.5 254 c 128,-1,31
 248 239 248 239 222 239 c 0,32,33
 188 239 188 239 159.5 249 c 128,-1,34
 131 259 131 259 110 279.5 c 128,-1,35
 89 300 89 300 77 331.5 c 128,-1,36
 65 363 65 363 65 405 c 0,37,38
 65 451 65 451 81.5 494.5 c 128,-1,39
 98 538 98 538 127.5 572 c 128,-1,40
 157 606 157 606 198 626.5 c 128,-1,41
 239 647 239 647 288 647 c 0,42,43
 334 647 334 647 370.5 630.5 c 128,-1,44
 407 614 407 614 432.5 584 c 128,-1,45
 458 554 458 554 472 512.5 c 128,-1,46
 486 471 486 471 486 421 c 0,47,48
 486 323 486 323 462 243.5 c 128,-1,49
 438 164 438 164 396 107 c 128,-1,50
 354 50 354 50 295.5 19 c 128,-1,51
 237 -12 237 -12 168 -12 c 0,17,18
EndSplineSet
Substitution2: "'onum' Oldstyle Figures in Latin lookup 16 subtable" nine.tnum
Substitution2: "'pnum' Proportional Numbers in Latin lookup 15 subtable" nine.pnum
Substitution2: "'subs' Subscript in Latin lookup 14 subtable" nine.subs
Substitution2: "'sups' Superscript in Latin lookup 13 subtable" nine.sups
Substitution2: "'dnom' Denominators in Latin lookup 9 subtable" nine.dnom
Substitution2: "'numr' Numerators in Latin lookup 8 subtable" nine.numr
AlternateSubs2: "'aalt' Access All Alternates in Latin lookup 1 subtable" nine.numr nine.dnom nine.sups nine.subs nine.pnum nine.tnum
EndChar

StartChar: zero.pnum
Encoding: 65593 -1 474
Width: 542
Flags: W
LayerCount: 2
Fore
SplineSet
227 -12 m 0,0,1
 186 -12 186 -12 151.5 2.5 c 128,-1,2
 117 17 117 17 91.5 45.5 c 128,-1,3
 66 74 66 74 52 117 c 128,-1,4
 38 160 38 160 38 216 c 0,5,6
 38 321 38 321 63.5 401.5 c 128,-1,7
 89 482 89 482 130 536.5 c 128,-1,8
 171 591 171 591 222.5 619 c 128,-1,9
 274 647 274 647 327 647 c 0,10,11
 368 647 368 647 402.5 632.5 c 128,-1,12
 437 618 437 618 462 589 c 128,-1,13
 487 560 487 560 501 517 c 128,-1,14
 515 474 515 474 515 417 c 0,15,16
 515 312 515 312 490 231.5 c 128,-1,17
 465 151 465 151 424 97 c 128,-1,18
 383 43 383 43 331.5 15.5 c 128,-1,19
 280 -12 280 -12 227 -12 c 0,0,1
236 93 m 0,20,21
 264 93 264 93 292 119.5 c 128,-1,22
 320 146 320 146 341.5 192 c 128,-1,23
 363 238 363 238 376.5 299.5 c 128,-1,24
 390 361 390 361 390 431 c 0,25,26
 390 490 390 490 371.5 516 c 128,-1,27
 353 542 353 542 319 542 c 0,28,29
 290 542 290 542 262.5 515 c 128,-1,30
 235 488 235 488 213.5 442 c 128,-1,31
 192 396 192 396 178.5 334 c 128,-1,32
 165 272 165 272 165 202 c 0,33,34
 165 143 165 143 183 118 c 128,-1,35
 201 93 201 93 236 93 c 0,20,21
EndSplineSet
Substitution2: "'zero' Slashed Zero in Latin lookup 18 subtable" zero.0p
Substitution2: "'ss05' Style Set 5 in Latin lookup 17 subtable" zero.0ps
Substitution2: "'onum' Oldstyle Figures in Latin lookup 16 subtable" zero.onum
Substitution2: "'aalt' Access All Alternates in Latin lookup 0 subtable" zero.onum
EndChar

StartChar: one.pnum
Encoding: 65594 -1 475
Width: 378
Flags: W
LayerCount: 2
Fore
SplineSet
86 0 m 1,0,-1
 185 493 l 1,1,-1
 70 493 l 1,2,-1
 87 579 l 1,3,4
 139 587 139 587 176.5 600.5 c 128,-1,5
 214 614 214 614 249 635 c 1,6,-1
 350 635 l 1,7,-1
 222 0 l 1,8,-1
 86 0 l 1,0,-1
EndSplineSet
Substitution2: "'onum' Oldstyle Figures in Latin lookup 16 subtable" one.onum
Substitution2: "'aalt' Access All Alternates in Latin lookup 0 subtable" one.onum
EndChar

StartChar: two.pnum
Encoding: 65595 -1 476
Width: 491
Flags: W
LayerCount: 2
Fore
SplineSet
-13 0 m 1,0,-1
 2 78 l 1,1,2
 77 142 77 142 139 194 c 128,-1,3
 201 246 201 246 244.5 292 c 128,-1,4
 288 338 288 338 312 379 c 128,-1,5
 336 420 336 420 336 462 c 0,6,7
 336 496 336 496 319 517.5 c 128,-1,8
 302 539 302 539 269 539 c 0,9,10
 242 539 242 539 217.5 525 c 128,-1,11
 193 511 193 511 165 488 c 1,12,-1
 99 567 l 1,13,14
 145 606 145 606 191.5 626.5 c 128,-1,15
 238 647 238 647 286 647 c 0,16,17
 371 647 371 647 420 600 c 128,-1,18
 469 553 469 553 469 476 c 0,19,20
 469 428 469 428 451 385.5 c 128,-1,21
 433 343 433 343 400.5 300.5 c 128,-1,22
 368 258 368 258 322 213 c 128,-1,23
 276 168 276 168 220 115 c 1,24,-1
 425 115 l 1,25,-1
 403 0 l 1,26,-1
 -13 0 l 1,0,-1
EndSplineSet
Substitution2: "'onum' Oldstyle Figures in Latin lookup 16 subtable" two.onum
Substitution2: "'aalt' Access All Alternates in Latin lookup 0 subtable" two.onum
EndChar

StartChar: seven.pnum
Encoding: 65600 -1 481
Width: 480
Flags: W
LayerCount: 2
Fore
SplineSet
87 0 m 1,0,1
 109 83 109 83 134.5 155.5 c 128,-1,2
 160 228 160 228 191 292.5 c 128,-1,3
 222 357 222 357 260 413.5 c 128,-1,4
 298 470 298 470 346 520 c 1,5,-1
 88 520 l 1,6,-1
 110 635 l 1,7,-1
 521 635 l 1,8,-1
 504 549 l 1,9,10
 436 483 436 483 390 415 c 128,-1,11
 344 347 344 347 313 278 c 128,-1,12
 282 209 282 209 262.5 139.5 c 128,-1,13
 243 70 243 70 228 0 c 1,14,-1
 87 0 l 1,0,1
EndSplineSet
Substitution2: "'onum' Oldstyle Figures in Latin lookup 16 subtable" seven.onum
Substitution2: "'aalt' Access All Alternates in Latin lookup 0 subtable" seven.onum
EndChar

StartChar: zero.tnum
Encoding: 65603 -1 484
Width: 509
Flags: W
LayerCount: 2
Fore
SplineSet
216 -12 m 0,0,1
 173 -12 173 -12 139 3.5 c 128,-1,2
 105 19 105 19 81 47 c 128,-1,3
 57 75 57 75 44.5 114.5 c 128,-1,4
 32 154 32 154 32 202 c 0,5,6
 32 273 32 273 50 342.5 c 128,-1,7
 68 412 68 412 102.5 467 c 128,-1,8
 137 522 137 522 187.5 556 c 128,-1,9
 238 590 238 590 303 590 c 0,10,11
 390 590 390 590 438.5 532 c 128,-1,12
 487 474 487 474 487 376 c 0,13,14
 487 305 487 305 469 235.5 c 128,-1,15
 451 166 451 166 416.5 111 c 128,-1,16
 382 56 382 56 331.5 22 c 128,-1,17
 281 -12 281 -12 216 -12 c 0,0,1
228 93 m 0,18,19
 256 93 256 93 280 118 c 128,-1,20
 304 143 304 143 321 182.5 c 128,-1,21
 338 222 338 222 348 270.5 c 128,-1,22
 358 319 358 319 358 366 c 0,23,24
 358 424 358 424 342 454.5 c 128,-1,25
 326 485 326 485 291 485 c 0,26,27
 263 485 263 485 239 460 c 128,-1,28
 215 435 215 435 198 395.5 c 128,-1,29
 181 356 181 356 171 307.5 c 128,-1,30
 161 259 161 259 161 212 c 0,31,32
 161 155 161 155 177 124 c 128,-1,33
 193 93 193 93 228 93 c 0,18,19
EndSplineSet
Substitution2: "'pnum' Proportional Numbers in Latin lookup 15 subtable" zero.onum
Substitution2: "'aalt' Access All Alternates in Latin lookup 0 subtable" zero.onum
EndChar

StartChar: one.tnum
Encoding: 65604 -1 485
Width: 509
Flags: W
LayerCount: 2
Fore
SplineSet
19 0 m 1,0,-1
 41 110 l 1,1,-1
 172 110 l 1,2,-1
 237 436 l 1,3,-1
 122 436 l 1,4,-1
 139 522 l 1,5,6
 191 530 191 530 228.5 543.5 c 128,-1,7
 266 557 266 557 301 578 c 1,8,-1
 402 578 l 1,9,-1
 309 110 l 1,10,-1
 426 110 l 1,11,-1
 404 0 l 1,12,-1
 19 0 l 1,0,-1
EndSplineSet
Substitution2: "'pnum' Proportional Numbers in Latin lookup 15 subtable" one.onum
Substitution2: "'aalt' Access All Alternates in Latin lookup 0 subtable" one.onum
EndChar

StartChar: two.tnum
Encoding: 65605 -1 486
Width: 509
Flags: W
LayerCount: 2
Fore
SplineSet
-13 0 m 1,0,-1
 2 78 l 1,1,2
 76 133 76 133 136.5 178 c 128,-1,3
 197 223 197 223 239.5 262 c 128,-1,4
 282 301 282 301 305 335.5 c 128,-1,5
 328 370 328 370 328 405 c 0,6,7
 328 439 328 439 308.5 460.5 c 128,-1,8
 289 482 289 482 251 482 c 0,9,10
 224 482 224 482 199.5 468 c 128,-1,11
 175 454 175 454 147 431 c 1,12,-1
 81 511 l 1,13,14
 127 549 127 549 173.5 569.5 c 128,-1,15
 220 590 220 590 268 590 c 0,16,17
 313 590 313 590 349 577.5 c 128,-1,18
 385 565 385 565 409.5 542.5 c 128,-1,19
 434 520 434 520 447.5 489 c 128,-1,20
 461 458 461 458 461 420 c 0,21,22
 461 380 461 380 443.5 344 c 128,-1,23
 426 308 426 308 394.5 272 c 128,-1,24
 363 236 363 236 318.5 198 c 128,-1,25
 274 160 274 160 220 115 c 1,26,-1
 435 115 l 1,27,-1
 413 0 l 1,28,-1
 -13 0 l 1,0,-1
EndSplineSet
Substitution2: "'pnum' Proportional Numbers in Latin lookup 15 subtable" two.onum
Substitution2: "'aalt' Access All Alternates in Latin lookup 0 subtable" two.onum
EndChar

StartChar: three.tnum
Encoding: 65606 -1 487
Width: 509
Flags: W
LayerCount: 2
Fore
SplineSet
191 -90 m 0,0,1
 131 -90 131 -90 73.5 -63 c 128,-1,2
 16 -36 16 -36 -26 24 c 1,3,-1
 60 94 l 1,4,5
 83 60 83 60 115 40 c 128,-1,6
 147 20 147 20 180 20 c 0,7,8
 232 20 232 20 262.5 48.5 c 128,-1,9
 293 77 293 77 293 122 c 0,10,11
 293 143 293 143 286 159.5 c 128,-1,12
 279 176 279 176 262 187.5 c 128,-1,13
 245 199 245 199 216.5 205 c 128,-1,14
 188 211 188 211 144 211 c 1,15,-1
 164 308 l 1,16,17
 213 308 213 308 245.5 316.5 c 128,-1,18
 278 325 278 325 297.5 339.5 c 128,-1,19
 317 354 317 354 325 373.5 c 128,-1,20
 333 393 333 393 333 415 c 0,21,22
 333 445 333 445 312.5 463.5 c 128,-1,23
 292 482 292 482 257 482 c 0,24,25
 234 482 234 482 209.5 472 c 128,-1,26
 185 462 185 462 156 442 c 1,27,-1
 90 530 l 1,28,29
 138 563 138 563 185 576.5 c 128,-1,30
 232 590 232 590 282 590 c 0,31,32
 325 590 325 590 360.5 579 c 128,-1,33
 396 568 396 568 421 548 c 128,-1,34
 446 528 446 528 459.5 499.5 c 128,-1,35
 473 471 473 471 473 437 c 0,36,37
 473 374 473 374 438 329.5 c 128,-1,38
 403 285 403 285 338 259 c 1,39,-1
 338 255 l 1,40,41
 430 212 430 212 430 116 c 0,42,43
 430 68 430 68 411.5 29.5 c 128,-1,44
 393 -9 393 -9 361 -35.5 c 128,-1,45
 329 -62 329 -62 285.5 -76 c 128,-1,46
 242 -90 242 -90 191 -90 c 0,0,1
EndSplineSet
Substitution2: "'pnum' Proportional Numbers in Latin lookup 15 subtable" three.onum
Substitution2: "'aalt' Access All Alternates in Latin lookup 0 subtable" three.onum
EndChar

StartChar: four.tnum
Encoding: 65607 -1 488
Width: 509
Flags: W
LayerCount: 2
Fore
SplineSet
229 -78 m 1,0,-1
 261 84 l 1,1,-1
 -2 84 l 1,2,-1
 16 179 l 1,3,-1
 322 578 l 1,4,-1
 486 578 l 1,5,-1
 408 189 l 1,6,-1
 481 189 l 1,7,-1
 460 84 l 1,8,-1
 387 84 l 1,9,-1
 354 -78 l 1,10,-1
 229 -78 l 1,0,-1
151 189 m 1,11,-1
 282 189 l 1,12,-1
 308 318 l 2,13,14
 316 352 316 352 324.5 387.5 c 128,-1,15
 333 423 333 423 341 458 c 1,16,-1
 337 458 l 1,17,18
 319 429 319 429 301.5 399 c 128,-1,19
 284 369 284 369 264 343 c 2,20,-1
 151 189 l 1,11,-1
EndSplineSet
Substitution2: "'pnum' Proportional Numbers in Latin lookup 15 subtable" four.onum
Substitution2: "'aalt' Access All Alternates in Latin lookup 0 subtable" four.onum
EndChar

StartChar: five.tnum
Encoding: 65608 -1 489
Width: 509
Flags: W
LayerCount: 2
Fore
SplineSet
182 -89 m 0,0,1
 122 -89 122 -89 69 -62 c 128,-1,2
 16 -35 16 -35 -26 25 c 1,3,-1
 60 95 l 1,4,5
 85 61 85 61 115.5 41 c 128,-1,6
 146 21 146 21 185 21 c 0,7,8
 208 21 208 21 229 29.5 c 128,-1,9
 250 38 250 38 265.5 53.5 c 128,-1,10
 281 69 281 69 290.5 91.5 c 128,-1,11
 300 114 300 114 300 142 c 0,12,13
 300 190 300 190 277 214 c 128,-1,14
 254 238 254 238 213 238 c 0,15,16
 201 238 201 238 191 236.5 c 128,-1,17
 181 235 181 235 170.5 231.5 c 128,-1,18
 160 228 160 228 148 222.5 c 128,-1,19
 136 217 136 217 120 209 c 1,20,-1
 69 251 l 1,21,-1
 150 578 l 1,22,-1
 492 578 l 1,23,-1
 470 463 l 1,24,-1
 246 463 l 1,25,-1
 208 327 l 1,26,27
 237 340 237 340 269 340 c 0,28,29
 305 340 305 340 336 329 c 128,-1,30
 367 318 367 318 389.5 296 c 128,-1,31
 412 274 412 274 425 241 c 128,-1,32
 438 208 438 208 438 165 c 0,33,34
 438 106 438 106 416.5 59 c 128,-1,35
 395 12 395 12 359 -21 c 128,-1,36
 323 -54 323 -54 277 -71.5 c 128,-1,37
 231 -89 231 -89 182 -89 c 0,0,1
EndSplineSet
Substitution2: "'pnum' Proportional Numbers in Latin lookup 15 subtable" five.onum
Substitution2: "'aalt' Access All Alternates in Latin lookup 0 subtable" five.onum
EndChar

StartChar: seven.tnum
Encoding: 65610 -1 491
Width: 509
Flags: W
LayerCount: 2
Fore
SplineSet
82 -78 m 1,0,1
 104 8 104 8 130.5 84 c 128,-1,2
 157 160 157 160 190 227 c 128,-1,3
 223 294 223 294 263 353 c 128,-1,4
 303 412 303 412 354 463 c 1,5,-1
 85 463 l 1,6,-1
 108 578 l 1,7,-1
 529 578 l 1,8,-1
 512 492 l 1,9,10
 440 424 440 424 391.5 354 c 128,-1,11
 343 284 343 284 310.5 212 c 128,-1,12
 278 140 278 140 258 67 c 128,-1,13
 238 -6 238 -6 223 -78 c 1,14,-1
 82 -78 l 1,0,1
EndSplineSet
Substitution2: "'pnum' Proportional Numbers in Latin lookup 15 subtable" seven.onum
Substitution2: "'aalt' Access All Alternates in Latin lookup 0 subtable" seven.onum
EndChar

StartChar: nine.tnum
Encoding: 65612 -1 493
Width: 509
Flags: W
LayerCount: 2
Fore
SplineSet
245 256 m 0,0,1
 267 256 267 256 293.5 269 c 128,-1,2
 320 282 320 282 351 318 c 1,3,4
 352 332 352 332 352.5 346.5 c 128,-1,5
 353 361 353 361 353 377 c 0,6,7
 353 431 353 431 331.5 459.5 c 128,-1,8
 310 488 310 488 275 488 c 0,9,10
 251 488 251 488 232 475 c 128,-1,11
 213 462 213 462 200 442 c 128,-1,12
 187 422 187 422 180.5 397.5 c 128,-1,13
 174 373 174 373 174 351 c 0,14,15
 174 306 174 306 192 281 c 128,-1,16
 210 256 210 256 245 256 c 0,0,1
153 -89 m 0,17,18
 123 -89 123 -89 99 -80.5 c 128,-1,19
 75 -72 75 -72 55.5 -59.5 c 128,-1,20
 36 -47 36 -47 21 -31.5 c 128,-1,21
 6 -16 6 -16 -4 -1 c 1,22,-1
 83 71 l 1,23,24
 97 49 97 49 116 35 c 128,-1,25
 135 21 135 21 162 21 c 0,26,27
 219 21 219 21 266.5 70.5 c 128,-1,28
 314 120 314 120 337 218 c 1,29,30
 307 191 307 191 271.5 176.5 c 128,-1,31
 236 162 236 162 208 162 c 0,32,33
 175 162 175 162 146 172.5 c 128,-1,34
 117 183 117 183 95.5 205 c 128,-1,35
 74 227 74 227 61.5 260 c 128,-1,36
 49 293 49 293 49 338 c 0,37,38
 49 386 49 386 66 431.5 c 128,-1,39
 83 477 83 477 114 512.5 c 128,-1,40
 145 548 145 548 188 569 c 128,-1,41
 231 590 231 590 282 590 c 0,42,43
 327 590 327 590 364 573.5 c 128,-1,44
 401 557 401 557 426.5 527 c 128,-1,45
 452 497 452 497 466 455.5 c 128,-1,46
 480 414 480 414 480 364 c 0,47,48
 480 263 480 263 455.5 179.5 c 128,-1,49
 431 96 431 96 387.5 36.5 c 128,-1,50
 344 -23 344 -23 284 -56 c 128,-1,51
 224 -89 224 -89 153 -89 c 0,17,18
EndSplineSet
Substitution2: "'pnum' Proportional Numbers in Latin lookup 15 subtable" nine.onum
Substitution2: "'aalt' Access All Alternates in Latin lookup 0 subtable" nine.onum
EndChar

StartChar: one.onum
Encoding: 65614 -1 495
Width: 375
Flags: W
LayerCount: 2
Fore
SplineSet
89 0 m 1,0,-1
 177 436 l 1,1,-1
 62 436 l 1,2,-1
 79 522 l 1,3,4
 131 530 131 530 168.5 543.5 c 128,-1,5
 206 557 206 557 241 578 c 1,6,-1
 342 578 l 1,7,-1
 226 0 l 1,8,-1
 89 0 l 1,0,-1
EndSplineSet
EndChar

StartChar: two.onum
Encoding: 65615 -1 496
Width: 479
Flags: W
LayerCount: 2
Fore
SplineSet
-13 0 m 1,0,-1
 2 78 l 1,1,2
 72 133 72 133 129.5 178 c 128,-1,3
 187 223 187 223 227.5 262 c 128,-1,4
 268 301 268 301 290.5 335.5 c 128,-1,5
 313 370 313 370 313 405 c 0,6,7
 313 439 313 439 296.5 460.5 c 128,-1,8
 280 482 280 482 251 482 c 0,9,10
 224 482 224 482 199.5 468 c 128,-1,11
 175 454 175 454 147 431 c 1,12,-1
 81 511 l 1,13,14
 127 549 127 549 173.5 569.5 c 128,-1,15
 220 590 220 590 268 590 c 0,16,17
 309 590 309 590 342 577.5 c 128,-1,18
 375 565 375 565 398 542.5 c 128,-1,19
 421 520 421 520 433.5 489 c 128,-1,20
 446 458 446 458 446 420 c 0,21,22
 446 380 446 380 429 344 c 128,-1,23
 412 308 412 308 381.5 272 c 128,-1,24
 351 236 351 236 308.5 198 c 128,-1,25
 266 160 266 160 214 115 c 1,26,-1
 412 115 l 1,27,-1
 390 0 l 1,28,-1
 -13 0 l 1,0,-1
EndSplineSet
EndChar

StartChar: seven.onum
Encoding: 65620 -1 501
Width: 480
Flags: W
LayerCount: 2
Fore
SplineSet
70 -78 m 1,0,1
 92 9 92 9 117.5 85 c 128,-1,2
 143 161 143 161 175 228 c 128,-1,3
 207 295 207 295 247 353.5 c 128,-1,4
 287 412 287 412 337 463 c 1,5,-1
 77 463 l 1,6,-1
 100 578 l 1,7,-1
 513 578 l 1,8,-1
 495 492 l 1,9,10
 424 426 424 426 376 355.5 c 128,-1,11
 328 285 328 285 296.5 213 c 128,-1,12
 265 141 265 141 245.5 68 c 128,-1,13
 226 -5 226 -5 211 -78 c 1,14,-1
 70 -78 l 1,0,1
EndSplineSet
EndChar

StartChar: period
Encoding: 46 46 504
Width: 291
Flags: W
LayerCount: 2
Fore
SplineSet
94 -12 m 0,0,1
 62 -12 62 -12 43 8.5 c 128,-1,2
 24 29 24 29 24 62 c 0,3,4
 24 80 24 80 31 98.5 c 128,-1,5
 38 117 38 117 51 131 c 128,-1,6
 64 145 64 145 82 154 c 128,-1,7
 100 163 100 163 122 163 c 0,8,9
 154 163 154 163 173 141.5 c 128,-1,10
 192 120 192 120 192 88 c 0,11,12
 192 69 192 69 185 51 c 128,-1,13
 178 33 178 33 165 19 c 128,-1,14
 152 5 152 5 134 -3.5 c 128,-1,15
 116 -12 116 -12 94 -12 c 0,0,1
EndSplineSet
Substitution2: "'subs' Subscript in Latin lookup 14 subtable" period.subs
Substitution2: "'sups' Superscript in Latin lookup 13 subtable" period.sups
Substitution2: "'dnom' Denominators in Latin lookup 9 subtable" period.dnom
Substitution2: "'numr' Numerators in Latin lookup 8 subtable" period.numr
AlternateSubs2: "'aalt' Access All Alternates in Latin lookup 1 subtable" period.numr period.dnom period.sups period.subs
EndChar

StartChar: comma
Encoding: 44 44 505
Width: 291
Flags: W
LayerCount: 2
Fore
SplineSet
-13 -187 m 1,0,-1
 -27 -112 l 1,1,2
 30 -95 30 -95 62 -65 c 128,-1,3
 94 -35 94 -35 102 0 c 1,4,5
 69 1 69 1 47.5 20 c 128,-1,6
 26 39 26 39 26 71 c 0,7,8
 26 107 26 107 51 135 c 128,-1,9
 76 163 76 163 119 163 c 0,10,11
 159 163 159 163 180.5 137.5 c 128,-1,12
 202 112 202 112 202 66 c 0,13,14
 202 19 202 19 187 -22.5 c 128,-1,15
 172 -64 172 -64 144.5 -97 c 128,-1,16
 117 -130 117 -130 77 -153.5 c 128,-1,17
 37 -177 37 -177 -13 -187 c 1,0,-1
EndSplineSet
Substitution2: "'subs' Subscript in Latin lookup 14 subtable" comma.subs
Substitution2: "'sups' Superscript in Latin lookup 13 subtable" comma.sups
Substitution2: "'dnom' Denominators in Latin lookup 9 subtable" comma.dnom
Substitution2: "'numr' Numerators in Latin lookup 8 subtable" comma.numr
AlternateSubs2: "'aalt' Access All Alternates in Latin lookup 1 subtable" comma.numr comma.dnom comma.sups comma.subs
EndChar

StartChar: exclam
Encoding: 33 33 509
Width: 331
Flags: W
LayerCount: 2
Fore
SplineSet
115 226 m 1,0,-1
 161 544 l 1,1,-1
 180 670 l 1,2,-1
 317 670 l 1,3,-1
 288 544 l 1,4,-1
 205 226 l 1,5,-1
 115 226 l 1,0,-1
116 -12 m 0,6,7
 84 -12 84 -12 64.5 8.5 c 128,-1,8
 45 29 45 29 45 62 c 0,9,10
 45 80 45 80 52 98.5 c 128,-1,11
 59 117 59 117 72 131 c 128,-1,12
 85 145 85 145 103 154 c 128,-1,13
 121 163 121 163 143 163 c 0,14,15
 175 163 175 163 194.5 141.5 c 128,-1,16
 214 120 214 120 214 88 c 0,17,18
 214 69 214 69 207 51 c 128,-1,19
 200 33 200 33 187 19 c 128,-1,20
 174 5 174 5 156 -3.5 c 128,-1,21
 138 -12 138 -12 116 -12 c 0,6,7
EndSplineSet
EndChar

StartChar: exclamdown
Encoding: 161 161 510
Width: 331
Flags: W
LayerCount: 2
Fore
SplineSet
17 -174 m 1,0,-1
 46 -48 l 1,1,-1
 129 270 l 1,2,-1
 219 270 l 1,3,-1
 173 -48 l 1,4,-1
 154 -174 l 1,5,-1
 17 -174 l 1,0,-1
191 333 m 0,6,7
 159 333 159 333 139.5 354.5 c 128,-1,8
 120 376 120 376 120 408 c 0,9,10
 120 427 120 427 127 445 c 128,-1,11
 134 463 134 463 147 477 c 128,-1,12
 160 491 160 491 178 499.5 c 128,-1,13
 196 508 196 508 218 508 c 0,14,15
 250 508 250 508 269.5 487.5 c 128,-1,16
 289 467 289 467 289 434 c 0,17,18
 289 416 289 416 282 397.5 c 128,-1,19
 275 379 275 379 262 365 c 128,-1,20
 249 351 249 351 231 342 c 128,-1,21
 213 333 213 333 191 333 c 0,6,7
EndSplineSet
EndChar

StartChar: question
Encoding: 63 63 511
Width: 444
Flags: W
LayerCount: 2
Fore
SplineSet
146 232 m 1,0,1
 150 272 150 272 164.5 301.5 c 128,-1,2
 179 331 179 331 199 354 c 128,-1,3
 219 377 219 377 240.5 395.5 c 128,-1,4
 262 414 262 414 280.5 431.5 c 128,-1,5
 299 449 299 449 311 467.5 c 128,-1,6
 323 486 323 486 323 510 c 0,7,8
 323 539 323 539 306 555.5 c 128,-1,9
 289 572 289 572 259 572 c 0,10,11
 221 572 221 572 182 533 c 1,12,-1
 113 611 l 1,13,14
 148 646 148 646 189.5 664 c 128,-1,15
 231 682 231 682 276 682 c 0,16,17
 357 682 357 682 407 642.5 c 128,-1,18
 457 603 457 603 457 531 c 0,19,20
 457 492 457 492 444 463.5 c 128,-1,21
 431 435 431 435 411 412 c 128,-1,22
 391 389 391 389 367 369 c 128,-1,23
 343 349 343 349 321.5 328 c 128,-1,24
 300 307 300 307 283.5 281.5 c 128,-1,25
 267 256 267 256 262 222 c 1,26,-1
 146 232 l 1,0,1
161 -12 m 0,27,28
 129 -12 129 -12 109.5 8.5 c 128,-1,29
 90 29 90 29 90 62 c 0,30,31
 90 80 90 80 97 98.5 c 128,-1,32
 104 117 104 117 117 131 c 128,-1,33
 130 145 130 145 148 154 c 128,-1,34
 166 163 166 163 188 163 c 0,35,36
 220 163 220 163 239 141.5 c 128,-1,37
 258 120 258 120 258 88 c 0,38,39
 258 69 258 69 251 51 c 128,-1,40
 244 33 244 33 231 19 c 128,-1,41
 218 5 218 5 200.5 -3.5 c 128,-1,42
 183 -12 183 -12 161 -12 c 0,27,28
EndSplineSet
EndChar

StartChar: questiondown
Encoding: 191 191 512
Width: 444
Flags: W
LayerCount: 2
Fore
SplineSet
180 -186 m 0,0,1
 139 -186 139 -186 106 -175.5 c 128,-1,2
 73 -165 73 -165 49 -145.5 c 128,-1,3
 25 -126 25 -126 12 -98 c 128,-1,4
 -1 -70 -1 -70 -1 -34 c 0,5,6
 -1 5 -1 5 12 33.5 c 128,-1,7
 25 62 25 62 45 85 c 128,-1,8
 65 108 65 108 89 128 c 128,-1,9
 113 148 113 148 134.5 169 c 128,-1,10
 156 190 156 190 172.5 215.5 c 128,-1,11
 189 241 189 241 194 275 c 1,12,-1
 310 264 l 1,13,14
 306 224 306 224 291.5 194.5 c 128,-1,15
 277 165 277 165 257 142 c 128,-1,16
 237 119 237 119 215 101 c 128,-1,17
 193 83 193 83 174.5 65 c 128,-1,18
 156 47 156 47 144 28.5 c 128,-1,19
 132 10 132 10 132 -14 c 0,20,21
 132 -43 132 -43 149.5 -59 c 128,-1,22
 167 -75 167 -75 197 -75 c 0,23,24
 236 -75 236 -75 273 -37 c 1,25,-1
 343 -114 l 1,26,27
 308 -149 308 -149 266.5 -167.5 c 128,-1,28
 225 -186 225 -186 180 -186 c 0,0,1
268 334 m 0,29,30
 236 334 236 334 217 355 c 128,-1,31
 198 376 198 376 198 408 c 0,32,33
 198 427 198 427 205 445 c 128,-1,34
 212 463 212 463 224.5 477 c 128,-1,35
 237 491 237 491 255 499.5 c 128,-1,36
 273 508 273 508 295 508 c 0,37,38
 327 508 327 508 346.5 487.5 c 128,-1,39
 366 467 366 467 366 434 c 0,40,41
 366 416 366 416 359 398 c 128,-1,42
 352 380 352 380 339 366 c 128,-1,43
 326 352 326 352 308 343 c 128,-1,44
 290 334 290 334 268 334 c 0,29,30
EndSplineSet
EndChar

StartChar: quotesingle
Encoding: 39 39 513
Width: 291
Flags: W
LayerCount: 2
Fore
SplineSet
121 363 m 1,0,-1
 142 544 l 1,1,-1
 160 670 l 1,2,-1
 295 670 l 1,3,-1
 267 544 l 1,4,-1
 210 363 l 1,5,-1
 121 363 l 1,0,-1
EndSplineSet
EndChar

StartChar: quoteleft
Encoding: 8216 8216 515
Width: 291
Flags: W
LayerCount: 2
Fore
SplineSet
171 355 m 0,0,1
 137 355 137 355 117 380 c 128,-1,2
 97 405 97 405 97 451 c 0,3,4
 97 496 97 496 111 533 c 128,-1,5
 125 570 125 570 148.5 598.5 c 128,-1,6
 172 627 172 627 203 646.5 c 128,-1,7
 234 666 234 666 269 677 c 1,8,-1
 291 618 l 1,9,10
 263 607 263 607 242 591.5 c 128,-1,11
 221 576 221 576 206.5 559.5 c 128,-1,12
 192 543 192 543 184.5 527 c 128,-1,13
 177 511 177 511 177 500 c 1,14,-1
 182 500 l 2,15,16
 213 500 213 500 233.5 483.5 c 128,-1,17
 254 467 254 467 254 437 c 0,18,19
 254 405 254 405 231.5 380 c 128,-1,20
 209 355 209 355 171 355 c 0,0,1
EndSplineSet
EndChar

StartChar: quoteright
Encoding: 8217 8217 516
Width: 291
Flags: W
LayerCount: 2
Fore
SplineSet
129 374 m 1,0,-1
 107 434 l 1,1,2
 135 444 135 444 156.5 459.5 c 128,-1,3
 178 475 178 475 192.5 491.5 c 128,-1,4
 207 508 207 508 214.5 524 c 128,-1,5
 222 540 222 540 222 552 c 1,6,-1
 216 552 l 2,7,8
 185 552 185 552 165 568.5 c 128,-1,9
 145 585 145 585 145 615 c 0,10,11
 145 647 145 647 167.5 672 c 128,-1,12
 190 697 190 697 228 697 c 0,13,14
 262 697 262 697 282 671.5 c 128,-1,15
 302 646 302 646 302 600 c 0,16,17
 302 555 302 555 288 518.5 c 128,-1,18
 274 482 274 482 250.5 453.5 c 128,-1,19
 227 425 227 425 195.5 405 c 128,-1,20
 164 385 164 385 129 374 c 1,0,-1
EndSplineSet
EndChar

StartChar: guilsinglleft
Encoding: 8249 8249 521
Width: 272
Flags: W
LayerCount: 2
Fore
SplineSet
144 58 m 1,0,-1
 40 207 l 1,1,-1
 58 305 l 1,2,-1
 211 444 l 1,3,-1
 253 399 l 1,4,-1
 120 247 l 1,5,-1
 198 93 l 1,6,-1
 144 58 l 1,0,-1
EndSplineSet
EndChar

StartChar: guilsinglright
Encoding: 8250 8250 522
Width: 272
Flags: W
LayerCount: 2
Fore
SplineSet
69 58 m 1,0,-1
 27 103 l 1,1,-1
 160 255 l 1,2,-1
 81 409 l 1,3,-1
 136 444 l 1,4,-1
 240 295 l 1,5,-1
 222 197 l 1,6,-1
 69 58 l 1,0,-1
EndSplineSet
EndChar

StartChar: hyphen
Encoding: 45 45 525
Width: 320
Flags: W
LayerCount: 2
Fore
SplineSet
33 205 m 1,0,-1
 54 302 l 1,1,-1
 288 302 l 1,2,-1
 267 205 l 1,3,-1
 33 205 l 1,0,-1
EndSplineSet
EndChar

StartChar: endash
Encoding: 8211 8211 527
Width: 464
Flags: W
LayerCount: 2
Fore
SplineSet
34 208 m 1,0,-1
 52 297 l 1,1,-1
 429 297 l 1,2,-1
 411 208 l 1,3,-1
 34 208 l 1,0,-1
EndSplineSet
EndChar

StartChar: emdash
Encoding: 8212 8212 528
Width: 771
Flags: W
LayerCount: 2
Fore
SplineSet
34 208 m 1,0,-1
 52 297 l 1,1,-1
 737 297 l 1,2,-1
 719 208 l 1,3,-1
 34 208 l 1,0,-1
EndSplineSet
EndChar

StartChar: figuredash
Encoding: 8210 8210 529
Width: 509
Flags: W
LayerCount: 2
Fore
SplineSet
34 208 m 1,0,-1
 52 297 l 1,1,-1
 474 297 l 1,2,-1
 456 208 l 1,3,-1
 34 208 l 1,0,-1
EndSplineSet
EndChar

StartChar: bullet
Encoding: 8226 8226 532
Width: 330
Flags: W
LayerCount: 2
Fore
SplineSet
154 127 m 0,0,1
 104 127 104 127 71.5 160.5 c 128,-1,2
 39 194 39 194 39 247 c 0,3,4
 39 274 39 274 49 301 c 128,-1,5
 59 328 59 328 77 349.5 c 128,-1,6
 95 371 95 371 120.5 384.5 c 128,-1,7
 146 398 146 398 178 398 c 0,8,9
 227 398 227 398 260 364.5 c 128,-1,10
 293 331 293 331 293 278 c 0,11,12
 293 251 293 251 283 224 c 128,-1,13
 273 197 273 197 255 175.5 c 128,-1,14
 237 154 237 154 211 140.5 c 128,-1,15
 185 127 185 127 154 127 c 0,0,1
EndSplineSet
EndChar

StartChar: underscore
Encoding: 95 95 533
Width: 481
Flags: W
LayerCount: 2
Fore
SplineSet
-47 -138 m 1,0,-1
 -32 -61 l 1,1,-1
 425 -61 l 1,2,-1
 409 -138 l 1,3,-1
 -47 -138 l 1,0,-1
EndSplineSet
EndChar

StartChar: parenleft
Encoding: 40 40 534
Width: 329
Flags: W
LayerCount: 2
Fore
SplineSet
115 -179 m 1,0,1
 103 -148 103 -148 92.5 -110.5 c 128,-1,2
 82 -73 82 -73 74 -33 c 128,-1,3
 66 7 66 7 61 48.5 c 128,-1,4
 56 90 56 90 56 131 c 0,5,6
 56 218 56 218 71.5 296 c 128,-1,7
 87 374 87 374 116.5 447 c 128,-1,8
 146 520 146 520 190 590.5 c 128,-1,9
 234 661 234 661 291 733 c 1,10,-1
 370 693 l 1,11,12
 264 552 264 552 215 409.5 c 128,-1,13
 166 267 166 267 166 121 c 0,14,15
 166 89 166 89 168 54 c 128,-1,16
 170 19 170 19 174.5 -16 c 128,-1,17
 179 -51 179 -51 186 -83.5 c 128,-1,18
 193 -116 193 -116 202 -143 c 1,19,-1
 115 -179 l 1,0,1
EndSplineSet
Substitution2: "'subs' Subscript in Latin lookup 14 subtable" parenleft.subs
Substitution2: "'sups' Superscript in Latin lookup 13 subtable" parenleft.sups
Substitution2: "'dnom' Denominators in Latin lookup 9 subtable" parenleft.dnom
Substitution2: "'numr' Numerators in Latin lookup 8 subtable" parenleft.numr
AlternateSubs2: "'aalt' Access All Alternates in Latin lookup 1 subtable" parenleft.numr parenleft.dnom parenleft.sups parenleft.subs
EndChar

StartChar: parenright
Encoding: 41 41 535
Width: 331
Flags: W
LayerCount: 2
Fore
SplineSet
46 -179 m 1,0,-1
 -33 -139 l 1,1,2
 73 2 73 2 122 144.5 c 128,-1,3
 171 287 171 287 171 433 c 0,4,5
 171 465 171 465 169 500 c 128,-1,6
 167 535 167 535 162.5 570 c 128,-1,7
 158 605 158 605 151 638 c 128,-1,8
 144 671 144 671 135 698 c 1,9,-1
 222 733 l 1,10,11
 234 701 234 701 244.5 664 c 128,-1,12
 255 627 255 627 263.5 587.5 c 128,-1,13
 272 548 272 548 277 506 c 128,-1,14
 282 464 282 464 282 424 c 0,15,16
 282 337 282 337 266.5 258.5 c 128,-1,17
 251 180 251 180 221 107 c 128,-1,18
 191 34 191 34 147 -36.5 c 128,-1,19
 103 -107 103 -107 46 -179 c 1,0,-1
EndSplineSet
Substitution2: "'subs' Subscript in Latin lookup 14 subtable" parenright.subs
Substitution2: "'sups' Superscript in Latin lookup 13 subtable" parenright.sups
Substitution2: "'dnom' Denominators in Latin lookup 9 subtable" parenright.dnom
Substitution2: "'numr' Numerators in Latin lookup 8 subtable" parenright.numr
AlternateSubs2: "'aalt' Access All Alternates in Latin lookup 1 subtable" parenright.numr parenright.dnom parenright.sups parenright.subs
EndChar

StartChar: bracketleft
Encoding: 91 91 536
Width: 330
Flags: W
LayerCount: 2
Fore
SplineSet
-3 -152 m 1,0,-1
 169 708 l 1,1,-1
 369 708 l 1,2,-1
 355 635 l 1,3,-1
 256 635 l 1,4,-1
 114 -79 l 1,5,-1
 212 -79 l 1,6,-1
 197 -152 l 1,7,-1
 -3 -152 l 1,0,-1
EndSplineSet
EndChar

StartChar: bracketright
Encoding: 93 93 537
Width: 331
Flags: W
LayerCount: 2
Fore
SplineSet
-29 -152 m 1,0,-1
 -14 -79 l 1,1,-1
 83 -79 l 1,2,-1
 226 635 l 1,3,-1
 129 635 l 1,4,-1
 143 708 l 1,5,-1
 343 708 l 1,6,-1
 171 -152 l 1,7,-1
 -29 -152 l 1,0,-1
EndSplineSet
EndChar

StartChar: braceleft
Encoding: 123 123 538
Width: 328
Flags: W
LayerCount: 2
Fore
SplineSet
142 -152 m 2,0,1
 88 -152 88 -152 66.5 -130 c 128,-1,2
 45 -108 45 -108 45 -65 c 0,3,4
 45 -36 45 -36 53 -1 c 128,-1,5
 61 34 61 34 70.5 68 c 128,-1,6
 80 102 80 102 88 131.5 c 128,-1,7
 96 161 96 161 96 179 c 0,8,9
 96 201 96 201 81.5 218.5 c 128,-1,10
 67 236 67 236 26 238 c 1,11,-1
 44 318 l 1,12,13
 69 319 69 319 86 326 c 128,-1,14
 103 333 103 333 114.5 344 c 128,-1,15
 126 355 126 355 132.5 368.5 c 128,-1,16
 139 382 139 382 142 395 c 0,17,18
 146 418 146 418 148.5 438 c 128,-1,19
 151 458 151 458 153 477.5 c 128,-1,20
 155 497 155 497 158 518 c 128,-1,21
 161 539 161 539 166 565 c 0,22,23
 174 605 174 605 185.5 632.5 c 128,-1,24
 197 660 197 660 214 677 c 128,-1,25
 231 694 231 694 255 701 c 128,-1,26
 279 708 279 708 312 708 c 2,27,-1
 376 708 l 1,28,-1
 360 635 l 1,29,-1
 341 635 l 2,30,31
 310 635 310 635 296 618 c 128,-1,32
 282 601 282 601 275 560 c 0,33,34
 267 520 267 520 261 481 c 128,-1,35
 255 442 255 442 247 397 c 0,36,37
 235 340 235 340 211.5 312.5 c 128,-1,38
 188 285 188 285 148 276 c 1,39,-1
 148 272 l 1,40,41
 176 265 176 265 190 249 c 128,-1,42
 204 233 204 233 204 202 c 0,43,44
 204 177 204 177 197 144 c 128,-1,45
 190 111 190 111 181 77 c 128,-1,46
 172 43 172 43 165 11.5 c 128,-1,47
 158 -20 158 -20 158 -41 c 0,48,49
 158 -61 158 -61 166.5 -70 c 128,-1,50
 175 -79 175 -79 200 -79 c 2,51,-1
 217 -79 l 1,52,-1
 203 -152 l 1,53,-1
 142 -152 l 2,0,1
EndSplineSet
EndChar

StartChar: braceright
Encoding: 125 125 539
Width: 331
Flags: W
LayerCount: 2
Fore
SplineSet
-38 -152 m 1,0,-1
 -22 -79 l 1,1,-1
 -3 -79 l 2,2,3
 28 -79 28 -79 41.5 -62 c 128,-1,4
 55 -45 55 -45 63 -4 c 0,5,6
 71 36 71 36 77 75 c 128,-1,7
 83 114 83 114 91 159 c 0,8,9
 103 216 103 216 126.5 243.5 c 128,-1,10
 150 271 150 271 190 280 c 1,11,-1
 190 284 l 1,12,13
 161 291 161 291 147.5 307 c 128,-1,14
 134 323 134 323 134 354 c 0,15,16
 134 379 134 379 141 412 c 128,-1,17
 148 445 148 445 157 479 c 128,-1,18
 166 513 166 513 173 544 c 128,-1,19
 180 575 180 575 180 596 c 256,20,21
 180 617 180 617 171.5 626 c 128,-1,22
 163 635 163 635 138 635 c 2,23,-1
 121 635 l 1,24,-1
 135 708 l 1,25,-1
 197 708 l 2,26,27
 250 708 250 708 271.5 686 c 128,-1,28
 293 664 293 664 293 621 c 0,29,30
 293 592 293 592 285 557 c 128,-1,31
 277 522 277 522 267.5 488 c 128,-1,32
 258 454 258 454 250 424.5 c 128,-1,33
 242 395 242 395 242 377 c 0,34,35
 242 355 242 355 256.5 337 c 128,-1,36
 271 319 271 319 312 318 c 1,37,-1
 294 238 l 1,38,39
 269 237 269 237 252 230 c 128,-1,40
 235 223 235 223 223.5 212 c 128,-1,41
 212 201 212 201 205.5 187.5 c 128,-1,42
 199 174 199 174 196 161 c 0,43,44
 191 138 191 138 189 118 c 128,-1,45
 187 98 187 98 185 78.5 c 128,-1,46
 183 59 183 59 180 37.5 c 128,-1,47
 177 16 177 16 172 -10 c 0,48,49
 164 -51 164 -51 152.5 -78 c 128,-1,50
 141 -105 141 -105 124 -121.5 c 128,-1,51
 107 -138 107 -138 83 -145 c 128,-1,52
 59 -152 59 -152 26 -152 c 2,53,-1
 -38 -152 l 1,0,-1
EndSplineSet
EndChar

StartChar: slash
Encoding: 47 47 540
Width: 329
Flags: W
LayerCount: 2
Fore
SplineSet
-69 -160 m 1,0,-1
 303 710 l 1,1,-1
 394 710 l 1,2,-1
 20 -160 l 1,3,-1
 -69 -160 l 1,0,-1
EndSplineSet
Substitution2: "'frac' Diagonal Fractions in Latin lookup 10 subtable" slash.frac
EndChar

StartChar: bar
Encoding: 124 124 541
Width: 255
Flags: W
LayerCount: 2
Fore
SplineSet
88 -250 m 1,0,-1
 88 750 l 1,1,-1
 174 750 l 1,2,-1
 174 -250 l 1,3,-1
 88 -250 l 1,0,-1
EndSplineSet
EndChar

StartChar: backslash
Encoding: 92 92 542
Width: 329
Flags: W
LayerCount: 2
Fore
SplineSet
161 -160 m 1,0,-1
 85 710 l 1,1,-1
 173 710 l 1,2,-1
 250 -160 l 1,3,-1
 161 -160 l 1,0,-1
EndSplineSet
EndChar

StartChar: brokenbar
Encoding: 166 166 543
Width: 255
Flags: W
LayerCount: 2
Fore
SplineSet
88 309 m 1,0,-1
 88 750 l 1,1,-1
 174 750 l 1,2,-1
 174 309 l 1,3,-1
 88 309 l 1,0,-1
88 -250 m 1,4,-1
 88 205 l 1,5,-1
 174 205 l 1,6,-1
 174 -250 l 1,7,-1
 88 -250 l 1,4,-1
EndSplineSet
EndChar

StartChar: asterisk
Encoding: 42 42 544
Width: 438
Flags: W
LayerCount: 2
Fore
SplineSet
173 366 m 1,0,-1
 121 415 l 1,1,-1
 196 513 l 1,2,-1
 101 568 l 1,3,-1
 132 633 l 1,4,-1
 239 599 l 1,5,-1
 271 714 l 1,6,-1
 342 708 l 1,7,-1
 334 591 l 1,8,-1
 448 605 l 1,9,-1
 458 535 l 1,10,-1
 348 497 l 1,11,-1
 386 391 l 1,12,-1
 321 354 l 1,13,-1
 260 448 l 1,14,-1
 173 366 l 1,0,-1
EndSplineSet
EndChar

StartChar: dagger
Encoding: 8224 8224 545
Width: 488
Flags: W
LayerCount: 2
Fore
SplineSet
122 -80 m 1,0,-1
 237 447 l 1,1,-1
 81 438 l 1,2,-1
 104 549 l 1,3,-1
 254 541 l 1,4,-1
 280 712 l 1,5,-1
 391 712 l 1,6,-1
 348 541 l 1,7,-1
 503 549 l 1,8,-1
 482 438 l 1,9,-1
 330 447 l 1,10,-1
 233 -80 l 1,11,-1
 122 -80 l 1,0,-1
EndSplineSet
EndChar

StartChar: daggerdbl
Encoding: 8225 8225 546
Width: 488
Flags: W
LayerCount: 2
Fore
SplineSet
123 -80 m 1,0,-1
 164 90 l 1,1,-1
 11 81 l 1,2,-1
 32 192 l 1,3,-1
 183 182 l 1,4,-1
 201 316 l 1,5,-1
 237 450 l 1,6,-1
 81 438 l 1,7,-1
 102 549 l 1,8,-1
 254 541 l 1,9,-1
 280 712 l 1,10,-1
 389 712 l 1,11,-1
 348 541 l 1,12,-1
 503 549 l 1,13,-1
 482 438 l 1,14,-1
 330 450 l 1,15,-1
 311 316 l 1,16,-1
 277 182 l 1,17,-1
 432 192 l 1,18,-1
 410 81 l 1,19,-1
 258 90 l 1,20,-1
 233 -80 l 1,21,-1
 123 -80 l 1,0,-1
EndSplineSet
EndChar

StartChar: section
Encoding: 167 167 547
Width: 505
Flags: W
LayerCount: 2
Fore
SplineSet
166 334 m 0,0,1
 166 313 166 313 180 296.5 c 128,-1,2
 194 280 194 280 216 265.5 c 128,-1,3
 238 251 238 251 263.5 236.5 c 128,-1,4
 289 222 289 222 313 204 c 1,5,6
 334 215 334 215 345.5 232 c 128,-1,7
 357 249 357 249 357 276 c 0,8,9
 357 296 357 296 343 312.5 c 128,-1,10
 329 329 329 329 308 343.5 c 128,-1,11
 287 358 287 358 261.5 373 c 128,-1,12
 236 388 236 388 212 405 c 1,13,14
 192 394 192 394 179 377 c 128,-1,15
 166 360 166 360 166 334 c 0,0,1
192 -80 m 0,16,17
 144 -80 144 -80 93 -58 c 128,-1,18
 42 -36 42 -36 1 4 c 1,19,-1
 69 89 l 1,20,21
 94 63 94 63 128.5 42.5 c 128,-1,22
 163 22 163 22 199 22 c 0,23,24
 227 22 227 22 242.5 35 c 128,-1,25
 258 48 258 48 258 71 c 0,26,27
 258 89 258 89 242.5 103.5 c 128,-1,28
 227 118 227 118 204 133 c 128,-1,29
 181 148 181 148 153.5 164.5 c 128,-1,30
 126 181 126 181 103 202 c 128,-1,31
 80 223 80 223 64.5 251.5 c 128,-1,32
 49 280 49 280 49 318 c 0,33,34
 49 369 49 369 78.5 406.5 c 128,-1,35
 108 444 108 444 153 466 c 1,36,37
 137 493 137 493 137 526 c 0,38,39
 137 561 137 561 149.5 591 c 128,-1,40
 162 621 162 621 185.5 643 c 128,-1,41
 209 665 209 665 241.5 677.5 c 128,-1,42
 274 690 274 690 313 690 c 0,43,44
 360 690 360 690 404 669 c 128,-1,45
 448 648 448 648 483 610 c 1,46,-1
 414 534 l 1,47,48
 394 554 394 554 368 570 c 128,-1,49
 342 586 342 586 312 586 c 0,50,51
 291 586 291 586 275.5 574.5 c 128,-1,52
 260 563 260 563 260 540 c 0,53,54
 260 523 260 523 276 508.5 c 128,-1,55
 292 494 292 494 316 479 c 128,-1,56
 340 464 340 464 368 446.5 c 128,-1,57
 396 429 396 429 420 407 c 128,-1,58
 444 385 444 385 460 357 c 128,-1,59
 476 329 476 329 476 292 c 0,60,61
 476 236 476 236 448 199 c 128,-1,62
 420 162 420 162 372 137 c 1,63,64
 382 114 382 114 382 87 c 0,65,66
 382 49 382 49 368 18.5 c 128,-1,67
 354 -12 354 -12 329 -34 c 128,-1,68
 304 -56 304 -56 269 -68 c 128,-1,69
 234 -80 234 -80 192 -80 c 0,16,17
EndSplineSet
EndChar

StartChar: paragraph
Encoding: 182 182 548
Width: 608
Flags: W
LayerCount: 2
Fore
SplineSet
314 -80 m 1,0,-1
 459 652 l 1,1,-1
 596 652 l 1,2,-1
 451 -80 l 1,3,-1
 314 -80 l 1,0,-1
285 200 m 2,4,5
 242 200 242 200 203 212 c 128,-1,6
 164 224 164 224 134 247 c 128,-1,7
 104 270 104 270 86.5 304.5 c 128,-1,8
 69 339 69 339 69 383 c 0,9,10
 69 453 69 453 93.5 504 c 128,-1,11
 118 555 118 555 158.5 588 c 128,-1,12
 199 621 199 621 252 636.5 c 128,-1,13
 305 652 305 652 362 652 c 2,14,-1
 406 652 l 1,15,-1
 315 200 l 1,16,-1
 285 200 l 2,4,5
EndSplineSet
EndChar

StartChar: copyright
Encoding: 169 169 549
Width: 672
Flags: W
LayerCount: 2
Fore
SplineSet
298 -9 m 0,0,1
 239 -9 239 -9 190 12 c 128,-1,2
 141 33 141 33 105.5 70 c 128,-1,3
 70 107 70 107 50 158 c 128,-1,4
 30 209 30 209 30 269 c 0,5,6
 30 348 30 348 57.5 418.5 c 128,-1,7
 85 489 85 489 134.5 541.5 c 128,-1,8
 184 594 184 594 253 624.5 c 128,-1,9
 322 655 322 655 404 655 c 0,10,11
 462 655 462 655 511.5 634 c 128,-1,12
 561 613 561 613 596.5 576.5 c 128,-1,13
 632 540 632 540 652 489 c 128,-1,14
 672 438 672 438 672 378 c 0,15,16
 672 299 672 299 644.5 228.5 c 128,-1,17
 617 158 617 158 567.5 105.5 c 128,-1,18
 518 53 518 53 449 22 c 128,-1,19
 380 -9 380 -9 298 -9 c 0,0,1
303 52 m 0,20,21
 368 52 368 52 424 77.5 c 128,-1,22
 480 103 480 103 521 147 c 128,-1,23
 562 191 562 191 585 249 c 128,-1,24
 608 307 608 307 608 372 c 0,25,26
 608 417 608 417 594.5 457.5 c 128,-1,27
 581 498 581 498 555 528.5 c 128,-1,28
 529 559 529 559 489.5 577 c 128,-1,29
 450 595 450 595 399 595 c 0,30,31
 334 595 334 595 278 569 c 128,-1,32
 222 543 222 543 181 499.5 c 128,-1,33
 140 456 140 456 117 397.5 c 128,-1,34
 94 339 94 339 94 275 c 0,35,36
 94 229 94 229 107.5 188.5 c 128,-1,37
 121 148 121 148 147 117.5 c 128,-1,38
 173 87 173 87 212.5 69.5 c 128,-1,39
 252 52 252 52 303 52 c 0,20,21
330 127 m 0,40,41
 260 127 260 127 217 168 c 128,-1,42
 174 209 174 209 174 282 c 0,43,44
 174 336 174 336 194 379 c 128,-1,45
 214 422 214 422 246 452 c 128,-1,46
 278 482 278 482 317 498.5 c 128,-1,47
 356 515 356 515 395 515 c 0,48,49
 430 515 430 515 456 498.5 c 128,-1,50
 482 482 482 482 497 463 c 1,51,-1
 440 407 l 1,52,53
 416 435 416 435 383 435 c 0,54,55
 364 435 364 435 344.5 424.5 c 128,-1,56
 325 414 325 414 309 395.5 c 128,-1,57
 293 377 293 377 283 351 c 128,-1,58
 273 325 273 325 273 294 c 0,59,60
 273 253 273 253 293.5 230.5 c 128,-1,61
 314 208 314 208 352 208 c 0,62,63
 373 208 373 208 389 215 c 128,-1,64
 405 222 405 222 426 236 c 1,65,-1
 464 176 l 1,66,67
 403 127 403 127 330 127 c 0,40,41
EndSplineSet
EndChar

StartChar: uni2117
Encoding: 8471 8471 550
Width: 672
Flags: W
LayerCount: 2
Fore
SplineSet
298 -9 m 0,0,1
 239 -9 239 -9 190 12 c 128,-1,2
 141 33 141 33 105.5 70 c 128,-1,3
 70 107 70 107 50 158 c 128,-1,4
 30 209 30 209 30 269 c 0,5,6
 30 348 30 348 57.5 418.5 c 128,-1,7
 85 489 85 489 134.5 541.5 c 128,-1,8
 184 594 184 594 253 624.5 c 128,-1,9
 322 655 322 655 404 655 c 0,10,11
 462 655 462 655 511.5 634 c 128,-1,12
 561 613 561 613 596.5 576.5 c 128,-1,13
 632 540 632 540 652 489 c 128,-1,14
 672 438 672 438 672 378 c 0,15,16
 672 299 672 299 644.5 228.5 c 128,-1,17
 617 158 617 158 567.5 105.5 c 128,-1,18
 518 53 518 53 449 22 c 128,-1,19
 380 -9 380 -9 298 -9 c 0,0,1
303 52 m 0,20,21
 368 52 368 52 424 77.5 c 128,-1,22
 480 103 480 103 521 147 c 128,-1,23
 562 191 562 191 585 249 c 128,-1,24
 608 307 608 307 608 372 c 0,25,26
 608 417 608 417 594.5 457.5 c 128,-1,27
 581 498 581 498 555 528.5 c 128,-1,28
 529 559 529 559 489.5 577 c 128,-1,29
 450 595 450 595 399 595 c 0,30,31
 334 595 334 595 278 569 c 128,-1,32
 222 543 222 543 181 499.5 c 128,-1,33
 140 456 140 456 117 397.5 c 128,-1,34
 94 339 94 339 94 275 c 0,35,36
 94 229 94 229 107.5 188.5 c 128,-1,37
 121 148 121 148 147 117.5 c 128,-1,38
 173 87 173 87 212.5 69.5 c 128,-1,39
 252 52 252 52 303 52 c 0,20,21
182 139 m 1,40,-1
 254 503 l 1,41,-1
 391 503 l 2,42,43
 421 503 421 503 447 497.5 c 128,-1,44
 473 492 473 492 491.5 479.5 c 128,-1,45
 510 467 510 467 521 447 c 128,-1,46
 532 427 532 427 532 399 c 0,47,48
 532 357 532 357 515.5 325.5 c 128,-1,49
 499 294 499 294 472 273.5 c 128,-1,50
 445 253 445 253 409.5 243 c 128,-1,51
 374 233 374 233 336 233 c 2,52,-1
 298 233 l 1,53,-1
 280 139 l 1,54,-1
 182 139 l 1,40,-1
312 304 m 1,55,-1
 343 304 l 2,56,57
 391 304 391 304 413 325 c 128,-1,58
 435 346 435 346 435 382 c 0,59,60
 435 406 435 406 418 417.5 c 128,-1,61
 401 429 401 429 370 429 c 2,62,-1
 338 429 l 1,63,-1
 312 304 l 1,55,-1
EndSplineSet
EndChar

StartChar: registered
Encoding: 174 174 551
Width: 444
Flags: W
LayerCount: 2
Fore
SplineSet
255 312 m 0,0,1
 220 312 220 312 188.5 325 c 128,-1,2
 157 338 157 338 133 361.5 c 128,-1,3
 109 385 109 385 95 417.5 c 128,-1,4
 81 450 81 450 81 489 c 0,5,6
 81 532 81 532 96 572.5 c 128,-1,7
 111 613 111 613 138.5 644.5 c 128,-1,8
 166 676 166 676 204 695 c 128,-1,9
 242 714 242 714 289 714 c 0,10,11
 324 714 324 714 355 701 c 128,-1,12
 386 688 386 688 410 664.5 c 128,-1,13
 434 641 434 641 448 608.5 c 128,-1,14
 462 576 462 576 463 537 c 0,15,16
 463 494 463 494 447.5 453.5 c 128,-1,17
 432 413 432 413 404.5 381.5 c 128,-1,18
 377 350 377 350 339 331 c 128,-1,19
 301 312 301 312 255 312 c 0,0,1
258 359 m 0,20,21
 292 359 292 359 320 373 c 128,-1,22
 348 387 348 387 368.5 411 c 128,-1,23
 389 435 389 435 400.5 466.5 c 128,-1,24
 412 498 412 498 412 533 c 0,25,26
 412 561 412 561 403 585.5 c 128,-1,27
 394 610 394 610 377.5 628 c 128,-1,28
 361 646 361 646 337.5 656.5 c 128,-1,29
 314 667 314 667 286 667 c 0,30,31
 252 667 252 667 224 653 c 128,-1,32
 196 639 196 639 175.5 615 c 128,-1,33
 155 591 155 591 143.5 559.5 c 128,-1,34
 132 528 132 528 132 493 c 0,35,36
 132 465 132 465 141 440.5 c 128,-1,37
 150 416 150 416 166.5 398 c 128,-1,38
 183 380 183 380 206 369.5 c 128,-1,39
 229 359 229 359 258 359 c 0,20,21
177 416 m 1,40,-1
 217 612 l 1,41,-1
 299 612 l 2,42,43
 329 612 329 612 347.5 597 c 128,-1,44
 366 582 366 582 366 554 c 0,45,46
 366 534 366 534 353.5 516.5 c 128,-1,47
 341 499 341 499 317 490 c 1,48,-1
 342 416 l 1,49,-1
 288 416 l 1,50,-1
 270 478 l 1,51,-1
 244 478 l 1,52,-1
 231 416 l 1,53,-1
 177 416 l 1,40,-1
251 516 m 1,54,-1
 267 516 l 2,55,56
 287 516 287 516 297 525.5 c 128,-1,57
 307 535 307 535 307 549 c 0,58,59
 307 560 307 560 301 566 c 128,-1,60
 295 572 295 572 280 572 c 2,61,-1
 262 572 l 1,62,-1
 251 516 l 1,54,-1
EndSplineSet
EndChar

StartChar: trademark
Encoding: 8482 8482 552
Width: 652
Flags: W
LayerCount: 2
Fore
SplineSet
112 362 m 1,0,-1
 158 596 l 1,1,-1
 72 596 l 1,2,-1
 88 676 l 1,3,-1
 346 676 l 1,4,-1
 330 596 l 1,5,-1
 247 596 l 1,6,-1
 201 362 l 1,7,-1
 112 362 l 1,0,-1
326 362 m 1,8,-1
 386 676 l 1,9,-1
 488 676 l 1,10,-1
 508 582 l 1,11,-1
 516 510 l 1,12,-1
 520 510 l 1,13,-1
 551 582 l 1,14,-1
 610 676 l 1,15,-1
 713 676 l 1,16,-1
 652 362 l 1,17,-1
 565 362 l 1,18,-1
 586 464 l 1,19,-1
 626 588 l 1,20,-1
 622 588 l 1,21,-1
 519 408 l 1,22,-1
 475 408 l 1,23,-1
 441 588 l 1,24,-1
 437 588 l 1,25,-1
 431 464 l 1,26,-1
 410 362 l 1,27,-1
 326 362 l 1,8,-1
EndSplineSet
EndChar

StartChar: uni2120
Encoding: 8480 8480 553
Width: 642
Flags: W
LayerCount: 2
Fore
SplineSet
151 350 m 0,0,1
 115 350 115 350 87.5 362.5 c 128,-1,2
 60 375 60 375 34 407 c 1,3,-1
 92 454 l 1,4,5
 122 419 122 419 156 419 c 0,6,7
 176 419 176 419 187 426.5 c 128,-1,8
 198 434 198 434 198 446 c 0,9,10
 198 457 198 457 190 464 c 128,-1,11
 182 471 182 471 169 478 c 2,12,-1
 132 498 l 2,13,14
 114 508 114 508 101 528 c 128,-1,15
 88 548 88 548 88 577 c 0,16,17
 88 599 88 599 97.5 619 c 128,-1,18
 107 639 107 639 124.5 653.5 c 128,-1,19
 142 668 142 668 165.5 676.5 c 128,-1,20
 189 685 189 685 216 685 c 0,21,22
 248 685 248 685 272 671.5 c 128,-1,23
 296 658 296 658 316 640 c 1,24,-1
 264 587 l 1,25,26
 251 601 251 601 237 609.5 c 128,-1,27
 223 618 223 618 209 618 c 0,28,29
 190 618 190 618 180.5 609 c 128,-1,30
 171 600 171 600 171 590 c 256,31,32
 171 580 171 580 179.5 573 c 128,-1,33
 188 566 188 566 201 560 c 2,34,-1
 235 541 l 2,35,36
 255 530 255 530 269.5 511 c 128,-1,37
 284 492 284 492 284 462 c 0,38,39
 284 441 284 441 274 420.5 c 128,-1,40
 264 400 264 400 246 384.5 c 128,-1,41
 228 369 228 369 203.5 359.5 c 128,-1,42
 179 350 179 350 151 350 c 0,0,1
316 362 m 1,43,-1
 376 676 l 1,44,-1
 478 676 l 1,45,-1
 498 582 l 1,46,-1
 506 510 l 1,47,-1
 510 510 l 1,48,-1
 541 582 l 1,49,-1
 600 676 l 1,50,-1
 703 676 l 1,51,-1
 642 362 l 1,52,-1
 555 362 l 1,53,-1
 576 464 l 1,54,-1
 616 588 l 1,55,-1
 612 588 l 1,56,-1
 509 408 l 1,57,-1
 465 408 l 1,58,-1
 431 588 l 1,59,-1
 427 588 l 1,60,-1
 421 464 l 1,61,-1
 400 362 l 1,62,-1
 316 362 l 1,43,-1
EndSplineSet
EndChar

StartChar: at
Encoding: 64 64 554
Width: 866
Flags: W
LayerCount: 2
Fore
SplineSet
379 -170 m 0,0,1
 312 -170 312 -170 251 -149 c 128,-1,2
 190 -128 190 -128 144 -86.5 c 128,-1,3
 98 -45 98 -45 70.5 17 c 128,-1,4
 43 79 43 79 43 162 c 0,5,6
 43 268 43 268 80.5 360.5 c 128,-1,7
 118 453 118 453 181.5 520.5 c 128,-1,8
 245 588 245 588 328.5 627 c 128,-1,9
 412 666 412 666 503 666 c 0,10,11
 581 666 581 666 641.5 642 c 128,-1,12
 702 618 702 618 744 576.5 c 128,-1,13
 786 535 786 535 808 478.5 c 128,-1,14
 830 422 830 422 830 358 c 0,15,16
 830 278 830 278 810.5 218.5 c 128,-1,17
 791 159 791 159 758.5 119 c 128,-1,18
 726 79 726 79 682.5 59 c 128,-1,19
 639 39 639 39 591 39 c 0,20,21
 556 39 556 39 528.5 58 c 128,-1,22
 501 77 501 77 492 114 c 1,23,-1
 488 114 l 1,24,25
 469 85 469 85 438 67 c 128,-1,26
 407 49 407 49 376 49 c 0,27,28
 322 49 322 49 286.5 88 c 128,-1,29
 251 127 251 127 251 193 c 0,30,31
 251 240 251 240 267 284.5 c 128,-1,32
 283 329 283 329 311 363.5 c 128,-1,33
 339 398 339 398 375.5 419 c 128,-1,34
 412 440 412 440 454 440 c 0,35,36
 499 440 499 440 524 391 c 1,37,-1
 526 391 l 1,38,-1
 541 432 l 1,39,-1
 624 432 l 1,40,-1
 573 210 l 2,41,42
 553 124 553 124 616 124 c 0,43,44
 636 124 636 124 658.5 138 c 128,-1,45
 681 152 681 152 699.5 179.5 c 128,-1,46
 718 207 718 207 730 248.5 c 128,-1,47
 742 290 742 290 742 344 c 0,48,49
 742 391 742 391 729 434.5 c 128,-1,50
 716 478 716 478 686 511.5 c 128,-1,51
 656 545 656 545 608 565 c 128,-1,52
 560 585 560 585 490 585 c 0,53,54
 427 585 427 585 364 554 c 128,-1,55
 301 523 301 523 250.5 468 c 128,-1,56
 200 413 200 413 168.5 339 c 128,-1,57
 137 265 137 265 137 178 c 0,58,59
 137 111 137 111 159 61.5 c 128,-1,60
 181 12 181 12 216.5 -21 c 128,-1,61
 252 -54 252 -54 297.5 -70 c 128,-1,62
 343 -86 343 -86 391 -86 c 0,63,64
 419 -86 419 -86 451.5 -77 c 128,-1,65
 484 -68 484 -68 510 -52 c 1,66,-1
 546 -126 l 1,67,68
 504 -148 504 -148 463 -159 c 128,-1,69
 422 -170 422 -170 379 -170 c 0,0,1
404 134 m 0,70,71
 420 134 420 134 435.5 145.5 c 128,-1,72
 451 157 451 157 470 183 c 1,73,-1
 501 322 l 1,74,75
 485 353 485 353 457 353 c 0,76,77
 435 353 435 353 416 338.5 c 128,-1,78
 397 324 397 324 383 301.5 c 128,-1,79
 369 279 369 279 361 252 c 128,-1,80
 353 225 353 225 353 201 c 0,81,82
 353 169 353 169 366.5 151.5 c 128,-1,83
 380 134 380 134 404 134 c 0,70,71
EndSplineSet
Substitution2: "'case' Case-Sensitive Forms in Latin lookup 19 subtable" at.case
Substitution2: "'aalt' Access All Alternates in Latin lookup 0 subtable" at.case
EndChar

StartChar: at.case
Encoding: 65623 -1 555
Width: 834
Flags: W
LayerCount: 2
Fore
SplineSet
367 -32 m 0,0,1
 307 -32 307 -32 255.5 -12.5 c 128,-1,2
 204 7 204 7 166.5 43.5 c 128,-1,3
 129 80 129 80 108 133.5 c 128,-1,4
 87 187 87 187 87 255 c 0,5,6
 87 354 87 354 123 435.5 c 128,-1,7
 159 517 159 517 217.5 575.5 c 128,-1,8
 276 634 276 634 351 666.5 c 128,-1,9
 426 699 426 699 504 699 c 0,10,11
 578 699 578 699 633 678 c 128,-1,12
 688 657 688 657 724 620.5 c 128,-1,13
 760 584 760 584 777.5 535.5 c 128,-1,14
 795 487 795 487 795 432 c 0,15,16
 795 361 795 361 778 306.5 c 128,-1,17
 761 252 761 252 732 215 c 128,-1,18
 703 178 703 178 664 159 c 128,-1,19
 625 140 625 140 582 140 c 0,20,21
 549 140 549 140 524 158.5 c 128,-1,22
 499 177 499 177 491 214 c 1,23,-1
 488 214 l 1,24,25
 469 185 469 185 439 167 c 128,-1,26
 409 149 409 149 381 149 c 0,27,28
 332 149 332 149 301 186.5 c 128,-1,29
 270 224 270 224 270 287 c 0,30,31
 270 328 270 328 284.5 367.5 c 128,-1,32
 299 407 299 407 324.5 438.5 c 128,-1,33
 350 470 350 470 384.5 489 c 128,-1,34
 419 508 419 508 458 508 c 0,35,36
 501 508 501 508 521 460 c 1,37,-1
 522 460 l 1,38,-1
 539 500 l 1,39,-1
 621 500 l 1,40,-1
 575 310 l 2,41,42
 554 225 554 225 611 225 c 0,43,44
 627 225 627 225 644.5 238 c 128,-1,45
 662 251 662 251 676.5 276.5 c 128,-1,46
 691 302 691 302 700.5 339.5 c 128,-1,47
 710 377 710 377 710 425 c 0,48,49
 710 464 710 464 699 500 c 128,-1,50
 688 536 688 536 663 563 c 128,-1,51
 638 590 638 590 597 606 c 128,-1,52
 556 622 556 622 496 622 c 0,53,54
 440 622 440 622 383 595 c 128,-1,55
 326 568 326 568 280 521 c 128,-1,56
 234 474 234 474 205.5 410.5 c 128,-1,57
 177 347 177 347 177 273 c 0,58,59
 177 217 177 217 192.5 175 c 128,-1,60
 208 133 208 133 236 104.5 c 128,-1,61
 264 76 264 76 302.5 61.5 c 128,-1,62
 341 47 341 47 386 47 c 0,63,64
 399 47 399 47 415 49 c 128,-1,65
 431 51 431 51 447.5 54.5 c 128,-1,66
 464 58 464 58 479 63.5 c 128,-1,67
 494 69 494 69 506 77 c 1,68,-1
 523 7 l 1,69,70
 486 -15 486 -15 444.5 -23.5 c 128,-1,71
 403 -32 403 -32 367 -32 c 0,0,1
412 234 m 0,72,73
 426 234 426 234 440 245.5 c 128,-1,74
 454 257 454 257 471 283 c 1,75,-1
 495 390 l 1,76,77
 489 407 489 407 479.5 414 c 128,-1,78
 470 421 470 421 458 421 c 0,79,80
 438 421 438 421 422 409 c 128,-1,81
 406 397 406 397 394.5 378 c 128,-1,82
 383 359 383 359 377 337 c 128,-1,83
 371 315 371 315 371 296 c 0,84,85
 371 267 371 267 381.5 250.5 c 128,-1,86
 392 234 392 234 412 234 c 0,72,73
EndSplineSet
EndChar

StartChar: numbersign
Encoding: 35 35 556
Width: 506
Flags: W
LayerCount: 2
Fore
SplineSet
34 0 m 1,0,-1
 94 188 l 1,1,-1
 18 188 l 1,2,-1
 39 277 l 1,3,-1
 121 277 l 1,4,-1
 157 393 l 1,5,-1
 81 393 l 1,6,-1
 103 482 l 1,7,-1
 185 482 l 1,8,-1
 239 650 l 1,9,-1
 320 650 l 1,10,-1
 266 482 l 1,11,-1
 366 482 l 1,12,-1
 420 650 l 1,13,-1
 500 650 l 1,14,-1
 447 482 l 1,15,-1
 522 482 l 1,16,-1
 501 393 l 1,17,-1
 419 393 l 1,18,-1
 383 277 l 1,19,-1
 459 277 l 1,20,-1
 438 188 l 1,21,-1
 355 188 l 1,22,-1
 295 0 l 1,23,-1
 214 0 l 1,24,-1
 274 188 l 1,25,-1
 174 188 l 1,26,-1
 114 0 l 1,27,-1
 34 0 l 1,0,-1
202 277 m 1,28,-1
 302 277 l 1,29,-1
 338 393 l 1,30,-1
 238 393 l 1,31,-1
 202 277 l 1,28,-1
EndSplineSet
EndChar

StartChar: zero.dnom
Encoding: 65628 -1 585
Width: 377
Flags: W
LayerCount: 2
Fore
SplineSet
149 -12 m 0,0,1
 120 -12 120 -12 95 -0.5 c 128,-1,2
 70 11 70 11 51 31.5 c 128,-1,3
 32 52 32 52 21.5 81.5 c 128,-1,4
 11 111 11 111 11 147 c 0,5,6
 11 199 11 199 25 246 c 128,-1,7
 39 293 39 293 64 328 c 128,-1,8
 89 363 89 363 124.5 383.5 c 128,-1,9
 160 404 160 404 204 404 c 0,10,11
 233 404 233 404 258 392.5 c 128,-1,12
 283 381 283 381 302 360 c 128,-1,13
 321 339 321 339 331.5 309.5 c 128,-1,14
 342 280 342 280 342 244 c 0,15,16
 342 191 342 191 328 144.5 c 128,-1,17
 314 98 314 98 289 63.5 c 128,-1,18
 264 29 264 29 228 8.5 c 128,-1,19
 192 -12 192 -12 149 -12 c 0,0,1
158 70 m 0,20,21
 177 70 177 70 192.5 83 c 128,-1,22
 208 96 208 96 219.5 119 c 128,-1,23
 231 142 231 142 237.5 173.5 c 128,-1,24
 244 205 244 205 244 242 c 256,25,26
 244 279 244 279 232.5 300.5 c 128,-1,27
 221 322 221 322 195 322 c 0,28,29
 176 322 176 322 160.5 309 c 128,-1,30
 145 296 145 296 133.5 272.5 c 128,-1,31
 122 249 122 249 115.5 217.5 c 128,-1,32
 109 186 109 186 109 150 c 0,33,34
 109 113 109 113 120.5 91.5 c 128,-1,35
 132 70 132 70 158 70 c 0,20,21
EndSplineSet
EndChar

StartChar: one.dnom
Encoding: 65629 -1 586
Width: 376
Flags: W
LayerCount: 2
Fore
SplineSet
117 0 m 1,0,-1
 175 285 l 1,1,-1
 88 285 l 1,2,-1
 100 347 l 1,3,4
 141 353 141 353 165.5 363 c 128,-1,5
 190 373 190 373 217 390 c 1,6,-1
 295 390 l 1,7,-1
 219 0 l 1,8,-1
 117 0 l 1,0,-1
EndSplineSet
EndChar

StartChar: two.dnom
Encoding: 65630 -1 587
Width: 364
Flags: W
LayerCount: 2
Fore
SplineSet
-6 0 m 1,0,-1
 5 55 l 1,1,2
 110 124 110 124 162 175.5 c 128,-1,3
 214 227 214 227 214 271 c 0,4,5
 214 291 214 291 202 303 c 128,-1,6
 190 315 190 315 166 315 c 0,7,8
 150 315 150 315 135.5 305 c 128,-1,9
 121 295 121 295 104 279 c 1,10,-1
 48 338 l 1,11,12
 82 369 82 369 112.5 385.5 c 128,-1,13
 143 402 143 402 184 402 c 0,14,15
 244 402 244 402 279 372 c 128,-1,16
 314 342 314 342 314 289 c 0,17,18
 314 235 314 235 275.5 187 c 128,-1,19
 237 139 237 139 171 85 c 1,20,-1
 288 85 l 1,21,-1
 271 0 l 1,22,-1
 -6 0 l 1,0,-1
EndSplineSet
EndChar

StartChar: three.dnom
Encoding: 65631 -1 588
Width: 360
Flags: W
LayerCount: 2
Fore
SplineSet
144 -12 m 0,0,1
 90 -12 90 -12 54 10.5 c 128,-1,2
 18 33 18 33 -3 68 c 1,3,-1
 62 115 l 1,4,5
 90 68 90 68 135 68 c 0,6,7
 164 68 164 68 181.5 81 c 128,-1,8
 199 94 199 94 199 117 c 256,9,10
 199 140 199 140 181.5 154.5 c 128,-1,11
 164 169 164 169 113 169 c 1,12,-1
 125 230 l 1,13,14
 153 230 153 230 171 235 c 128,-1,15
 189 240 189 240 199.5 248 c 128,-1,16
 210 256 210 256 214 266 c 128,-1,17
 218 276 218 276 218 287 c 0,18,19
 218 304 218 304 206.5 314 c 128,-1,20
 195 324 195 324 175 324 c 0,21,22
 157 324 157 324 142.5 318.5 c 128,-1,23
 128 313 128 313 108 299 c 1,24,-1
 66 365 l 1,25,26
 101 386 101 386 131.5 394 c 128,-1,27
 162 402 162 402 197 402 c 0,28,29
 251 402 251 402 284.5 375.5 c 128,-1,30
 318 349 318 349 318 305 c 0,31,32
 318 229 318 229 238 198 c 1,33,34
 266 184 266 184 281 161.5 c 128,-1,35
 296 139 296 139 296 113 c 0,36,37
 296 83 296 83 284 60 c 128,-1,38
 272 37 272 37 251 21 c 128,-1,39
 230 5 230 5 202.5 -3.5 c 128,-1,40
 175 -12 175 -12 144 -12 c 0,0,1
EndSplineSet
EndChar

StartChar: four.dnom
Encoding: 65632 -1 589
Width: 364
Flags: W
LayerCount: 2
Fore
SplineSet
160 0 m 1,0,-1
 178 89 l 1,1,-1
 -6 89 l 1,2,-1
 5 141 l 1,3,-1
 200 390 l 1,4,-1
 323 390 l 1,5,-1
 277 156 l 1,6,-1
 334 156 l 1,7,-1
 320 89 l 1,8,-1
 264 89 l 1,9,-1
 247 0 l 1,10,-1
 160 0 l 1,0,-1
98 156 m 1,11,-1
 191 156 l 1,12,-1
 201 204 l 1,13,-1
 228 324 l 1,14,-1
 224 324 l 1,15,-1
 164 238 l 1,16,-1
 98 156 l 1,11,-1
EndSplineSet
EndChar

StartChar: five.dnom
Encoding: 65633 -1 590
Width: 360
Flags: W
LayerCount: 2
Fore
SplineSet
142 -12 m 0,0,1
 90 -12 90 -12 54 10.5 c 128,-1,2
 18 33 18 33 -3 68 c 1,3,-1
 62 115 l 1,4,5
 90 68 90 68 136 68 c 0,6,7
 163 68 163 68 182.5 86 c 128,-1,8
 202 104 202 104 202 131 c 0,9,10
 202 156 202 156 187.5 169 c 128,-1,11
 173 182 173 182 150 182 c 0,12,13
 124 182 124 182 92 163 c 1,14,-1
 57 196 l 1,15,-1
 110 390 l 1,16,-1
 335 390 l 1,17,-1
 319 305 l 1,18,-1
 173 305 l 1,19,-1
 155 244 l 1,20,21
 165 249 165 249 175.5 250 c 128,-1,22
 186 251 186 251 192 251 c 0,23,24
 239 251 239 251 269.5 220.5 c 128,-1,25
 300 190 300 190 300 137 c 0,26,27
 300 105 300 105 287 77.5 c 128,-1,28
 274 50 274 50 252.5 30 c 128,-1,29
 231 10 231 10 202 -1 c 128,-1,30
 173 -12 173 -12 142 -12 c 0,0,1
EndSplineSet
EndChar

StartChar: six.dnom
Encoding: 65634 -1 591
Width: 361
Flags: W
LayerCount: 2
Fore
SplineSet
152 -12 m 0,0,1
 121 -12 121 -12 96 0 c 128,-1,2
 71 12 71 12 53.5 33 c 128,-1,3
 36 54 36 54 26.5 82.5 c 128,-1,4
 17 111 17 111 17 144 c 0,5,6
 17 207 17 207 34.5 255.5 c 128,-1,7
 52 304 52 304 81.5 336.5 c 128,-1,8
 111 369 111 369 148.5 385.5 c 128,-1,9
 186 402 186 402 227 402 c 0,10,11
 296 402 296 402 339 354 c 1,12,-1
 285 293 l 1,13,14
 270 307 270 307 255.5 314.5 c 128,-1,15
 241 322 241 322 218 322 c 0,16,17
 180 322 180 322 154.5 295.5 c 128,-1,18
 129 269 129 269 118 216 c 1,19,20
 133 229 133 229 153.5 237.5 c 128,-1,21
 174 246 174 246 196 246 c 0,22,23
 246 246 246 246 274 217 c 128,-1,24
 302 188 302 188 302 139 c 0,25,26
 302 106 302 106 289.5 78.5 c 128,-1,27
 277 51 277 51 256.5 31 c 128,-1,28
 236 11 236 11 209 -0.5 c 128,-1,29
 182 -12 182 -12 152 -12 c 0,0,1
160 68 m 0,30,31
 180 68 180 68 196 86.5 c 128,-1,32
 212 105 212 105 212 135 c 0,33,34
 212 178 212 178 170 178 c 0,35,36
 138 178 138 178 111 150 c 1,37,-1
 111 142 l 2,38,39
 111 100 111 100 125 84 c 128,-1,40
 139 68 139 68 160 68 c 0,30,31
EndSplineSet
EndChar

StartChar: seven.dnom
Encoding: 65635 -1 592
Width: 364
Flags: W
LayerCount: 2
Fore
SplineSet
61 0 m 1,0,1
 72 45 72 45 87.5 85 c 128,-1,2
 103 125 103 125 123 162 c 128,-1,3
 143 199 143 199 169 234 c 128,-1,4
 195 269 195 269 228 305 c 1,5,-1
 60 305 l 1,6,-1
 76 390 l 1,7,-1
 357 390 l 1,8,-1
 348 336 l 1,9,10
 306 295 306 295 277 255.5 c 128,-1,11
 248 216 248 216 227.5 175.5 c 128,-1,12
 207 135 207 135 193 91.5 c 128,-1,13
 179 48 179 48 168 0 c 1,14,-1
 61 0 l 1,0,1
EndSplineSet
EndChar

StartChar: eight.dnom
Encoding: 65636 -1 593
Width: 362
Flags: W
LayerCount: 2
Fore
SplineSet
140 -12 m 0,0,1
 78 -12 78 -12 42 18 c 128,-1,2
 6 48 6 48 6 93 c 0,3,4
 6 113 6 113 14 130.5 c 128,-1,5
 22 148 22 148 34.5 162.5 c 128,-1,6
 47 177 47 177 63.5 189 c 128,-1,7
 80 201 80 201 97 209 c 1,8,-1
 98 213 l 1,9,10
 81 228 81 228 71 246.5 c 128,-1,11
 61 265 61 265 61 289 c 0,12,13
 61 314 61 314 72.5 335 c 128,-1,14
 84 356 84 356 103 371 c 128,-1,15
 122 386 122 386 147.5 394 c 128,-1,16
 173 402 173 402 201 402 c 0,17,18
 254 402 254 402 286.5 375 c 128,-1,19
 319 348 319 348 319 303 c 0,20,21
 319 267 319 267 298.5 240.5 c 128,-1,22
 278 214 278 214 247 198 c 1,23,-1
 247 194 l 1,24,25
 268 179 268 179 281.5 158 c 128,-1,26
 295 137 295 137 295 108 c 0,27,28
 295 82 295 82 282.5 60 c 128,-1,29
 270 38 270 38 249 22 c 128,-1,30
 228 6 228 6 200 -3 c 128,-1,31
 172 -12 172 -12 140 -12 c 0,0,1
195 234 m 1,32,33
 212 250 212 250 221.5 264.5 c 128,-1,34
 231 279 231 279 231 294 c 0,35,36
 231 313 231 313 220.5 322.5 c 128,-1,37
 210 332 210 332 194 332 c 0,38,39
 174 332 174 332 161 320.5 c 128,-1,40
 148 309 148 309 148 288 c 0,41,42
 148 270 148 270 161.5 257 c 128,-1,43
 175 244 175 244 195 234 c 1,32,33
147 56 m 0,44,45
 173 56 173 56 189 70.5 c 128,-1,46
 205 85 205 85 205 108 c 256,47,48
 205 131 205 131 188 143 c 128,-1,49
 171 155 171 155 148 169 c 1,50,51
 125 157 125 157 112.5 140 c 128,-1,52
 100 123 100 123 100 103 c 0,53,54
 100 84 100 84 113.5 70 c 128,-1,55
 127 56 127 56 147 56 c 0,44,45
EndSplineSet
EndChar

StartChar: nine.dnom
Encoding: 65637 -1 594
Width: 362
Flags: W
LayerCount: 2
Fore
SplineSet
168 212 m 0,0,1
 200 212 200 212 227 240 c 1,2,-1
 227 248 l 2,3,4
 227 290 227 290 213 306 c 128,-1,5
 199 322 199 322 178 322 c 0,6,7
 159 322 159 322 142.5 303.5 c 128,-1,8
 126 285 126 285 126 255 c 0,9,10
 126 235 126 235 137 223.5 c 128,-1,11
 148 212 148 212 168 212 c 0,0,1
111 -12 m 0,12,13
 42 -12 42 -12 -1 36 c 1,14,-1
 53 97 l 1,15,16
 68 83 68 83 82.5 75.5 c 128,-1,17
 97 68 97 68 120 68 c 0,18,19
 158 68 158 68 183.5 94.5 c 128,-1,20
 209 121 209 121 220 174 c 1,21,22
 205 161 205 161 184.5 152.5 c 128,-1,23
 164 144 164 144 142 144 c 0,24,25
 92 144 92 144 64 173 c 128,-1,26
 36 202 36 202 36 251 c 0,27,28
 36 284 36 284 48.5 311.5 c 128,-1,29
 61 339 61 339 81.5 359 c 128,-1,30
 102 379 102 379 129 390.5 c 128,-1,31
 156 402 156 402 186 402 c 0,32,33
 217 402 217 402 242 390 c 128,-1,34
 267 378 267 378 284.5 357 c 128,-1,35
 302 336 302 336 311.5 307.5 c 128,-1,36
 321 279 321 279 321 246 c 0,37,38
 321 183 321 183 303.5 134.5 c 128,-1,39
 286 86 286 86 256.5 53.5 c 128,-1,40
 227 21 227 21 189 4.5 c 128,-1,41
 151 -12 151 -12 111 -12 c 0,12,13
EndSplineSet
EndChar

StartChar: parenleft.dnom
Encoding: 65638 -1 595
Width: 255
Flags: W
LayerCount: 2
Fore
SplineSet
83 -88 m 1,0,1
 63 -44 63 -44 50.5 6 c 128,-1,2
 38 56 38 56 38 111 c 0,3,4
 38 165 38 165 47 210.5 c 128,-1,5
 56 256 56 256 74.5 299 c 128,-1,6
 93 342 93 342 122 385 c 128,-1,7
 151 428 151 428 192 477 c 1,8,-1
 259 447 l 1,9,10
 196 362 196 362 165 282.5 c 128,-1,11
 134 203 134 203 134 112 c 0,12,13
 134 71 134 71 140 25 c 128,-1,14
 146 -21 146 -21 159 -58 c 1,15,-1
 83 -88 l 1,0,1
EndSplineSet
EndChar

StartChar: parenright.dnom
Encoding: 65639 -1 596
Width: 253
Flags: W
LayerCount: 2
Fore
SplineSet
39 -88 m 1,0,-1
 -28 -58 l 1,1,2
 35 27 35 27 66.5 106.5 c 128,-1,3
 98 186 98 186 98 277 c 0,4,5
 98 318 98 318 92 364 c 128,-1,6
 86 410 86 410 72 447 c 1,7,-1
 148 477 l 1,8,9
 168 433 168 433 180.5 383 c 128,-1,10
 193 333 193 333 193 278 c 0,11,12
 193 224 193 224 184 178.5 c 128,-1,13
 175 133 175 133 156.5 90 c 128,-1,14
 138 47 138 47 108.5 4 c 128,-1,15
 79 -39 79 -39 39 -88 c 1,0,-1
EndSplineSet
EndChar

StartChar: period.dnom
Encoding: 65640 -1 597
Width: 199
Flags: W
LayerCount: 2
Fore
SplineSet
48 -8 m 0,0,1
 25 -8 25 -8 11.5 6.5 c 128,-1,2
 -2 21 -2 21 -2 43 c 0,3,4
 -2 73 -2 73 17.5 93.5 c 128,-1,5
 37 114 37 114 67 114 c 0,6,7
 90 114 90 114 104 99.5 c 128,-1,8
 118 85 118 85 118 63 c 0,9,10
 118 33 118 33 98 12.5 c 128,-1,11
 78 -8 78 -8 48 -8 c 0,0,1
EndSplineSet
EndChar

StartChar: comma.dnom
Encoding: 65641 -1 598
Width: 199
Flags: W
LayerCount: 2
Fore
SplineSet
-24 -127 m 1,0,-1
 -36 -74 l 1,1,2
 2 -61 2 -61 24.5 -44 c 128,-1,3
 47 -27 47 -27 52 1 c 1,4,-1
 51 1 l 2,5,6
 31 1 31 1 15.5 14.5 c 128,-1,7
 0 28 0 28 0 51 c 0,8,9
 0 81 0 81 20 97.5 c 128,-1,10
 40 114 40 114 69 114 c 0,11,12
 93 114 93 114 109 95.5 c 128,-1,13
 125 77 125 77 125 46 c 0,14,15
 125 -18 125 -18 86 -62 c 128,-1,16
 47 -106 47 -106 -24 -127 c 1,0,-1
EndSplineSet
EndChar

StartChar: a.sups
Encoding: 7491 7491 616
Width: 365
Flags: W
LayerCount: 2
Fore
SplineSet
77 488 m 0,0,1
 77 535 77 535 92 576 c 128,-1,2
 107 617 107 617 131.5 647.5 c 128,-1,3
 156 678 156 678 188 695.5 c 128,-1,4
 220 713 220 713 255 713 c 0,5,6
 277 713 277 713 294.5 701 c 128,-1,7
 312 689 312 689 322 669 c 1,8,-1
 326 669 l 1,9,-1
 341 705 l 1,10,-1
 419 705 l 1,11,-1
 353 375 l 1,12,-1
 275 375 l 1,13,-1
 277 418 l 1,14,-1
 273 418 l 1,15,16
 251 394 251 394 224 380.5 c 128,-1,17
 197 367 197 367 171 367 c 0,18,19
 128 367 128 367 102.5 398.5 c 128,-1,20
 77 430 77 430 77 488 c 0,0,1
211 446 m 0,21,22
 228 446 228 446 246.5 456.5 c 128,-1,23
 265 467 265 467 281 493 c 1,24,-1
 301 604 l 1,25,26
 294 620 294 620 283 627 c 128,-1,27
 272 634 272 634 261 634 c 0,28,29
 245 634 245 634 229.5 624 c 128,-1,30
 214 614 214 614 202 596 c 128,-1,31
 190 578 190 578 183 553.5 c 128,-1,32
 176 529 176 529 176 501 c 0,33,34
 176 472 176 472 186 459 c 128,-1,35
 196 446 196 446 211 446 c 0,21,22
EndSplineSet
Substitution2: "'ss02' Style Set 2 in Latin lookup 21 subtable" a.supa
Substitution2: "'aalt' Access All Alternates in Latin lookup 0 subtable" a.supa
EndChar

StartChar: b.sups
Encoding: 7495 7495 617
Width: 370
Flags: W
LayerCount: 2
Fore
SplineSet
121 375 m 1,0,-1
 43 375 l 1,1,-1
 135 838 l 1,2,-1
 232 838 l 1,3,-1
 212 736 l 1,4,-1
 192 671 l 1,5,-1
 196 671 l 1,6,7
 216 688 216 688 240 700.5 c 128,-1,8
 264 713 264 713 290 713 c 0,9,10
 334 713 334 713 359 681.5 c 128,-1,11
 384 650 384 650 384 592 c 0,12,13
 384 545 384 545 369 504 c 128,-1,14
 354 463 354 463 329.5 432.5 c 128,-1,15
 305 402 305 402 273 384.5 c 128,-1,16
 241 367 241 367 207 367 c 0,17,18
 185 367 185 367 167.5 379 c 128,-1,19
 150 391 150 391 140 411 c 1,20,-1
 136 411 l 1,21,-1
 121 375 l 1,0,-1
250 634 m 256,22,23
 234 634 234 634 216 624.5 c 128,-1,24
 198 615 198 615 181 589 c 1,25,-1
 160 476 l 1,26,27
 168 460 168 460 178.5 453 c 128,-1,28
 189 446 189 446 200 446 c 0,29,30
 216 446 216 446 231.5 456 c 128,-1,31
 247 466 247 466 259 484 c 128,-1,32
 271 502 271 502 278.5 526.5 c 128,-1,33
 286 551 286 551 286 579 c 0,34,35
 286 608 286 608 276 621 c 128,-1,36
 266 634 266 634 250 634 c 256,22,23
EndSplineSet
EndChar

StartChar: c.sups
Encoding: 7580 7580 618
Width: 296
Flags: W
LayerCount: 2
Fore
SplineSet
184 367 m 0,0,1
 157 367 157 367 133 376 c 128,-1,2
 109 385 109 385 91 402 c 128,-1,3
 73 419 73 419 62.5 443 c 128,-1,4
 52 467 52 467 52 498 c 0,5,6
 52 541 52 541 66.5 580 c 128,-1,7
 81 619 81 619 107.5 648.5 c 128,-1,8
 134 678 134 678 170 695.5 c 128,-1,9
 206 713 206 713 248 713 c 0,10,11
 278 713 278 713 301 701 c 128,-1,12
 324 689 324 689 340 673 c 1,13,-1
 285 615 l 1,14,15
 275 626 275 626 266 631 c 128,-1,16
 257 636 257 636 244 636 c 0,17,18
 224 636 224 636 206.5 625 c 128,-1,19
 189 614 189 614 176.5 596.5 c 128,-1,20
 164 579 164 579 157 556.5 c 128,-1,21
 150 534 150 534 150 510 c 0,22,23
 150 475 150 475 166.5 459 c 128,-1,24
 183 443 183 443 205 443 c 0,25,26
 222 443 222 443 234 449 c 128,-1,27
 246 455 246 455 257 462 c 1,28,-1
 288 402 l 1,29,30
 272 389 272 389 245 378 c 128,-1,31
 218 367 218 367 184 367 c 0,0,1
EndSplineSet
EndChar

StartChar: d.sups
Encoding: 7496 7496 619
Width: 380
Flags: W
LayerCount: 2
Fore
SplineSet
301 672 m 1,0,-1
 306 738 l 1,1,-1
 325 837 l 1,2,-1
 422 837 l 1,3,-1
 330 375 l 1,4,-1
 252 375 l 1,5,-1
 254 418 l 1,6,-1
 250 418 l 1,7,8
 228 394 228 394 201 380.5 c 128,-1,9
 174 367 174 367 148 367 c 0,10,11
 104 367 104 367 79 398.5 c 128,-1,12
 54 430 54 430 54 488 c 0,13,14
 54 535 54 535 69 576 c 128,-1,15
 84 617 84 617 108.5 647.5 c 128,-1,16
 133 678 133 678 165 695.5 c 128,-1,17
 197 713 197 713 232 713 c 0,18,19
 253 713 253 713 271 701 c 128,-1,20
 289 689 289 689 297 672 c 1,21,-1
 301 672 l 1,0,-1
188 446 m 0,22,23
 205 446 205 446 223 456.5 c 128,-1,24
 241 467 241 467 258 493 c 1,25,-1
 278 604 l 1,26,27
 270 620 270 620 259.5 627 c 128,-1,28
 249 634 249 634 238 634 c 0,29,30
 222 634 222 634 206.5 624 c 128,-1,31
 191 614 191 614 179 596 c 128,-1,32
 167 578 167 578 160 553.5 c 128,-1,33
 153 529 153 529 153 501 c 0,34,35
 153 472 153 472 163 459 c 128,-1,36
 173 446 173 446 188 446 c 0,22,23
EndSplineSet
EndChar

StartChar: e.sups
Encoding: 7497 7497 620
Width: 332
Flags: W
LayerCount: 2
Fore
SplineSet
52 509 m 0,0,1
 52 554 52 554 68.5 591.5 c 128,-1,2
 85 629 85 629 112 656 c 128,-1,3
 139 683 139 683 172 698 c 128,-1,4
 205 713 205 713 238 713 c 0,5,6
 269 713 269 713 289.5 703 c 128,-1,7
 310 693 310 693 323 675.5 c 128,-1,8
 336 658 336 658 341.5 635 c 128,-1,9
 347 612 347 612 347 587 c 0,10,11
 347 564 347 564 341 542 c 128,-1,12
 335 520 335 520 330 512 c 1,13,-1
 143 512 l 1,14,15
 142 474 142 474 163 456.5 c 128,-1,16
 184 439 184 439 218 439 c 0,17,18
 233 439 233 439 246.5 444.5 c 128,-1,19
 260 450 260 450 276 460 c 1,20,-1
 305 399 l 1,21,22
 278 384 278 384 248.5 375.5 c 128,-1,23
 219 367 219 367 191 367 c 0,24,25
 128 367 128 367 90 405 c 128,-1,26
 52 443 52 443 52 509 c 0,0,1
150 570 m 1,27,-1
 266 570 l 1,28,29
 269 582 269 582 269 593 c 0,30,31
 269 612 269 612 259.5 625.5 c 128,-1,32
 250 639 250 639 226 639 c 0,33,34
 204 639 204 639 182.5 622 c 128,-1,35
 161 605 161 605 150 570 c 1,27,-1
EndSplineSet
EndChar

StartChar: f.sups
Encoding: 7584 7584 621
Width: 222
Flags: W
LayerCount: 2
Fore
SplineSet
58 375 m 1,0,-1
 109 629 l 1,1,-1
 67 629 l 1,2,-1
 79 699 l 1,3,-1
 124 704 l 1,4,-1
 129 728 l 2,5,6
 134 753 134 753 144 776 c 128,-1,7
 154 799 154 799 170 815.5 c 128,-1,8
 186 832 186 832 208 842 c 128,-1,9
 230 852 230 852 260 852 c 0,10,11
 280 852 280 852 298 847 c 128,-1,12
 316 842 316 842 333 834 c 1,13,-1
 302 767 l 1,14,15
 297 770 297 770 288 773.5 c 128,-1,16
 279 777 279 777 271 777 c 0,17,18
 252 777 252 777 241 765 c 128,-1,19
 230 753 230 753 225 725 c 2,20,-1
 221 705 l 1,21,-1
 279 705 l 1,22,-1
 264 629 l 1,23,-1
 206 629 l 1,24,-1
 154 375 l 1,25,-1
 58 375 l 1,0,-1
EndSplineSet
EndChar

StartChar: g.sups
Encoding: 7501 7501 622
Width: 365
Flags: W
LayerCount: 2
Fore
SplineSet
318 705 m 1,0,-1
 396 705 l 1,1,-1
 330 375 l 2,2,3
 315 300 315 300 270 264 c 128,-1,4
 225 228 225 228 156 228 c 0,5,6
 127 228 127 228 92.5 238.5 c 128,-1,7
 58 249 58 249 26 272 c 1,8,-1
 65 337 l 1,9,10
 86 323 86 323 110 313 c 128,-1,11
 134 303 134 303 159 303 c 0,12,13
 187 303 187 303 207 320.5 c 128,-1,14
 227 338 227 338 238 370 c 2,15,-1
 253 418 l 1,16,-1
 249 418 l 1,17,18
 226 400 226 400 201.5 390 c 128,-1,19
 177 380 177 380 150 380 c 0,20,21
 105 380 105 380 80.5 410 c 128,-1,22
 56 440 56 440 56 495 c 0,23,24
 56 540 56 540 70.5 579.5 c 128,-1,25
 85 619 85 619 109 649 c 128,-1,26
 133 679 133 679 165 696 c 128,-1,27
 197 713 197 713 232 713 c 0,28,29
 253 713 253 713 271 701 c 128,-1,30
 289 689 289 689 299 669 c 1,31,-1
 303 669 l 1,32,-1
 318 705 l 1,0,-1
190 458 m 0,33,34
 207 458 207 458 224.5 465.5 c 128,-1,35
 242 473 242 473 257 493 c 1,36,-1
 278 604 l 1,37,38
 270 620 270 620 259.5 627 c 128,-1,39
 249 634 249 634 238 634 c 0,40,41
 221 634 221 634 206 624.5 c 128,-1,42
 191 615 191 615 180 597.5 c 128,-1,43
 169 580 169 580 162 557 c 128,-1,44
 155 534 155 534 155 507 c 0,45,46
 155 481 155 481 164.5 469.5 c 128,-1,47
 174 458 174 458 190 458 c 0,33,34
EndSplineSet
Substitution2: "'ss03' Style Set 3 in Latin lookup 22 subtable" g.supa
Substitution2: "'aalt' Access All Alternates in Latin lookup 0 subtable" g.supa
EndChar

StartChar: h.sups
Encoding: 688 688 623
Width: 369
Flags: W
LayerCount: 2
Fore
SplineSet
43 375 m 1,0,-1
 135 838 l 1,1,-1
 232 838 l 1,2,-1
 212 736 l 1,3,-1
 193 666 l 1,4,-1
 197 666 l 1,5,6
 218 685 218 685 244 699 c 128,-1,7
 270 713 270 713 300 713 c 0,8,9
 342 713 342 713 361 690.5 c 128,-1,10
 380 668 380 668 380 626 c 0,11,12
 380 615 380 615 378 603 c 128,-1,13
 376 591 376 591 374 580 c 2,14,-1
 333 375 l 1,15,-1
 236 375 l 1,16,-1
 274 568 l 2,17,18
 277 579 277 579 278.5 585.5 c 128,-1,19
 280 592 280 592 280 598 c 0,20,21
 280 631 280 631 249 631 c 0,22,23
 233 631 233 631 217.5 620.5 c 128,-1,24
 202 610 202 610 182 589 c 1,25,-1
 140 375 l 1,26,-1
 43 375 l 1,0,-1
EndSplineSet
EndChar

StartChar: i.sups
Encoding: 8305 8305 624
Width: 180
Flags: W
LayerCount: 2
Fore
SplineSet
173 751 m 0,0,1
 153 751 153 751 137 762 c 128,-1,2
 121 773 121 773 121 796 c 256,3,4
 121 819 121 819 138.5 835 c 128,-1,5
 156 851 156 851 180 851 c 0,6,7
 200 851 200 851 216 840 c 128,-1,8
 232 829 232 829 232 806 c 256,9,10
 232 783 232 783 214.5 767 c 128,-1,11
 197 751 197 751 173 751 c 0,0,1
43 375 m 1,12,-1
 108 705 l 1,13,-1
 205 705 l 1,14,-1
 140 375 l 1,15,-1
 43 375 l 1,12,-1
EndSplineSet
EndChar

StartChar: j.sups
Encoding: 690 690 625
Width: 180
Flags: W
LayerCount: 2
Fore
SplineSet
11 240 m 0,0,1
 -6 240 -6 240 -22 243 c 128,-1,2
 -38 246 -38 246 -55 255 c 1,3,-1
 -26 322 l 1,4,5
 -18 319 -18 319 -11.5 317 c 128,-1,6
 -5 315 -5 315 3 315 c 0,7,8
 20 315 20 315 28 326.5 c 128,-1,9
 36 338 36 338 41 364 c 2,10,-1
 108 705 l 1,11,-1
 205 705 l 1,12,-1
 136 356 l 2,13,14
 126 305 126 305 97 272.5 c 128,-1,15
 68 240 68 240 11 240 c 0,0,1
173 751 m 0,16,17
 153 751 153 751 137 762 c 128,-1,18
 121 773 121 773 121 796 c 256,19,20
 121 819 121 819 138.5 835 c 128,-1,21
 156 851 156 851 180 851 c 0,22,23
 200 851 200 851 216 840 c 128,-1,24
 232 829 232 829 232 806 c 256,25,26
 232 783 232 783 214.5 767 c 128,-1,27
 197 751 197 751 173 751 c 0,16,17
EndSplineSet
EndChar

StartChar: k.sups
Encoding: 7503 7503 626
Width: 355
Flags: W
LayerCount: 2
Fore
SplineSet
43 375 m 1,0,-1
 135 838 l 1,1,-1
 232 838 l 1,2,-1
 179 575 l 1,3,-1
 183 575 l 1,4,-1
 302 705 l 1,5,-1
 408 705 l 1,6,-1
 272 560 l 1,7,-1
 352 375 l 1,8,-1
 256 375 l 1,9,-1
 206 505 l 1,10,-1
 156 456 l 1,11,-1
 140 375 l 1,12,-1
 43 375 l 1,0,-1
EndSplineSet
EndChar

StartChar: l.sups
Encoding: 737 737 627
Width: 180
Flags: W
LayerCount: 2
Fore
SplineSet
64 477 m 2,0,-1
 135 838 l 1,1,-1
 232 838 l 1,2,-1
 159 471 l 2,3,4
 157 468 157 468 157 464.5 c 128,-1,5
 157 461 157 461 157 459 c 0,6,7
 157 449 157 449 161 446.5 c 128,-1,8
 165 444 165 444 170 444 c 0,9,10
 176 444 176 444 181 446 c 1,11,-1
 180 375 l 1,12,13
 171 372 171 372 158 369.5 c 128,-1,14
 145 367 145 367 129 367 c 0,15,16
 91 367 91 367 75 385 c 128,-1,17
 59 403 59 403 59 435 c 0,18,19
 59 445 59 445 60 454.5 c 128,-1,20
 61 464 61 464 64 477 c 2,0,-1
EndSplineSet
Substitution2: "'ss01' Style Set 1 in Latin lookup 20 subtable" l.supa
Substitution2: "'aalt' Access All Alternates in Latin lookup 0 subtable" l.supa
EndChar

StartChar: m.sups
Encoding: 7504 7504 628
Width: 553
Flags: W
LayerCount: 2
Fore
SplineSet
44 375 m 1,0,-1
 108 705 l 1,1,-1
 186 705 l 1,2,-1
 185 660 l 1,3,-1
 189 660 l 1,4,5
 212 682 212 682 239 697.5 c 128,-1,6
 266 713 266 713 298 713 c 0,7,8
 332 713 332 713 348.5 697 c 128,-1,9
 365 681 365 681 372 655 c 1,10,11
 398 677 398 677 425.5 695 c 128,-1,12
 453 713 453 713 485 713 c 0,13,14
 527 713 527 713 544.5 690.5 c 128,-1,15
 562 668 562 668 562 625 c 0,16,17
 562 604 562 604 557 579 c 2,18,-1
 516 375 l 1,19,-1
 421 375 l 1,20,-1
 458 567 l 2,21,22
 462 583 462 583 462 600 c 0,23,24
 462 614 462 614 456 622.5 c 128,-1,25
 450 631 450 631 435 631 c 0,26,27
 423 631 423 631 406 620.5 c 128,-1,28
 389 610 389 610 370 589 c 1,29,-1
 328 375 l 1,30,-1
 233 375 l 1,31,-1
 271 567 l 2,32,33
 273 576 273 576 274.5 583 c 128,-1,34
 276 590 276 590 276 597 c 0,35,36
 276 631 276 631 245 631 c 0,37,38
 234 631 234 631 217 620 c 128,-1,39
 200 609 200 609 182 589 c 1,40,-1
 140 375 l 1,41,-1
 44 375 l 1,0,-1
EndSplineSet
EndChar

StartChar: n.sups
Encoding: 8319 8319 629
Width: 370
Flags: W
LayerCount: 2
Fore
SplineSet
43 375 m 1,0,-1
 108 705 l 1,1,-1
 186 705 l 1,2,-1
 185 660 l 1,3,-1
 189 660 l 1,4,5
 213 682 213 682 240.5 697.5 c 128,-1,6
 268 713 268 713 300 713 c 0,7,8
 342 713 342 713 361 690.5 c 128,-1,9
 380 668 380 668 380 626 c 0,10,11
 380 614 380 614 378 602.5 c 128,-1,12
 376 591 376 591 374 580 c 2,13,-1
 333 375 l 1,14,-1
 236 375 l 1,15,-1
 274 568 l 2,16,17
 277 578 277 578 278 585 c 128,-1,18
 279 592 279 592 279 598 c 0,19,20
 279 631 279 631 249 631 c 0,21,22
 233 631 233 631 217.5 620.5 c 128,-1,23
 202 610 202 610 182 589 c 1,24,-1
 140 375 l 1,25,-1
 43 375 l 1,0,-1
EndSplineSet
EndChar

StartChar: o.sups
Encoding: 7506 7506 630
Width: 358
Flags: W
LayerCount: 2
Fore
SplineSet
184 367 m 0,0,1
 127 367 127 367 89.5 403 c 128,-1,2
 52 439 52 439 52 504 c 0,3,4
 52 552 52 552 68 590.5 c 128,-1,5
 84 629 84 629 110 656 c 128,-1,6
 136 683 136 683 170 698 c 128,-1,7
 204 713 204 713 239 713 c 0,8,9
 296 713 296 713 333 677 c 128,-1,10
 370 641 370 641 370 576 c 0,11,12
 370 528 370 528 354 489.5 c 128,-1,13
 338 451 338 451 312 424 c 128,-1,14
 286 397 286 397 252.5 382 c 128,-1,15
 219 367 219 367 184 367 c 0,0,1
192 444 m 0,16,17
 210 444 210 444 225 454 c 128,-1,18
 240 464 240 464 251 482 c 128,-1,19
 262 500 262 500 268 524 c 128,-1,20
 274 548 274 548 274 575 c 0,21,22
 274 604 274 604 263.5 620 c 128,-1,23
 253 636 253 636 231 636 c 0,24,25
 213 636 213 636 198 626 c 128,-1,26
 183 616 183 616 172 598 c 128,-1,27
 161 580 161 580 155 556 c 128,-1,28
 149 532 149 532 149 505 c 0,29,30
 149 476 149 476 159.5 460 c 128,-1,31
 170 444 170 444 192 444 c 0,16,17
EndSplineSet
EndChar

StartChar: p.sups
Encoding: 7510 7510 631
Width: 369
Flags: W
LayerCount: 2
Fore
SplineSet
136 411 m 1,0,-1
 133 341 l 1,1,-1
 113 242 l 1,2,-1
 17 242 l 1,3,-1
 108 705 l 1,4,-1
 186 705 l 1,5,-1
 189 668 l 1,6,-1
 193 668 l 1,7,8
 216 689 216 689 240 701 c 128,-1,9
 264 713 264 713 290 713 c 0,10,11
 334 713 334 713 359 681.5 c 128,-1,12
 384 650 384 650 384 592 c 0,13,14
 384 545 384 545 369 504 c 128,-1,15
 354 463 354 463 329.5 432.5 c 128,-1,16
 305 402 305 402 273 384.5 c 128,-1,17
 241 367 241 367 207 367 c 0,18,19
 186 367 186 367 168 379 c 128,-1,20
 150 391 150 391 140 411 c 1,21,-1
 136 411 l 1,0,-1
250 634 m 256,22,23
 234 634 234 634 216 624.5 c 128,-1,24
 198 615 198 615 181 589 c 1,25,-1
 160 476 l 1,26,27
 175 445 175 445 198 445 c 0,28,29
 214 445 214 445 230 455.5 c 128,-1,30
 246 466 246 466 258.5 484 c 128,-1,31
 271 502 271 502 278.5 526.5 c 128,-1,32
 286 551 286 551 286 579 c 0,33,34
 286 608 286 608 276 621 c 128,-1,35
 266 634 266 634 250 634 c 256,22,23
EndSplineSet
EndChar

StartChar: q.sups
Encoding: 65657 -1 632
Width: 368
Flags: W
LayerCount: 2
Fore
SplineSet
396 705 m 1,0,-1
 303 242 l 1,1,-1
 206 242 l 1,2,-1
 227 341 l 1,3,-1
 254 418 l 1,4,-1
 250 418 l 1,5,6
 228 394 228 394 201 380.5 c 128,-1,7
 174 367 174 367 148 367 c 0,8,9
 104 367 104 367 79 398.5 c 128,-1,10
 54 430 54 430 54 488 c 0,11,12
 54 535 54 535 69 576 c 128,-1,13
 84 617 84 617 108.5 647.5 c 128,-1,14
 133 678 133 678 165 695.5 c 128,-1,15
 197 713 197 713 232 713 c 0,16,17
 253 713 253 713 271 701 c 128,-1,18
 289 689 289 689 299 669 c 1,19,-1
 303 669 l 1,20,-1
 318 705 l 1,21,-1
 396 705 l 1,0,-1
188 446 m 0,22,23
 205 446 205 446 223 456.5 c 128,-1,24
 241 467 241 467 258 493 c 1,25,-1
 278 604 l 1,26,27
 271 620 271 620 260 627 c 128,-1,28
 249 634 249 634 238 634 c 0,29,30
 222 634 222 634 206.5 624 c 128,-1,31
 191 614 191 614 179 596 c 128,-1,32
 167 578 167 578 160 553.5 c 128,-1,33
 153 529 153 529 153 501 c 0,34,35
 153 472 153 472 163 459 c 128,-1,36
 173 446 173 446 188 446 c 0,22,23
EndSplineSet
EndChar

